<svg width="110" height="24" viewBox="0 0 110 24" fill="none" xmlns="http://www.w3.org/2000/svg">
<path d="M13 0H16.1676V17.4515H13V0ZM32.0922 16.7285C31.4166 17.1108 30.6667 17.41 29.8432 17.626C29.0196 17.8587 28.0799 17.9751 27.0241 17.9751C25.5247 17.9751 24.2154 17.7673 23.0962 17.3518C21.9981 16.9197 21.0901 16.3629 20.3721 15.6814C19.6752 14.9834 19.1578 14.2022 18.82 13.338C18.4821 12.4737 18.3448 11.6011 18.4082 10.7202C18.4715 9.70638 18.7461 8.81717 19.2318 8.05263C19.7386 7.27146 20.3615 6.62326 21.1006 6.10803C21.8609 5.57617 22.7056 5.17728 23.6347 4.91136C24.5639 4.64544 25.5141 4.51247 26.4856 4.51247C27.5414 4.51247 28.555 4.67866 29.5265 5.01108C30.4978 5.32686 31.3426 5.81718 32.0605 6.482C32.7786 7.13019 33.3171 7.96123 33.676 8.97507C34.035 9.9723 34.1196 11.1607 33.9293 12.5402H21.9242C22.2198 13.3546 22.79 14.0526 23.6347 14.6343C24.4794 15.1994 25.6092 15.482 27.0241 15.482C27.742 15.482 28.3756 15.3989 28.9246 15.2327C29.4948 15.0665 29.991 14.8421 30.4134 14.5596L32.0922 16.7285ZM30.6984 10.0471C30.7195 9.56509 30.6034 9.13297 30.3499 8.75069C30.1178 8.36841 29.801 8.05263 29.3998 7.80332C29.0196 7.5374 28.5656 7.33796 28.0377 7.20499C27.5097 7.0554 26.9712 6.98061 26.4222 6.98061C25.9154 6.98061 25.4086 7.04708 24.9018 7.18006C24.4161 7.29639 23.9515 7.47923 23.508 7.72853C23.0857 7.97784 22.7161 8.29362 22.3994 8.6759C22.0826 9.05818 21.8503 9.51523 21.7025 10.0471H30.6984ZM36.2784 0H39.446V11.9917C39.446 12.5069 39.4778 12.9806 39.541 13.4127C39.6256 13.8282 39.8049 14.1773 40.0795 14.4598C40.3541 14.7424 40.7552 14.9584 41.2833 15.108C41.8322 15.241 42.5608 15.2742 43.4689 15.2078V17.7008C40.8713 17.7341 39.0236 17.2687 37.9254 16.3047C36.8273 15.3407 36.2784 13.903 36.2784 11.9917V0ZM42.8276 4.98615H46.2802L51.1902 14.2853L55.878 4.98615H59.2991L52.9322 17.4515H49.5114L42.8276 4.98615ZM72.9914 16.7285C72.3157 17.1108 71.5658 17.41 70.7423 17.626C69.9188 17.8587 68.9792 17.9751 67.9232 17.9751C66.4237 17.9751 65.1145 17.7673 63.9953 17.3518C62.8972 16.9197 61.9891 16.3629 61.2712 15.6814C60.5742 14.9834 60.0571 14.2022 59.7192 13.338C59.3811 12.4737 59.2439 11.6011 59.3072 10.7202C59.3707 9.70638 59.6453 8.81717 60.131 8.05263C60.6377 7.27146 61.2606 6.62326 61.9998 6.10803C62.7601 5.57617 63.6046 5.17728 64.5339 4.91136C65.4631 4.64544 66.4133 4.51247 67.3847 4.51247C68.4407 4.51247 69.4542 4.67866 70.4255 5.01108C71.3969 5.32686 72.2418 5.81718 72.9596 6.482C73.6777 7.13019 74.2162 7.96123 74.5752 8.97507C74.9341 9.9723 75.0187 11.1607 74.8284 12.5402H62.8233C63.119 13.3546 63.6893 14.0526 64.5339 14.6343C65.3784 15.1994 66.5083 15.482 67.9232 15.482C68.641 15.482 69.2746 15.3989 69.8238 15.2327C70.3937 15.0665 70.8901 14.8421 71.3126 14.5596L72.9914 16.7285ZM71.5976 10.0471C71.6186 9.56509 71.5026 9.13297 71.249 8.75069C71.0169 8.36841 70.7001 8.05263 70.2988 7.80332C69.9188 7.5374 69.4649 7.33796 68.9367 7.20499C68.4089 7.0554 67.8704 6.98061 67.3214 6.98061C66.8144 6.98061 66.3076 7.04708 65.8009 7.18006C65.3152 7.29639 64.8506 7.47923 64.4071 7.72853C63.9849 7.97784 63.6153 8.29362 63.2986 8.6759C62.9818 9.05818 62.7494 9.51523 62.6015 10.0471H71.5976ZM77.5091 7.47922H76.5588V4.98615H77.5091V2.46814H80.7085V2.74238C80.7085 3.14127 80.6346 3.49031 80.4867 3.78947C80.36 4.07203 80.191 4.3047 79.98 4.48754C79.7897 4.65373 79.5786 4.77839 79.3464 4.8615C79.1351 4.94461 78.9451 4.98615 78.7762 4.98615H82.894V7.47922H80.6767V11.9917C80.6767 12.59 80.7613 13.1219 80.9302 13.5873C81.0992 14.036 81.3735 14.4017 81.7538 14.6842C82.1548 14.9668 82.6723 15.1579 83.3058 15.2576C83.9393 15.3407 84.7207 15.3241 85.6499 15.2078V17.7008C82.9469 17.8837 80.9089 17.5097 79.5364 16.5789C78.1848 15.6482 77.5091 14.1191 77.5091 11.9917V7.47922ZM89.519 4.38781C88.9701 4.38781 88.5583 4.25484 88.2837 3.98892C88.0091 3.723 87.8719 3.43213 87.8719 3.11634C87.8719 2.80056 88.0091 2.50969 88.2837 2.24377C88.5583 1.97784 88.9701 1.84488 89.519 1.84488C90.0468 1.84488 90.4375 1.97784 90.691 2.24377C90.9656 2.50969 91.1028 2.80056 91.1028 3.11634C91.1028 3.43213 90.9656 3.723 90.691 3.98892C90.4375 4.25484 90.0468 4.38781 89.519 4.38781ZM87.9352 4.98615H91.1028V17.4515H87.9352V4.98615ZM101.669 18C99.8319 18 98.2906 17.6676 97.0446 17.0028C95.8197 16.338 94.8905 15.5069 94.257 14.5097C93.6446 13.4959 93.3385 12.4072 93.3385 11.2438C93.3596 10.0803 93.6763 9 94.2888 8.00277C94.9012 6.98893 95.8197 6.14958 97.0446 5.48477C98.2906 4.81995 99.8319 4.48754 101.669 4.48754C102.197 4.48754 102.725 4.5374 103.253 4.63712C103.781 4.73684 104.267 4.86981 104.71 5.03601C105.175 5.20221 105.586 5.39336 105.945 5.60942C106.326 5.82548 106.621 6.04985 106.832 6.28255V4.98615H110V17.4515H106.832V16.205C106.22 16.8366 105.47 17.2936 104.583 17.5762C103.718 17.8587 102.746 18 101.669 18ZM101.669 15.5069C102.831 15.5069 103.792 15.2992 104.552 14.8837C105.312 14.4515 105.882 13.9197 106.262 13.2881C106.642 12.6565 106.832 11.9751 106.832 11.2438C106.832 10.5125 106.632 9.83103 106.231 9.19945C105.85 8.56786 105.28 8.04431 104.52 7.62881C103.76 7.19667 102.81 6.98061 101.669 6.98061C100.529 6.98061 99.5787 7.19667 98.8184 7.62881C98.0581 8.04431 97.4878 8.56786 97.1078 9.19945C96.7279 9.83103 96.5272 10.5125 96.5061 11.2438C96.5061 11.9751 96.6961 12.6565 97.0761 13.2881C97.4564 13.9197 98.0264 14.4515 98.7866 14.8837C99.568 15.2992 100.529 15.5069 101.669 15.5069Z" fill="black"/>
<path d="M3.15533 0H0V16C0 20.4183 3.58172 24 8 24H76C76 22.6876 74.676 21.6238 73.0428 21.6238H9.15533C5.84162 21.6238 3.15533 18.9375 3.15533 15.6238V10.1418H12.148V10.015C12.148 9.72765 12.0849 9.44032 11.9587 9.15296C11.8325 8.8656 11.6326 8.61206 11.3592 8.39233C11.1068 8.15568 10.7807 7.96976 10.381 7.83453C9.98137 7.6824 9.50807 7.60634 8.96114 7.60634H3.15533V0Z" fill="#A20009"/>
</svg>
