<svg width="929" height="200" viewBox="0 0 929 200" fill="none" xmlns="http://www.w3.org/2000/svg">
<path d="M44.3473 1.84535C42.6095 4.01634 43.6956 6.73009 46.411 6.73009C47.6057 6.73009 49.2349 7.70704 50.2124 9.00964C51.9502 11.6148 51.4072 13.8944 46.411 24.9665C44.6731 28.6572 43.2612 32.1308 43.2612 32.6735C43.2612 33.2163 42.5009 35.2787 41.5234 37.3411C37.3961 45.5909 36.7444 47.1106 36.7444 48.7389C36.7444 49.6073 36.0927 51.6697 35.2238 53.1894C34.3549 54.8177 32.9429 58.2913 31.8568 61.005C30.8793 63.7188 29.3587 67.3009 28.4898 68.9291C27.6209 70.6659 26.9692 72.7284 26.9692 73.7053C26.9692 74.5737 26.3176 76.6362 25.5573 78.1559C24.6884 79.7841 23.2764 82.715 22.2989 84.6689C21.3214 86.7313 20.4525 88.7938 20.4525 89.4451C20.4525 90.6391 17.9544 96.6094 15.4563 101.494C14.5874 103.231 13.9357 105.076 13.9357 105.728C13.9357 107.899 6.22415 116.365 4.26912 116.365C3.18299 116.365 1.66241 117.125 0.902115 118.102C-1.92182 121.359 1.6624 122.336 14.8046 122.01C25.34 121.684 26.9692 121.467 26.9692 119.839C26.9692 118.862 25.4486 117.125 23.7108 116.148C20.9955 114.629 20.4525 113.652 20.4525 110.287C20.4525 106.813 22.2989 101.277 25.7745 94.6555C26.3176 93.6785 27.0778 91.399 27.4037 89.4451C27.8381 87.5997 28.707 85.6458 29.3587 85.3202C29.9018 84.886 36.3099 84.4518 43.3698 84.3432L56.2947 84.0176V97.0435C56.2947 113.977 54.5569 117.342 45.6507 117.451C43.8042 117.451 43.1526 117.994 43.4784 119.296C43.8042 121.033 45.542 121.25 60.0962 121.25C69.1111 121.359 77.3656 121.684 78.669 122.119C80.1896 122.661 81.3843 122.336 82.2532 121.359C83.991 119.296 82.9049 117.451 79.8637 117.451C78.5604 117.451 76.2795 116.474 74.7589 115.28L72.0436 113.217L71.8264 58.6169C71.7178 28.5486 71.6092 3.47359 71.5005 2.71375C71.5005 1.84535 68.7852 1.5197 62.5943 1.62825C57.5981 1.7368 51.8416 1.5197 49.6693 0.97695C46.7368 0.434201 45.4334 0.54275 44.3473 1.84535ZM56.512 22.1442C56.8378 22.904 56.8378 35.93 56.512 50.9099L55.9689 78.373H44.7818C38.6994 78.373 33.3774 77.9388 33.0516 77.5046C32.5085 76.6362 34.5721 71.4258 38.4822 63.9358C39.3511 62.1991 40.0028 60.3537 40.0028 59.7024C40.0028 59.1597 40.6545 57.0972 41.5234 55.2519C42.2837 53.298 43.8042 49.6073 44.8904 46.8935C45.8679 44.1798 47.3885 40.3805 48.2574 38.4266C49.1263 36.4727 49.778 34.1932 49.778 33.4333C49.778 32.5649 50.5382 30.5025 51.4072 28.8743C52.2761 27.1375 53.0363 24.9665 53.0363 23.9895C53.0363 20.9501 55.6431 19.6475 56.512 22.1442ZM584.154 3.36505C584.154 6.07879 584.588 6.73009 586.652 6.73009C587.955 6.73009 590.236 7.70704 591.757 8.90109L594.472 10.9635V113.326L591.865 115.388C590.453 116.583 588.498 117.234 587.521 116.908C586.543 116.691 585.023 116.908 584.154 117.451C581.873 118.862 584.262 122.444 586.978 122.01C588.172 121.793 596.753 121.576 606.202 121.576C621.734 121.576 623.254 121.359 623.254 119.622C623.254 118.211 622.06 117.559 618.801 117.017C611.959 115.931 611.09 112.566 610.873 88.6852L610.764 69.1462L623.254 68.8206C635.636 68.4949 635.745 68.4949 639.221 65.1299L642.805 61.6563V35.6043C642.696 10.2037 642.696 9.33529 640.307 6.62154C636.397 1.9539 631.509 1.0855 612.61 1.5197C603.27 1.62825 592.951 1.41115 589.91 0.97695L584.154 0V3.36505ZM626.513 8.79254C627.816 11.2892 628.033 59.7024 626.73 61.7649C625.427 63.7187 613.914 64.9128 611.85 63.176C610.438 62.0905 610.221 57.64 610.221 34.953C610.221 14.4371 610.547 7.81559 611.633 7.48994C612.285 7.16429 615.76 6.83864 619.127 6.83864C624.232 6.73009 625.535 7.16429 626.513 8.79254ZM510.514 21.8185C506.604 23.9895 503.997 27.1375 501.173 32.5649C498.458 37.7753 498.458 55.1433 501.173 61.3307C504.106 68.1693 509.645 74.5737 516.597 79.1328C526.372 85.6458 532.78 92.3759 533.649 97.1521C534.844 103.231 532.454 110.395 528.001 114.194C523.005 118.645 518.552 118.536 513.555 113.869C508.885 109.527 506.604 104.859 504.866 96.2837C503.346 88.4681 502.368 86.5142 500.413 86.5142C498.893 86.5142 498.893 88.3596 499.436 121.467C499.436 123.855 501.608 122.987 502.694 120.165C503.889 117.017 504.975 116.8 508.994 118.971C510.623 119.839 513.773 121.359 515.945 122.444C526.698 127.22 542.772 117.451 545.922 104.208C548.312 93.8956 547.443 86.8399 542.989 77.5046C540.6 72.5113 532.997 64.5872 528.544 62.5247C514.207 55.9032 508.451 47.2192 511.383 36.2556C513.338 29.1999 516.162 26.2691 521.158 26.2691C524.091 26.2691 526.154 27.1375 528.435 29.1999C533.866 34.3017 535.387 37.5582 537.233 48.5218C537.776 51.8868 538.428 52.8638 540.166 52.8638C542.229 52.8638 542.338 52.1039 542.338 37.7753C542.338 27.8973 541.903 22.1442 541.034 20.9501C539.948 19.4304 539.622 19.539 538.645 22.1442C537.233 25.9434 535.495 26.8118 533.323 24.9665C526.48 19.4304 517.14 18.2364 510.514 21.8185ZM715.032 20.5159C702.542 23.0126 698.415 25.2921 694.287 31.9137L691.572 36.1471V107.573L694.179 111.698C700.152 121.142 713.077 125.918 722.853 122.227C729.804 119.73 734.8 114.954 737.95 107.79C740.231 102.797 740.556 100.3 740.556 89.6622C740.556 78.4815 740.774 77.1789 742.729 75.9849C744.792 74.6823 745.77 71.9685 744.141 71.7514C742.62 71.6429 724.916 71.6429 723.504 71.7514C721.223 71.9685 721.875 74.1395 724.808 76.4191C727.523 78.4815 727.523 78.6986 727.523 94.4384C727.414 109.418 727.306 110.612 725.025 113.435C722.31 116.691 716.662 118.211 711.883 117.017C710.471 116.691 708.19 114.737 706.995 112.675C704.823 109.201 704.714 107.681 704.714 71.6429V34.3017L708.081 30.8282C712.534 26.2691 715.793 25.5092 721.006 27.8973C728.609 31.3709 732.954 38.2095 732.954 47.0021C732.954 51.5612 734.8 53.6236 738.058 52.7552C740.339 52.1039 740.448 51.6697 740.122 37.6668C739.905 29.7427 739.47 22.6869 739.036 22.0356C738.058 20.5159 735.343 21.71 734.583 24.2066C733.822 26.5947 731.107 26.9204 728.718 24.7494C727.197 23.4468 724.699 22.4698 718.834 20.5159C717.965 20.2988 716.227 20.1903 715.032 20.5159ZM93.549 22.6869C85.6202 22.904 79.1035 23.4468 79.1035 23.881C79.1035 24.3152 81.2757 26.5947 83.991 28.7657L88.8786 32.8906V70.3403C88.8786 110.829 88.77 110.287 94.8523 117.234C100.392 123.638 117.444 126.243 126.024 122.01C136.451 117.017 137.863 109.961 137.646 65.5641L137.537 31.4795L141.447 28.223C144.163 26.052 145.14 24.5323 144.488 23.881C143.402 22.7955 125.481 21.9271 122.874 22.7955C121.245 23.3382 120.919 26.2691 122.549 26.2691C123.092 26.2691 125.264 27.7888 127.436 29.6341L131.346 33.1077L131.02 70.1232C130.695 102.254 130.477 107.573 128.848 110.504C126.567 114.737 122.766 116.365 115.706 116.365C108.103 116.257 105.496 114.194 104.084 106.704C102.564 98.6718 102.672 38.4266 104.193 34.0846C104.845 32.1308 107.017 29.6341 109.081 28.3315C113.208 25.8349 113.751 22.4698 110.058 22.4698C108.863 22.3613 101.369 22.5784 93.549 22.6869ZM214.544 23.3382C213.24 24.2066 214.978 26.052 220.409 29.6341L223.016 31.3709L223.342 68.1693C223.559 88.4681 223.341 106.922 223.016 109.418C222.473 113.217 221.712 114.194 218.019 116.257C210.091 120.707 212.48 121.25 240.937 121.25H267.33L268.85 115.823C271.24 107.681 271.783 102.254 270.262 102.254C267.764 102.254 264.832 104.533 264.832 106.487C264.832 108.984 260.813 113.435 256.903 115.063C255.274 115.823 250.929 116.365 247.454 116.365C238.113 116.365 237.896 115.714 237.787 93.4614C237.678 73.7053 237.787 73.3797 243.869 75.0079C246.367 75.6592 247.236 76.8533 249.083 82.2808C250.712 87.057 251.798 88.6852 253.319 88.6852C255.274 88.6852 255.382 87.5997 255.382 71.86C255.382 56.1203 255.274 55.0348 253.319 55.0348C251.798 55.0348 250.712 56.663 249.083 61.4392C247.236 66.9752 246.367 68.0607 243.652 68.8206C241.914 69.2548 239.742 69.4719 239.09 69.1462C237.027 68.4949 237.353 31.1538 239.308 29.5256C240.177 28.7657 243.326 28.6572 248.105 29.0914C256.903 30.0683 261.573 33.5419 261.573 39.1865C261.573 42.2259 261.899 42.5515 264.832 42.5515H268.09L267.873 33.2163C267.764 28.0059 267.113 23.6639 266.461 23.4468C264.18 22.6869 215.63 22.4698 214.544 23.3382ZM275.041 23.3382C274.172 25.7263 275.367 27.3546 277.865 27.3546C279.06 27.3546 280.798 28.6572 281.884 30.2854C283.622 32.9992 283.839 36.3642 283.404 71.7514C283.079 113.435 282.753 115.606 277.322 117.017C275.584 117.451 274.607 118.428 274.607 119.73C274.607 121.576 275.584 121.793 285.903 121.793C295.243 121.793 297.307 121.467 297.85 120.056C298.284 118.862 297.524 117.994 295.352 117.125C289.378 114.954 288.944 111.806 288.401 75.1165C288.183 56.8801 288.183 41.1404 288.509 40.0549C289.052 37.5582 290.899 38.8608 290.899 41.7917C290.899 43.0943 291.659 45.5909 292.528 47.3277C293.397 48.956 294.157 51.5612 294.157 52.8638C294.157 54.1664 294.917 57.9656 295.895 61.1136C296.764 64.3701 298.176 69.3633 298.936 72.4027C299.805 75.3336 301.217 80.544 302.086 83.8005C303.063 87.057 304.041 90.9648 304.367 92.4845C304.584 94.0042 305.344 96.6093 305.887 98.4547C307.625 103.448 309.689 112.132 310.232 116.691C310.775 121.25 311.752 122.227 314.794 121.25C316.314 120.707 316.966 119.622 316.966 117.234C316.966 114.086 318.921 106.162 321.528 98.4547C322.071 96.6093 323.048 93.3528 323.591 91.0733C324.134 88.7938 325.003 86.1886 325.546 85.1031C326.089 84.1261 327.067 81.0867 327.719 78.373C328.37 75.6592 329.782 70.7745 330.651 67.518C331.629 64.2615 332.823 59.811 333.258 57.7485C333.692 55.6861 334.887 51.0184 335.865 47.5448C339.666 33.5419 340.209 37.2326 339.883 75.8763C339.666 107.79 339.449 110.504 337.494 113.217C336.408 114.846 334.235 116.474 332.715 116.8C331.086 117.234 329.999 118.211 329.999 119.513C329.999 121.25 331.303 121.467 346.291 121.359C360.628 121.359 362.583 121.142 362.583 119.622C362.583 118.645 361.389 117.234 359.977 116.583C353.786 113.76 353.677 113.217 353.677 72.6198C353.677 46.5679 354.112 34.6274 354.98 32.6735C355.741 31.0453 358.022 28.9828 360.085 28.0059C362.583 26.8118 363.669 25.6178 363.452 24.3152C363.126 22.6869 361.823 22.4698 351.179 22.904C344.554 23.1211 338.58 23.7724 337.928 24.3152C337.168 24.9665 336.516 26.7033 336.516 28.1144C336.516 30.6111 334.996 36.0385 331.629 45.808C330.868 47.8705 329.456 52.5381 328.37 56.1203C327.284 59.7024 325.872 64.8043 325.003 67.518C324.243 70.2317 322.614 75.9849 321.528 80.4354C319.355 89.1194 317.509 91.2904 316.423 86.2971C315.988 84.6689 315.228 82.1722 314.685 80.7611C314.142 79.3499 313.707 76.9618 313.707 75.3336C313.707 73.7053 313.056 70.2317 312.187 67.518C310.666 62.7418 308.603 55.3604 305.562 44.1798C304.801 41.1404 303.389 36.0385 302.412 32.6735C301.434 29.3085 300.674 25.8349 300.674 24.8579C300.674 23.2297 299.371 23.0126 291.55 23.0126C286.554 23.0126 281.015 22.6869 279.06 22.3613C276.562 21.8185 275.584 22.1442 275.041 23.3382ZM386.261 22.5784C384.632 24.0981 385.392 25.7263 388.65 27.5717C392.452 29.7427 392.669 31.6966 390.171 39.7292C386.044 53.1894 385.392 55.469 385.392 57.2058C385.392 58.2913 384.74 61.6563 383.871 64.6957C381.265 74.031 378.875 85.3202 378.875 87.9254C378.875 89.3365 378.224 91.7246 377.355 93.3529C376.594 94.9811 375.617 98.6718 375.182 101.711C374.205 109.31 371.381 116.148 368.883 117.017C367.688 117.342 366.928 118.428 367.145 119.405C367.471 120.925 369.1 121.359 376.486 121.576C384.849 121.901 385.392 121.793 385.392 119.622C385.392 118.428 384.74 117.451 383.871 117.451C380.504 117.451 378.658 114.086 379.418 109.418C379.744 106.922 380.504 104.533 381.156 103.991C381.699 103.339 382.134 101.06 382.134 98.8889C382.134 92.3759 384.089 91.2904 395.059 91.6161L404.399 91.9417L405.051 97.9119C405.377 101.277 406.246 104.968 406.897 106.27C407.658 107.573 408.201 110.178 408.201 112.023C408.201 114.846 407.658 115.714 404.942 116.691C403.096 117.342 401.684 118.754 401.684 119.73C401.684 121.359 403.096 121.576 414.392 121.467C422.538 121.359 427.208 120.816 427.425 120.056C427.643 119.405 426.339 117.234 424.493 115.28C422.212 112.892 421.234 110.721 421.234 108.224C421.234 106.27 420.474 102.58 419.605 100.083C418.736 97.5863 417.976 93.8956 417.976 91.9417C417.976 89.9878 417.216 86.2971 416.347 83.8005C415.478 81.3038 414.718 77.6131 414.718 75.6592C414.718 73.7053 413.957 70.0146 413.088 67.518C412.219 65.0214 411.459 61.2221 411.459 59.1597C411.459 57.2058 410.699 53.7322 409.83 51.5612C408.961 49.4987 408.201 46.1337 408.201 44.1798C408.201 42.2259 407.44 38.5352 406.572 36.0385C405.703 33.5419 404.942 29.5256 404.942 27.246V23.0126H399.838C396.905 23.0126 392.886 22.6869 390.823 22.3613C388.759 22.0356 386.695 22.1442 386.261 22.5784ZM396.579 53.0809C397.448 57.2058 398.534 63.5017 398.86 67.3009C399.186 71.1001 399.946 75.0079 400.598 76.202C401.141 77.2875 401.684 80.2183 401.684 82.6064V86.9484L394.516 86.6228C385.283 86.1886 384.523 85.3202 386.804 78.0473C387.782 74.7908 388.65 71.2087 388.65 69.9061C388.65 68.6035 389.411 64.8043 390.28 61.3307C391.149 57.9656 391.909 53.298 391.909 51.2355C391.909 47.3277 392.561 45.808 394.081 45.808C394.516 45.808 395.602 49.0645 396.579 53.0809ZM430.358 23.2297C429.489 24.6408 431.118 26.9204 434.051 28.223C439.373 30.5025 439.807 33.6505 439.807 72.8369C439.916 111.698 439.59 113.869 433.725 116.583C432.204 117.234 431.009 118.536 431.009 119.513C431.009 121.033 433.073 121.25 447.301 121.359C462.181 121.467 463.593 121.25 463.593 119.513C463.593 118.319 462.507 117.342 460.661 116.908C454.904 115.606 454.144 113.109 453.71 93.57L453.275 75.6592H455.882C457.294 75.6592 458.814 76.4191 459.357 77.2875C461.638 81.5209 463.593 86.4057 463.593 87.7083C463.593 89.228 465.874 94.8726 468.59 100.409C469.458 102.145 470.11 104.316 470.11 105.293C470.11 106.27 470.87 108.116 471.739 109.201C472.608 110.395 473.369 112.349 473.369 113.543C473.477 114.846 474.455 117.017 475.649 118.536C477.604 120.816 479.016 121.25 485.425 121.576C492.484 122.01 492.919 121.901 492.919 119.73C492.919 118.536 492.376 117.451 491.833 117.451C491.181 117.451 490.204 116.365 489.661 114.954C489.009 113.652 488.14 111.806 487.705 110.938C484.773 105.728 483.144 101.82 483.144 100.083C483.144 99.106 482.383 97.5863 481.515 96.8264C480.646 96.0666 479.885 94.3298 479.885 93.0272C479.885 91.7246 479.125 89.9878 478.256 89.228C477.387 88.4681 476.627 87.1655 476.627 86.1886C476.627 85.3202 475.649 82.9321 474.346 80.8696C471.631 76.6362 472.174 74.4652 476.301 72.7284C483.252 69.7975 483.144 70.0146 483.144 48.956V29.7427L479.777 26.9204C477.93 25.4007 475.432 23.881 474.129 23.5553C470.327 22.7955 430.792 22.3613 430.358 23.2297ZM468.481 30.6111C469.893 31.8051 470.11 34.7359 469.893 49.4987L469.567 66.8667L465.874 69.3633C463.593 70.883 460.552 71.86 458.054 71.86H453.818V50.8013C453.818 34.953 454.144 29.5256 455.23 29.0914C457.511 28.1144 466.635 29.0914 468.481 30.6111ZM651.711 23.6639C650.299 24.7494 650.734 25.4007 654.535 27.8973C658.228 30.394 659.097 31.588 659.64 35.3872C659.966 37.7753 660.074 56.1203 659.966 76.0934L659.531 112.241L656.599 114.846C654.861 116.257 652.797 117.451 651.928 117.451C650.951 117.451 650.408 118.211 650.625 119.296C650.951 121.033 652.58 121.25 666.7 121.25C679.95 121.25 682.449 121.033 682.774 119.622C682.883 118.645 681.797 117.451 679.733 116.691C677.887 116.04 676.04 114.194 675.389 112.566C673.977 108.875 673.977 36.0385 675.389 32.3478C675.932 30.8282 677.887 28.8743 679.733 27.8973C681.797 26.8118 682.992 25.4007 682.774 24.4237C682.449 22.904 680.385 22.6869 667.894 22.5784C658.771 22.4698 652.689 22.904 651.711 23.6639ZM746.965 23.7724C746.204 24.5323 746.965 25.7263 749.246 27.3546C755.654 31.9137 755.762 32.5649 755.762 70.4488C755.762 89.4451 756.088 106.704 756.414 108.875C756.848 111.155 758.586 114.412 760.541 116.474C765.646 122.01 770.751 123.964 780.526 123.964C791.062 123.964 796.384 121.25 800.076 114.303C802.466 109.744 802.466 108.984 802.574 72.0771C802.574 35.1701 802.683 34.3017 804.964 30.9367C806.267 28.9828 808.548 26.9204 809.96 26.2691C811.589 25.5092 812.241 24.7494 811.589 24.0981C810.069 22.5784 789.541 22.0356 788.672 23.4468C788.238 23.9895 789.867 26.1605 792.256 28.223L796.492 31.8051V68.9291C796.492 89.3365 796.166 107.464 795.623 109.093C794.429 113.435 788.998 116.365 782.047 116.365C776.942 116.365 775.747 115.931 773.032 113L769.882 109.635V32.0222L774.77 28.5486C779.983 24.8579 780.852 23.0126 777.811 22.904C761.845 22.3613 747.834 22.6869 746.965 23.7724ZM815.499 22.7955C813.436 23.5553 814.413 25.7263 817.78 27.8973C819.627 29.0914 821.582 31.1538 822.125 32.5649C823.211 35.2787 823.537 105.402 822.451 110.612C822.016 113 820.604 114.629 817.454 116.365C809.634 120.707 812.024 121.25 840.48 121.25H866.982L867.742 117.994C868.177 116.148 869.263 112.783 870.349 110.504C871.761 107.139 871.87 105.619 871.001 103.665C869.915 101.168 869.697 101.168 867.091 102.905C865.57 103.882 864.375 105.51 864.375 106.487C864.267 109.201 859.814 113.76 855.795 115.171C850.69 116.8 842.435 116.691 839.829 114.846C837.982 113.435 837.765 111.589 837.439 94.3298C837.113 73.5968 837.113 73.3797 843.413 75.0079C845.911 75.6592 846.78 76.8533 848.626 82.2808C850.256 87.057 851.342 88.6852 852.862 88.6852C854.817 88.6852 854.926 87.5997 854.926 71.86C854.926 56.1203 854.817 55.0348 852.862 55.0348C851.342 55.0348 850.256 56.663 848.626 61.4392C846.78 66.9752 845.911 68.0607 843.196 68.8206C841.458 69.2548 839.286 69.4719 838.525 69.1462C836.679 68.4949 836.788 32.6735 838.743 30.0683C839.829 28.6572 841.241 28.4401 847.54 29.0914C856.555 30.0683 861.117 33.4333 861.117 39.295C861.117 42.3344 861.443 42.6601 864.158 42.3344L867.091 42.0088L866.765 33.3248C866.548 28.5486 866.004 24.3152 865.679 23.881C864.918 23.1211 817.563 22.1442 815.499 22.7955ZM147.53 23.6639C147.53 24.0981 149.702 26.2691 152.417 28.6572L157.305 32.9992V72.1856C157.196 108.658 157.088 111.698 155.241 113.869C154.155 115.171 151.983 116.583 150.354 117.017C148.399 117.451 147.53 118.319 147.747 119.513C148.073 121.033 150.788 121.25 171.859 121.25H195.537L200.207 116.148C210.308 104.968 213.784 79.6756 209.548 47.979C207.918 35.7129 204.226 28.7657 197.383 25.2921C193.473 23.2297 191.192 23.0126 170.338 23.0126C157.739 23.0126 147.53 23.3382 147.53 23.6639ZM190.106 31.3709C193.799 34.7359 195.645 39.5121 197.057 49.6073C198.795 61.7649 198.904 76.5276 197.383 91.9417C196.08 105.185 193.69 111.046 188.368 114.303C184.567 116.691 174.791 117.125 172.728 115.063C171.75 114.086 171.424 103.339 171.424 73.2711C171.424 33.4333 171.425 32.7821 173.705 30.5025C175.769 28.4401 176.855 28.223 181.96 28.7657C185.436 29.0914 188.803 30.1769 190.106 31.3709ZM872.738 23.7724C872.413 24.3152 871.978 28.5486 871.87 33.3248L871.435 42.0088L874.476 42.3344C877.192 42.6601 877.409 42.443 877.409 38.4266C877.409 32.8906 880.776 29.6341 886.858 29.3085C889.248 29.3085 891.746 29.5256 892.397 29.9598C893.375 30.5025 893.701 41.3575 893.701 69.689C893.701 106.922 893.592 108.767 891.529 112.349C890.225 114.412 888.053 116.474 886.641 116.8C885.012 117.234 883.926 118.319 883.926 119.513C883.926 121.25 885.229 121.467 900.218 121.467C915.315 121.467 916.51 121.25 916.51 119.405C916.51 118.319 915.749 117.451 914.772 117.451C913.903 117.451 911.731 115.823 909.884 113.977L906.734 110.504V70.0146C906.734 32.5649 906.843 29.6341 908.689 29.0914C910.319 28.5486 918.465 29.8512 919.116 30.8282C921.832 34.4103 923.026 37.124 923.026 39.6207C923.026 42.3344 923.352 42.6601 926.067 42.3344L929 42.0088L928.566 33.3248C928.348 28.5486 928.022 24.3152 927.697 23.7724C927.479 23.3382 915.098 23.0126 900.218 23.0126C885.338 23.0126 872.956 23.3382 872.738 23.7724ZM342.707 156.963C342.381 157.831 343.033 159.134 344.336 160.002C346.509 161.414 346.509 161.739 344.988 165.321C344.119 167.275 342.49 171.943 341.404 175.525C336.951 190.722 335.213 194.521 332.498 195.173C330.868 195.607 329.999 196.475 330.217 197.561C330.543 198.972 332.823 199.297 345.097 199.297C359.434 199.406 359.651 199.406 361.606 196.692C365.95 190.722 363.669 186.597 358.89 191.808C356.827 193.979 354.872 194.847 350.201 195.281C342.816 196.041 341.73 194.521 344.336 187.031C345.314 184.318 346.4 180.41 346.834 178.564C347.269 176.611 348.029 174.765 348.572 174.44C349.115 174.005 349.55 172.703 349.55 171.4C349.658 166.95 353.568 160.002 356.284 159.568C357.587 159.351 358.782 158.483 358.782 157.614C358.782 155.226 343.576 154.575 342.707 156.963ZM424.493 156.529C423.081 157.506 423.298 157.94 425.47 159.677C428.077 161.739 428.077 161.739 426.448 166.407C425.47 169.012 424.384 172.811 423.95 174.657C423.515 176.611 422.755 178.456 422.212 178.782C421.669 179.216 421.234 180.735 421.234 182.364C421.234 183.992 420.474 186.706 419.605 188.443C418.736 190.071 417.976 192.133 417.976 192.893C417.976 193.653 416.564 194.847 414.718 195.498C411.459 196.584 410.264 198.755 412.871 198.972C413.523 199.08 418.845 199.189 424.493 199.297C436.114 199.515 441.219 197.778 445.129 192.35C447.736 188.768 447.953 182.364 445.672 180.41C443.174 178.239 443.717 175.091 447.301 172.051C451.972 168.144 451.863 162.173 447.193 158.266C444.26 155.769 442.957 155.443 435.028 155.443C430.141 155.443 425.362 155.986 424.493 156.529ZM443.717 164.127C444.152 169.338 441.219 172.594 435.788 173.028C432.096 173.354 431.553 173.028 431.227 170.966C431.01 169.663 431.878 166.624 433.182 164.127C435.354 160.002 435.788 159.677 439.481 160.002C443.174 160.328 443.5 160.545 443.717 164.127ZM436.44 177.913C440.133 180.41 440.785 181.495 440.785 185.403C440.785 190.179 434.702 195.607 429.272 195.607C426.991 195.607 425.253 194.955 424.927 193.979C424.384 192.567 426.013 186.38 428.946 178.456C430.032 175.634 432.747 175.417 436.44 177.913ZM498.784 171.183C498.241 172.486 497.263 172.811 495.417 172.269C489.769 170.857 478.473 182.147 475.432 192.133C473.043 200.057 478.039 202.554 484.447 196.692L488.031 193.327L489.443 196.692C491.072 200.817 493.679 200.817 498.132 196.909C502.368 193.11 502.477 192.35 498.893 192.35C495.308 192.35 495.417 190.505 499.436 181.821C501.282 177.805 502.911 173.68 503.02 172.377C503.237 169.663 499.762 168.578 498.784 171.183ZM495.091 178.239C495.091 181.93 488.792 190.722 484.338 193.219C480.863 195.281 480.428 194.304 482.601 188.768C486.076 179.65 495.091 172.051 495.091 178.239ZM381.482 172.811C377.029 174.548 369.1 187.357 369.1 192.676C369.1 196.475 372.902 199.949 377.137 199.949C381.591 199.949 388.107 193.979 384.958 192.784C383.871 192.35 382.568 192.567 381.808 193.327C381.156 193.979 379.527 194.521 378.115 194.521C376.16 194.521 375.617 193.87 375.617 191.916C375.617 187.248 376.703 185.837 380.504 185.837C382.459 185.837 384.632 185.077 385.392 184.209C386.152 183.341 387.238 182.581 387.89 182.581C389.085 182.581 392.995 178.347 392.995 176.936C392.995 176.393 392.452 174.982 391.909 173.788C390.714 171.617 385.718 171.075 381.482 172.811ZM385.392 177.479C385.392 179.541 381.373 182.906 380.07 182.038C379.31 181.604 379.527 180.518 380.722 178.782C382.894 175.851 385.392 175.199 385.392 177.479ZM457.077 174.982L454.796 178.239H457.077C460.226 178.239 460.987 181.17 459.032 185.186C454.687 193.87 453.492 197.886 454.579 198.972C455.99 200.383 460.335 199.189 460.335 197.452C460.335 196.692 461.856 193.219 463.593 189.637C465.331 186.054 466.852 182.581 466.852 181.821C466.852 180.301 470.87 178.782 474.237 179.216C476.518 179.433 476.736 179.107 476.41 175.851C476.192 173.028 475.541 172.16 473.586 171.943C472.065 171.726 470.436 172.377 469.676 173.463C468.372 175.199 468.047 175.199 465.657 173.571C461.964 170.966 459.683 171.292 457.077 174.982ZM513.121 175.091C509.754 179.107 509.645 180.844 512.469 186.38C515.51 192.242 515.293 194.521 511.926 194.521C510.406 194.521 509.211 193.979 509.211 193.436C509.211 191.265 506.17 192.35 505.627 194.738C504.106 200.6 511.709 201.903 516.922 196.801C520.724 193.002 520.832 190.396 517.791 184.101C514.967 178.564 515.619 175.308 519.095 177.262C521.919 178.782 524.851 176.393 523.765 173.571C522.57 170.315 516.379 171.183 513.121 175.091ZM533.323 174.44C529.739 178.999 529.521 181.17 531.911 186.163C534.735 192.025 534.843 194.521 532.128 194.521C530.933 194.521 529.63 193.979 529.304 193.436C528.11 191.482 525.829 192.242 525.177 194.738C523.656 200.383 531.368 202.011 536.581 197.018C540.274 193.436 540.491 189.202 537.342 183.232C534.518 177.805 535.061 176.502 540.057 176.936C543.75 177.262 544.076 177.153 543.75 174.765C543.533 172.703 542.664 172.16 539.514 171.943C536.256 171.726 535.061 172.16 533.323 174.44ZM554.068 173.897C552.982 175.091 551.57 176.068 550.918 176.068C549.289 176.068 548.094 179.107 549.398 179.867C550.049 180.301 551.027 180.193 551.57 179.867C553.851 178.456 554.828 180.518 553.308 183.449C550.158 189.419 548.094 195.39 548.529 197.344C549.18 201.251 553.416 200.383 558.195 195.498C561.236 192.35 562.866 191.265 563.735 192.133C564.495 192.893 564.495 193.87 563.626 195.39C562.757 197.018 562.866 197.886 564.06 198.863C566.558 200.926 572.206 197.886 575.03 192.784C576.225 190.831 576.008 190.614 573.184 191.048C570.251 191.482 570.143 191.373 571.012 188.334C571.555 186.489 573.184 182.581 574.596 179.541C576.877 174.874 577.094 173.68 575.899 172.703C573.51 170.749 571.881 172.16 568.079 179.433C563.735 187.791 562.757 189.311 558.956 191.699C554.72 194.521 554.611 192.133 558.738 182.689C560.693 178.239 561.997 174.005 561.671 173.137C560.802 170.966 556.132 171.4 554.068 173.897ZM588.824 172.377C588.064 172.703 587.412 173.68 587.412 174.548C587.412 175.417 586.652 176.393 585.783 176.719C583.502 177.588 583.719 181.278 586.326 186.38C587.521 188.768 588.498 191.482 588.498 192.567C588.498 194.847 585.24 195.173 583.285 193.219C581.438 191.373 579.483 193.544 580.027 196.801C580.244 198.863 581.113 199.515 584.262 199.732C592.083 200.383 597.079 191.156 592.408 184.535C589.041 179.759 591.105 174.765 594.798 178.456C596.536 180.193 598.382 177.696 598.056 174.44C597.839 172.811 596.862 172.269 593.929 172.051C591.865 171.943 589.476 172.051 588.824 172.377Z" fill="#696969"/>
</svg>
