<svg width="146" height="65" viewBox="0 0 146 65" fill="none" xmlns="http://www.w3.org/2000/svg">
<path d="M64.7533 0H69.1651L69.3074 0.142316V12.8085L72.2961 11.9546L75.5693 11.1007L75.7117 0.142316L75.854 0H80.2658L80.4081 0.142316V9.39289L82.6852 8.11204L84.1083 6.97351L85.2469 5.69266L86.1008 3.98486L86.67 1.85011L86.9547 0H91.2242L91.3665 0.142316L91.2242 2.5617L90.7972 4.69644L89.801 6.97351L88.8048 8.53899L87.5239 9.96215L86.1008 11.243L83.6814 12.8085L80.6927 14.2316L80.5504 14.374L80.4081 28.6056H75.854L75.7117 28.4633V15.9394L69.5921 17.5049H69.3074V28.6056H64.7533V19.2127L62.4762 20.4936L61.0531 21.6321L60.0568 22.6283L58.9183 24.9054L58.4914 26.4709L58.2067 28.6056H53.7949V27.3248L54.0796 25.0477L54.7911 22.6283L55.645 21.0628L56.7836 19.4974L58.6337 17.6472L60.0568 16.651L62.0493 15.5125L64.4687 14.374H64.7533V0Z" fill="#757477"/>
<path d="M55.2185 41.1295H67.8847L70.304 41.4141L72.1541 42.1257L73.2927 42.9796L74.2889 44.1181L75.0005 45.6836L75.2851 46.9644V48.103L74.8582 49.8108L74.0043 51.2339L73.2927 51.9455L73.435 52.5148L74.8582 53.7956L75.4274 54.6495L75.8544 55.9304L75.9967 56.642V58.3497L75.4274 60.6268L74.4312 62.05L73.435 63.0462L71.7272 63.9001L70.0194 64.327L68.8809 64.4694H55.2185L55.0762 64.1847V41.4141L55.2185 41.1295ZM59.6303 45.3989V50.38L59.7726 50.5223H66.8884L68.4539 50.38L69.4501 49.9531L70.0194 49.0992L70.1617 48.5299V47.2491L69.7348 46.2528L69.0232 45.6836L67.8847 45.3989H59.6303ZM59.6303 54.3649V60.1999H68.7386L69.8771 59.7729L70.731 58.919L71.0156 58.0651V56.3573L70.4463 55.3611L69.5925 54.6495L68.8809 54.3649H59.6303Z" fill="#757477"/>
<path d="M111.575 40.4178L114.279 40.5602L116.414 41.1294L117.837 41.6987L119.83 42.9795L121.538 44.545L122.818 46.2528L123.815 48.2453L124.384 50.2377L124.526 51.2339V54.0802L124.099 56.3573L123.245 58.492L121.965 60.3422L120.684 61.7653L119.261 62.9038L117.126 64.0424L114.706 64.754L113.141 64.8963H110.722L108.587 64.6116L106.31 63.7577L104.46 62.6192L103.036 61.3384L101.756 59.9152L100.617 57.9228L99.7631 55.3611L99.4785 53.9379V51.5185L100.048 49.0992L100.902 46.9644L101.898 45.3989L103.179 43.9758L104.46 42.8372L106.31 41.6987L108.444 40.8448L109.868 40.5602L111.575 40.4178ZM110.864 44.972L108.871 45.5412L107.164 46.5375L106.167 47.3914L105.171 48.8145L104.602 49.953L104.175 51.9455V53.6533L104.744 55.788L105.313 56.9266L106.31 58.2074L108.018 59.4883L109.725 60.1998L111.006 60.4845H113.141L115.276 59.9152L116.983 58.919L118.549 57.3535L119.545 55.3611L119.972 53.9379V51.6608L119.403 49.6684L118.549 48.2453L117.268 46.8221L115.845 45.8259L113.852 45.1143L113.141 44.972H110.864Z" fill="#757477"/>
<path d="M0 41.1295H4.55413L4.69644 41.2718V49.8108H16.3664V41.1295H20.9205L21.0628 41.6987V64.327L20.9205 64.4694H16.3664V54.6495H4.69644V64.327L4.55413 64.4694H0.142316L0 64.327V41.1295Z" fill="#757477"/>
<path d="M27.6094 41.1295H32.1635L32.3058 55.2188L32.5905 56.9266L33.1597 58.3497L33.8713 59.2036L35.2945 60.0575L37.2869 60.4845H39.564L41.2718 60.0575L42.4103 59.4883L43.1219 58.7767L43.8335 57.6382L44.2604 56.0727L44.4027 54.5072L44.545 41.1295H48.9568L49.0992 41.4141V50.38L48.9568 56.215L48.6722 58.3497L47.8183 60.4845L46.5375 62.3346L44.972 63.6155L43.4065 64.327L41.9833 64.754L39.8486 64.8963H36.1484L33.8713 64.6117L32.1635 63.9001L30.7403 62.9039L29.7441 61.9077L28.8902 60.6268L27.894 57.9228L27.6094 56.0727V41.1295Z" fill="#757477"/>
<path d="M126.377 41.1295H145.305L145.447 41.2718V45.6836L145.305 45.8259L138.331 45.9682L138.189 64.4694H133.777L133.635 63.4731V45.9682H126.377L126.234 45.5413V42.8373L126.377 41.1295Z" fill="#757477"/>
<path d="M82.4023 41.1295H86.9565L87.0988 41.5565V59.6307H97.9148L98.1995 59.9153V64.3271L98.0572 64.4694H82.5447L82.4023 64.3271V41.1295Z" fill="#757477"/>
</svg>
