<svg width="530" height="237" viewBox="0 0 530 237" fill="none" xmlns="http://www.w3.org/2000/svg">
<path d="M235.961 0.137939H252.038L252.556 0.656539V46.8121L263.447 43.7005L275.375 40.5889L275.894 0.656539L276.412 0.137939H292.489L293.007 0.656539V34.3657L301.305 29.6982L306.491 25.5494L310.64 20.882L313.752 14.6588L315.826 6.87975L316.863 0.137939H332.421L332.94 0.656539L332.421 9.47278L330.865 17.2518L327.235 25.5494L323.605 31.254L318.937 36.44L313.752 41.1075L304.935 46.8121L294.044 51.9979L293.526 52.5168L293.007 104.377H276.412L275.894 103.858V58.2212L253.594 63.9258H252.556V104.377H235.961V70.1491L227.663 74.8167L222.478 78.9654L218.847 82.5955L214.698 90.8933L213.143 96.598L212.105 104.377H196.029V99.7096L197.066 91.4118L199.659 82.5955L202.771 76.8908L206.92 71.1865L213.661 64.4444L218.847 60.8142L226.108 56.6655L234.924 52.5168H235.961V0.137939Z" fill="#696969"/>
<path d="M201.216 150.014H247.372L256.188 151.051L262.93 153.644L267.079 156.756L270.709 160.904L273.302 166.609L274.339 171.276V175.425L272.783 181.649L269.672 186.834L267.079 189.428L267.597 191.502L272.783 196.169L274.858 199.281L276.414 203.948L276.932 206.542V212.764L274.858 221.062L271.227 226.248L267.597 229.878L261.374 232.99L255.151 234.546L251.002 235.065H201.216L200.698 234.027V151.051L201.216 150.014ZM217.293 165.572V183.723L217.811 184.241H243.741L249.446 183.723L253.076 182.167L255.151 179.056L255.669 176.981V172.314L254.114 168.683L251.521 166.609L247.372 165.572H217.293ZM217.293 198.244V219.507H250.484L254.632 217.951L257.744 214.839L258.781 211.727V205.504L256.706 201.874L253.595 199.281L251.002 198.244H217.293Z" fill="#696969"/>
<path d="M406.58 147.421L416.433 147.94L424.213 150.014L429.398 152.088L436.661 156.755L442.885 162.46L447.549 168.683L451.182 175.944L453.256 183.204L453.773 186.835V197.206L452.217 205.504L449.105 213.283L444.441 220.025L439.773 225.211L434.587 229.36L426.808 233.509L417.989 236.102L412.286 236.62H403.471L395.691 235.583L387.394 232.471L380.653 228.323L375.464 223.655L370.799 218.469L366.649 211.209L363.537 201.874L362.5 196.688V187.872L364.575 179.056L367.687 171.276L371.317 165.572L375.985 160.386L380.653 156.237L387.394 152.088L395.17 148.977L400.359 147.94L406.58 147.421ZM403.989 164.016L396.726 166.09L390.506 169.721L386.873 172.832L383.243 178.018L381.17 182.167L379.614 189.428V195.651L381.688 203.43L383.761 207.579L387.394 212.246L393.618 216.914L399.838 219.506L404.506 220.544H412.286L420.066 218.469L426.286 214.839L431.993 209.134L435.622 201.874L437.178 196.688V188.39L435.105 181.13L431.993 175.944L427.325 170.758L422.14 167.128L414.877 164.535L412.286 164.016H403.989Z" fill="#696969"/>
<path d="M0 150.014H16.5953L17.1138 150.533V181.649H59.6392V150.014H76.2344L76.7529 152.088V234.546L76.2344 235.065H59.6392V199.281H17.1138V234.546L16.5953 235.065H0.5186L0 234.546V150.014Z" fill="#696969"/>
<path d="M100.609 150.014H117.204L117.722 201.355L118.76 207.579L120.834 212.764L123.427 215.876L128.613 218.988L135.873 220.544H144.171L150.394 218.988L154.543 216.913L157.136 214.32L159.729 210.172L161.285 204.467L161.803 198.762L162.322 150.014H178.399L178.918 151.051V183.723L178.399 204.986L177.362 212.764L174.25 220.544L169.583 227.285L163.878 231.953L158.173 234.546L152.987 236.102L145.208 236.62H131.725L123.427 235.583L117.204 232.99L112.018 229.36L108.387 225.73L105.276 221.062L101.646 211.209L100.609 204.467V150.014Z" fill="#696969"/>
<path d="M460.518 150.014H529.491L530.009 150.533V166.609L529.491 167.128L504.078 167.646L503.561 235.065H487.483L486.966 231.434V167.646H460.518L459.997 166.091V156.237L460.518 150.014Z" fill="#696969"/>
<path d="M300.274 150.014H316.87L317.388 151.57V217.432H356.802L357.839 218.469V234.546L357.321 235.065H300.793L300.274 234.546V150.014Z" fill="#696969"/>
</svg>
