<svg width="130" height="64" viewBox="0 0 130 64" fill="none" xmlns="http://www.w3.org/2000/svg">
<path d="M60.8608 0H65.2802L67.4267 0.378801L69.6995 1.01014L71.7198 1.89401L73.6138 3.03041L75.2553 4.29308L76.7705 5.80829L77.9069 7.44976L78.917 9.47004L79.5484 11.364L79.9272 13.7631V15.2783L79.5484 17.9299L78.7908 20.2027L77.4018 22.8544L76.2654 24.3696L75.129 25.6322L73.6138 27.1474L72.3511 28.0313L72.2249 28.2838L78.0332 28.1576L78.5382 27.6525L79.4221 26.2636L80.4322 25.6322L81.0636 25.7585L79.9272 28.1576L78.6645 30.5567L78.412 30.8092H66.4166L66.1641 30.5567L68.3106 28.5364L70.5834 26.2636L71.8461 24.6221L72.8562 22.9806L73.6138 21.4654L74.3714 19.1926L74.8765 17.0461L75.0028 15.9097V13.3843L74.7502 11.6166L73.9926 9.09124L72.9825 7.07096L71.7198 5.30322L70.8359 4.41935L69.447 3.40921L67.4267 2.39908L65.2802 1.76774L64.2701 1.64147H61.6184L59.7244 2.02027L57.7042 2.77788L56.189 3.66175L54.9263 4.79815L54.2949 5.42949L53.5373 6.31336L52.5272 7.95483L51.7696 9.72257L51.2645 11.6166L51.012 13.2581V15.9097L51.3908 18.3087L51.8959 20.0765L52.6535 21.9705L53.9161 24.2433L55.0525 25.7585L56.189 27.0212L56.9466 27.905L57.9567 28.7889L58.8406 29.6728L59.8507 30.5567L59.4719 30.8092H47.6028L46.9714 29.7991L45.2037 26.3898L44.9512 25.7585L45.5825 25.6322L46.3401 26.011L47.224 27.1474L47.729 28.0313L47.9816 28.1576H53.6636L52.4009 27.1474L50.1281 24.8746L48.8655 23.2332L47.729 21.3392L46.9714 19.4451L46.3401 17.1723L46.2138 16.2885V13.1318L46.7189 10.6064L47.4765 8.58617L48.4867 6.81843L49.6231 5.42949L50.7595 4.29308L52.5272 2.90414L54.8 1.64147L56.694 0.88387L59.0931 0.252534L60.8608 0Z" fill="#757477"/>
<path d="M48.4874 37.6276L48.8662 37.7539L50.1289 41.6682L51.6441 46.3401L52.7805 50.0018L54.927 56.9465L56.5685 62.1235V62.6285L56.3159 62.7548H52.9067L52.4017 61.6184L51.3915 58.3354L49.6238 52.6534L48.2348 48.2341L47.9823 48.1078L47.6035 49.3705L46.2146 52.7797L43.9418 58.0829L41.7952 63.0073L41.669 63.2599H41.4164L40.7851 61.8709L39.2699 58.3354L37.5021 54.1686L35.2293 48.8654L34.9768 48.1078H34.7243L34.4717 49.3705L30.9362 60.8608L30.4312 62.376L30.0524 62.7548H28.5372L26.3906 62.6285L26.7694 61.3659L28.1584 57.0728L29.421 53.0322L30.9362 48.1078L32.704 42.4258L34.2192 38.0064L34.598 37.8802L36.2395 41.6682L37.6284 44.8249L39.5224 49.3705L41.0376 53.0322L41.4164 54.0424L41.669 53.9161L43.0579 50.6331L45.457 45.0774L47.0984 41.1631L48.4874 37.6276Z" fill="#757477"/>
<path d="M89.5229 37.6276H92.5533L94.4474 38.0064L96.2151 38.6378L98.4879 39.9004L99.8768 41.0368L101.392 42.552L101.518 43.1834L100.382 43.941L98.8667 45.0774L98.6142 45.2037L97.7303 44.1935L96.8464 43.3096L95.0787 42.1732L93.1847 41.5419L91.5432 41.2894H90.4068L88.3865 41.6682L86.8713 42.2995L85.6087 43.0571L84.0934 44.5723L83.0833 46.2138L82.3257 48.2341L82.0732 50.1281L82.1994 52.0221L82.7045 53.9161L83.5884 55.6838L85.1036 57.3253L86.24 58.2092L88.0077 59.093L89.2704 59.4718L90.1543 59.5981H92.0483L93.816 59.2193L95.8363 58.3354L96.9727 57.4516L97.604 56.8202L98.6142 55.6838L99.6243 53.9161L99.8768 53.1585L91.2907 53.0322V49.4967H103.917V51.3907L103.539 53.5373L102.781 55.6838L101.645 57.8304L100.508 59.093L99.7506 59.9769L98.1091 61.2396L96.7202 61.9972L95.205 62.6285L93.0584 63.1336L92.1745 63.2599H89.6492L87.6289 62.8811L85.6087 62.1235L84.2197 61.3659L82.452 59.9769L81.063 58.4617L79.9266 56.694L79.0428 54.8L78.5377 53.2848L78.2852 51.517V49.3705L78.664 47.2239L79.2953 45.4562L80.4317 43.3096L81.4418 42.047L82.1994 41.1631H82.452L82.5782 40.7843L84.0934 39.6479L85.8612 38.6378L88.134 37.8802L89.5229 37.6276Z" fill="#757477"/>
<path d="M11.364 37.6276H14.3945L16.6673 38.1327L18.5613 38.8903L20.2027 39.9004L21.5917 41.0368L22.8544 42.4258L23.9908 44.1935L24.8746 46.0875L25.3797 47.9815L25.6322 50.1281V51.2645L25.3797 53.0322L24.8746 54.9262L23.8645 56.9465L22.7281 58.588L21.9705 59.4718L20.9603 60.3557L19.1926 61.6184L17.2986 62.5023L15.5309 63.0073L14.1419 63.2599H11.364L8.8387 62.7548L6.56589 61.7447L4.79815 60.482L3.40921 59.2193L1.89401 57.199L0.88387 55.1788L0.252534 53.1585L0 51.6433V49.3705L0.505069 46.8451L1.26267 44.8249L2.02027 43.4359L3.28295 41.7944L4.41935 40.658L6.18709 39.3954L8.58617 38.259L10.4802 37.7539L11.364 37.6276ZM12.3742 41.1631L10.6064 41.4156L8.71243 42.047L7.44976 42.8046L5.93456 44.1935L4.92442 45.835L4.04055 47.8553L3.66175 49.8755V51.3907L4.04055 53.2848L4.67189 54.8L5.55576 56.1889L6.69216 57.4516L7.95483 58.3354L9.47004 59.093L11.1115 59.5981L12.3742 59.7244H13.7631L15.0258 59.4718L16.7935 58.8405L18.0562 58.0829L19.3189 56.9465L20.329 55.8101L21.3392 53.7898L21.8442 51.517V49.4967L21.4654 47.4765L20.5815 45.4562L19.6977 44.3198L19.1926 43.6884L17.9299 42.6783L15.9097 41.6682L14.2682 41.2894L12.3742 41.1631Z" fill="#757477"/>
<path d="M116.545 36.87H116.798L117.808 38.8903L120.081 43.3096L121.47 46.0875L122.606 48.234L127.531 58.0829L128.793 60.482L129.803 62.5022V62.7548H125.889L125.258 62.1234L123.237 57.8303L122.859 57.7041L110.232 57.8303L108.969 60.2294L107.959 62.376L107.454 62.7548H103.666V62.2497L105.307 58.9667L106.57 56.5677L107.833 54.0423L108.969 51.8958L116.166 37.5013L116.545 36.87ZM116.545 45.0774L116.166 45.7087L115.156 47.8552L113.894 50.2543L112 54.0423L121.217 54.1686L121.343 53.9161L119.828 51.0119L117.05 45.4562L116.798 45.0774H116.545Z" fill="#757477"/>
<path d="M59.7246 38.1327H74.6241L74.7504 38.5115L74.6241 41.6682L63.5126 41.7944V48.6129H74.2453L74.3716 48.7391V52.1483L74.2453 52.2746H63.3864L63.5126 52.5271V58.9668L74.4979 59.093L74.6241 59.2193L74.7504 62.5023L74.6241 62.6285L70.3311 62.7548H59.9771L59.7246 62.6285V38.1327Z" fill="#757477"/>
</svg>
