<svg width="474" height="231" viewBox="0 0 474 231" fill="none" xmlns="http://www.w3.org/2000/svg">
<path d="M222.339 0.425903H238.443L246.265 1.80626L254.547 4.10686L261.909 7.32768L268.811 11.4687L274.792 16.0699L280.314 21.5913L284.455 27.5728L288.136 34.9348L290.436 41.8364L291.817 50.5787V56.1001L290.436 65.7625L287.676 74.0446L282.614 83.7074L278.473 89.2288L274.332 93.8297L268.811 99.3511L264.209 102.572L263.75 103.492L284.915 103.032L286.755 101.192L289.976 96.1305L293.657 93.8297L295.958 94.2899L291.817 103.032L287.215 111.775L286.295 112.695H242.584L241.664 111.775L249.486 104.413L257.768 96.1305L262.369 90.1489L266.05 84.1673L268.811 78.6459L271.571 70.3638L273.412 62.5419L273.872 58.4009V49.1983L272.952 42.7568L270.191 33.5544L266.51 26.1925L261.909 19.7509L258.688 16.53L253.627 12.8491L246.265 9.16816L238.443 6.86755L234.762 6.40742H225.099L218.198 7.78777L210.836 10.5485L205.315 13.7693L200.713 17.9104L198.413 20.211L195.652 23.4318L191.971 29.4133L189.21 35.855L187.37 42.7568L186.45 48.7385V58.4009L187.83 67.1429L189.671 73.5847L192.431 80.4865L197.032 88.7686L201.173 94.2899L205.315 98.8912L208.075 102.112L211.756 105.333L214.977 108.554L218.658 111.775L217.278 112.695H174.027L171.726 109.014L165.284 96.5904L164.364 94.2899L166.665 93.8297L169.425 95.2101L172.646 99.3511L174.486 102.572L175.407 103.032H196.112L191.511 99.3511L183.229 91.069L178.628 85.0877L174.486 78.186L171.726 71.2839L169.425 63.0018L168.965 59.7812V48.2782L170.806 39.0757L173.566 31.7139L177.248 25.2723L181.389 20.211L185.53 16.0699L191.971 11.0086L200.253 6.40742L207.155 3.64673L215.897 1.34614L222.339 0.425903Z" fill="#696969"/>
<path d="M177.25 137.541L178.631 138.001L183.232 152.265L188.753 169.289L192.894 182.632L200.716 207.939L206.698 226.804V228.644L205.777 229.104H193.354L191.514 224.963L187.833 213L181.391 192.295L176.33 176.191L175.41 175.731L174.029 180.332L168.968 192.755L160.686 212.08L152.864 230.025L152.404 230.945H151.484L149.183 225.883L143.662 213L137.22 197.816L128.938 178.491L128.018 175.731H127.098L126.177 180.332L113.294 222.203L111.453 227.724L110.073 229.104H104.552L96.7295 228.644L98.1098 224.043L103.171 208.399L107.772 193.675L113.294 175.731L119.736 155.025L125.257 138.921L126.637 138.461L132.619 152.265L137.68 163.768L144.582 180.332L150.103 193.675L151.484 197.356L152.404 196.896L157.465 184.933L166.208 164.688L172.189 150.424L177.25 137.541Z" fill="#696969"/>
<path d="M326.783 137.541H337.826L344.728 138.921L351.17 141.222L359.452 145.823L364.513 149.964L370.034 155.485L370.494 157.786L366.354 160.547L360.832 164.688L359.912 165.148L356.691 161.467L353.47 158.246L347.029 154.105L340.127 151.805L334.145 150.884H330.004L322.642 152.265L317.121 154.565L312.52 157.326L306.998 162.847L303.318 168.829L300.557 176.191L299.637 183.093L300.097 189.994L301.937 196.896L305.158 203.338L310.68 209.319L314.821 212.54L321.262 215.761L325.863 217.141L329.084 217.601H335.986L342.428 216.221L349.79 213L353.931 209.78L356.231 207.479L359.912 203.338L363.593 196.896L364.513 194.135L333.225 193.675V180.792H379.236V187.694L377.858 195.516L375.096 203.338L370.956 211.16L366.813 215.761L364.053 218.982L358.072 223.583L353.01 226.344L347.489 228.644L339.667 230.485L336.446 230.945H327.244L319.882 229.565L312.52 226.804L307.459 224.043L301.017 218.982L295.956 213.46L291.815 207.019L288.594 200.117L286.753 194.596L285.833 188.154V180.332L287.214 172.51L289.514 166.068L293.655 158.246L297.336 153.645L300.097 150.424H301.017L301.477 149.044L306.998 144.903L313.44 141.222L321.722 138.461L326.783 137.541Z" fill="#696969"/>
<path d="M41.9723 137.541H53.0155L61.2976 139.381L68.1993 142.142L74.1806 145.823L79.2421 149.964L83.8434 155.025L87.9844 161.467L91.205 168.369L93.0456 175.27L93.9657 183.093V187.234L93.0456 193.675L91.205 200.577L87.5242 207.939L83.3831 213.921L80.6224 217.141L76.9413 220.362L70.4998 224.963L63.598 228.184L57.1565 230.025L52.095 230.945H41.9723L32.7701 229.104L24.488 225.424L18.0464 220.822L12.9851 216.221L7.46367 208.859L3.78271 201.497L1.48212 194.135L0.56189 188.614V180.332L2.40236 171.129L5.16306 163.768L7.92376 158.706L12.525 152.725L16.666 148.584L23.1077 143.983L31.8499 139.842L38.7518 138.001L41.9723 137.541ZM45.6535 150.424L39.2116 151.344L32.31 153.645L27.7088 156.406L22.1874 161.467L18.5065 167.449L15.2857 174.811L13.9053 182.172V187.694L15.2857 194.596L17.5863 200.117L20.8071 205.178L24.9481 209.78L29.5493 213L35.0707 215.761L41.0522 217.601L45.6535 218.062H50.7147L55.3159 217.141L61.7574 214.841L66.3587 212.08L70.96 207.939L74.6408 203.798L78.322 196.436L80.1622 188.154V180.792L78.7819 173.43L75.5609 166.068L72.3404 161.927L70.4998 159.626L65.8985 155.946L58.5369 152.265L52.5552 150.884L45.6535 150.424Z" fill="#696969"/>
<path d="M425.252 134.78H426.174L429.855 142.142L438.137 158.246L443.199 168.369L447.339 176.191L465.285 212.08L469.884 220.822L473.564 228.184V229.105H459.302L457.002 226.804L449.638 211.16L448.261 210.7L402.248 211.16L397.645 219.902L393.965 227.724L392.125 229.105H378.321V227.264L384.301 215.301L388.903 206.559L393.506 197.356L397.645 189.534L423.871 137.081L425.252 134.78ZM425.252 164.688L423.871 166.989L420.191 174.81L415.592 183.553L408.69 197.356L442.277 197.816L442.736 196.896L437.216 186.313L427.093 166.068L426.174 164.688H425.252Z" fill="#696969"/>
<path d="M218.198 139.382H272.492L272.953 140.762L272.492 152.265L232.002 152.725V177.571H271.112L271.572 178.031V190.454L271.112 190.915H231.542L232.002 191.835V215.301L272.032 215.761L272.492 216.221L272.953 228.184L272.492 228.644L256.849 229.105H219.119L218.198 228.644V139.382Z" fill="#696969"/>
</svg>
