<svg width="215" height="117" viewBox="0 0 215 117" fill="none" xmlns="http://www.w3.org/2000/svg">
<path d="M28.3504 81.3658H17.8529L15.7258 86.9273H12.6862L21.8869 63.6308H24.706L33.753 86.9273H30.4725L28.3504 81.3658ZM18.8166 78.8388H27.3919L23.1222 67.6391L18.8166 78.8388ZM2.95755 66.1117V74.5384H7.05814C7.05814 74.5384 7.80137 74.5127 8.17555 74.5127C9.4211 74.5127 10.2463 74.2411 11.0306 73.5183C11.8251 72.7802 12.1736 71.5757 12.1736 70.3148C12.2197 69.1284 11.8066 67.97 11.0203 67.0804C10.2105 66.1937 8.69837 66.1117 8.43696 66.1117H8.0269H2.95755ZM0 63.6359H8.0269C9.23657 63.6359 11.3894 63.9178 12.8451 65.1019C14.8441 66.7319 15.2029 68.8437 15.2029 70.2686C15.2029 71.6936 14.8544 73.6003 13.4602 74.9638C11.6405 76.7475 9.73377 77.0192 7.05814 77.0192H2.95755V86.9273H0V63.6359ZM111.608 63.6308H114.56V73.626H125.027V63.6308H127.979V86.9273H125.027V76.1991H114.56V86.9273H111.608V63.6308ZM133.197 63.6308H136.15V86.917H133.197V63.6308ZM141.229 63.6308H144.182V84.349H154.274V86.9273H141.229V63.6308ZM47.454 63.6308V66.209H40.3652V86.9273H37.4076V66.209H30.2931V63.6308H47.454ZM63.1644 63.6308L61.6933 66.209H52.8873V73.4978H61.1192V76.0812H52.8873V84.349H61.4986L62.9748 86.9273H49.9349V63.6308H63.1644ZM69.2897 74.5537L79.3105 63.6205L83.001 63.6257L75.3227 71.9294L83.165 86.9221H79.7974L73.2877 74.0924L69.2897 78.398V86.9221H66.3372V63.6257H69.2897V74.5537ZM95.9794 66.1117V74.5384H100.08C100.08 74.5384 100.823 74.5127 101.197 74.5127C102.453 74.5127 103.278 74.2411 104.052 73.5183C104.847 72.7802 105.195 71.5757 105.195 70.3148C105.243 69.1273 104.828 67.9678 104.037 67.0804C103.237 66.1937 101.72 66.1117 101.449 66.1117H101.049H95.9794ZM93.0218 63.6359H101.049C102.258 63.6359 104.421 63.9178 105.877 65.1019C107.871 66.7319 108.23 68.8437 108.23 70.2686C108.23 71.6936 107.881 73.6003 106.487 74.9638C104.662 76.7475 102.756 77.0192 100.08 77.0192H95.9794V86.9273H93.0218V63.6359ZM156.765 63.6308H159.708V86.917H156.765V63.6308ZM167.673 66.1117V74.5384H171.774C171.774 74.5384 172.507 74.5127 172.891 74.5127C174.137 74.5127 174.967 74.2411 175.741 73.5183C176.541 72.7802 176.884 71.5757 176.884 70.3148C176.933 69.1279 176.52 67.9683 175.731 67.0804C174.921 66.1937 173.404 66.1117 173.142 66.1117H172.742H167.673ZM164.721 63.6359H172.742C173.962 63.6359 176.105 63.9178 177.561 65.1019C179.565 66.7319 179.918 68.8437 179.918 70.2686C179.918 71.6936 179.575 73.6003 178.176 74.9638C176.361 76.7475 174.444 77.0192 171.774 77.0192H167.673V86.9273H164.721V63.6359ZM186.126 66.1117V74.5384H190.226C190.226 74.5384 190.959 74.5127 191.344 74.5127C192.589 74.5127 193.42 74.2411 194.194 73.5183C194.993 72.7802 195.342 71.5757 195.342 70.3148C195.389 69.1273 194.974 67.9678 194.183 67.0804C193.373 66.1937 191.866 66.1117 191.595 66.1117H191.195H186.126ZM183.173 63.6359H191.195C192.405 63.6359 194.557 63.9178 196.013 65.1019C198.017 66.7319 198.371 68.8437 198.371 70.2686C198.371 71.6936 198.028 73.6003 196.628 74.9638C194.814 76.7475 192.902 77.0192 190.231 77.0192H186.126V86.9273H183.173V63.6359ZM214.963 63.6308L213.492 66.209H204.681V73.4978H212.918V76.0812H204.681V84.349H213.307L214.773 86.9273H201.728V63.6308H214.963ZM113.909 114.822H120.173L121.244 116.698H111.756V99.7672H123.315L128.236 113.776L133.356 99.7672H135.56L129.138 116.703H127.082L121.618 101.633H113.909V106.943H119.896V108.824H113.909V114.822ZM94.047 99.7672L92.9808 101.633H86.5685V106.948H92.5554V108.814H86.5634V114.822H92.8373L93.8983 116.698H84.4157V99.7672H94.047ZM106.19 99.8544H108.24V116.785H106.051L98.3731 102.945V116.785H96.3228V99.8544H99.1163L106.19 112.628V99.8544ZM147.057 99.7672L145.986 101.633H139.579V106.948H145.571V108.814H139.574V114.822H145.848L146.909 116.698H137.431V99.7672H147.057ZM81.2634 108.04V114.181C79.8692 115.503 78.1008 117 74.5999 117C70.6685 117 67.1164 113.673 67.1164 108.404C67.1164 103.401 70.4583 99.4648 75.051 99.4648C78.7774 99.4648 80.6175 101.761 81.3146 102.791L79.7769 104.237C79.7769 104.237 78.2136 101.274 75.051 101.274C71.9397 101.274 69.4742 104.063 69.4742 108.507C69.4742 112.715 72.1242 115.191 74.9485 115.191C77.4037 115.191 79.0491 113.535 79.1618 113.412V109.885H74.0156V108.04H81.2634Z" fill="#757477"/>
<path d="M106.404 26.3873H95.9992C94.3231 26.3873 92.6214 27.4124 92.6214 28.7861C92.6214 29.2833 93.0263 30.2213 94.4154 30.2213C96.2094 30.2213 97.7522 28.3709 99.3566 28.3709C100.771 28.3709 100.971 29.6677 100.971 29.6677C100.125 29.6472 99.8179 29.6883 98.7723 30.206C97.783 30.6878 96.4657 31.8821 95.5943 32.8201C94.7229 33.7632 93.3133 34.9729 91.6219 34.9729C89.9201 34.9729 88.2594 33.8862 88.2594 31.9179C88.2594 29.3089 90.3404 28.4735 90.3404 27.5252C90.3404 27.2433 90.2072 26.8793 89.6587 26.8793C88.8181 26.8793 87.1676 28.1095 85.5735 28.1095C83.3899 28.1095 81.4883 25.6492 81.4883 25.6492C81.4883 25.6492 83.3848 23.1939 85.5735 23.1939C87.1676 23.1939 88.8181 24.4241 89.6587 24.4241C90.2072 24.4241 90.3404 24.0551 90.3404 23.768C90.3404 22.8351 88.2594 21.9945 88.2594 19.3855C88.2594 17.4172 89.9201 16.3306 91.6219 16.3306C93.3133 16.3306 94.7229 17.5403 95.5943 18.4834C96.4657 19.4214 97.783 20.6157 98.7723 21.0975C99.8179 21.6152 100.125 21.6511 100.971 21.6357C100.971 21.6357 100.766 22.9325 99.3566 22.9325C97.7522 22.9325 96.2145 21.077 94.4154 21.077C93.0212 21.077 92.6214 22.0202 92.6214 22.5122C92.6214 23.8962 94.3231 24.9213 96.0044 24.9213H106.41V14.5161C106.41 12.8348 105.379 11.1433 104.001 11.1433C103.503 11.1433 102.565 11.538 102.565 12.9374C102.565 14.7262 104.421 16.2742 104.421 17.8786C104.421 19.283 103.119 19.4829 103.119 19.4829C103.139 18.6372 103.104 18.3399 102.581 17.2891C102.104 16.305 100.91 14.9825 99.9666 14.1111C99.0285 13.2398 97.8137 11.8251 97.8137 10.1336C97.8137 8.43696 98.9055 6.77109 100.874 6.77109C103.478 6.77109 104.323 8.86239 105.267 8.86239C105.543 8.86239 105.907 8.724 105.907 8.17555C105.907 7.3298 104.677 5.68444 104.677 4.08521C104.677 1.90165 107.137 0 107.137 0C107.137 0 109.598 1.89652 109.598 4.08521C109.598 5.68444 108.368 7.3298 108.368 8.17555C108.368 8.724 108.732 8.86239 109.013 8.86239C109.951 8.86239 110.797 6.77109 113.401 6.77109C115.369 6.77109 116.461 8.43696 116.461 10.1336C116.461 11.8251 115.251 13.2346 114.308 14.106C113.365 14.9876 112.176 16.305 111.684 17.284C111.171 18.3399 111.136 18.6372 111.156 19.4829C111.156 19.4829 109.854 19.2779 109.854 17.8786C109.854 16.2742 111.71 14.7262 111.71 12.9374C111.71 11.538 110.772 11.1433 110.274 11.1433C108.896 11.1433 107.865 12.8348 107.865 14.5161V24.9213H118.271C119.947 24.9213 121.643 23.8962 121.643 22.5122C121.643 22.015 121.254 21.077 119.849 21.077C118.066 21.077 116.512 22.9325 114.908 22.9325C113.498 22.9325 113.304 21.6357 113.304 21.6357C114.149 21.6511 114.457 21.6152 115.503 21.0924C116.487 20.6157 117.804 19.4214 118.675 18.4783C119.552 17.5403 120.967 16.3255 122.653 16.3255C124.355 16.3255 126.016 17.4172 126.016 19.3855C126.016 21.9945 123.924 22.8351 123.924 23.768C123.924 24.0551 124.058 24.4241 124.616 24.4241C125.462 24.4241 127.107 23.1939 128.701 23.1939C130.89 23.1939 132.787 25.6543 132.787 25.6543C132.787 25.6543 130.89 28.1095 128.701 28.1095C127.107 28.1095 125.462 26.8793 124.616 26.8793C124.058 26.8793 123.924 27.2433 123.924 27.5252C123.924 28.4735 126.016 29.3089 126.016 31.9179C126.016 33.8862 124.355 34.9729 122.653 34.9729C120.962 34.9729 119.552 33.7632 118.675 32.8201C117.804 31.8821 116.487 30.6878 115.498 30.206C114.457 29.6831 114.149 29.6524 113.304 29.6677C113.304 29.6677 113.498 28.3709 114.908 28.3709C116.512 28.3709 118.066 30.2265 119.849 30.2265C121.254 30.2265 121.643 29.2833 121.643 28.7912C121.643 27.4073 119.947 26.3822 118.271 26.3822H107.865V36.7874C107.865 38.4686 108.896 40.1601 110.274 40.1601C110.772 40.1601 111.71 39.7654 111.71 38.3712C111.71 36.5772 109.854 35.0241 109.854 33.4249C109.854 32.0205 111.156 31.8206 111.156 31.8206C111.136 32.6663 111.171 32.9687 111.684 34.0144C112.176 34.9985 113.365 36.321 114.308 37.1923C115.251 38.0637 116.461 39.4784 116.461 41.175C116.461 42.8665 115.369 44.5324 113.401 44.5324C110.797 44.5324 109.951 42.4513 109.013 42.4513C108.732 42.4513 108.368 42.5795 108.368 43.1279C108.368 43.9737 109.598 45.619 109.598 47.2131C109.598 49.4018 107.137 51.2983 107.137 51.2983C107.137 51.2983 104.677 49.4018 104.677 47.2131C104.677 45.6242 105.907 43.9737 105.907 43.1279C105.907 42.5795 105.543 42.4513 105.267 42.4513C104.323 42.4513 103.478 44.5324 100.874 44.5324C98.9055 44.5324 97.8137 42.8665 97.8137 41.175C97.8137 39.4784 99.0285 38.0688 99.9666 37.1975C100.91 36.3261 102.104 34.9985 102.581 34.0195C103.104 32.9687 103.139 32.6663 103.119 31.8154C103.119 31.8154 104.421 32.0205 104.421 33.4249C104.421 35.0241 102.565 36.5772 102.565 38.3712C102.565 39.7654 103.503 40.1601 104.001 40.1601C105.379 40.1601 106.41 38.4686 106.41 36.7874L106.404 26.3873Z" fill="#757477"/>
</svg>
