<svg width="784" height="427" viewBox="0 0 784 427" fill="none" xmlns="http://www.w3.org/2000/svg">
<path d="M103.566 296.823H65.3126L57.5614 317.089H46.4851L80.0125 232.197H90.2853L123.253 317.089H111.298L103.566 296.823ZM68.8243 287.615H100.073L84.5139 246.803L68.8243 287.615ZM11.0339 241.237V271.944H25.9765C25.9765 271.944 28.6848 271.85 30.0483 271.85C34.5871 271.85 37.5941 270.861 40.4521 268.227C43.3473 265.537 44.6172 261.148 44.6172 256.553C44.7852 252.23 43.2799 248.009 40.4146 244.767C37.4637 241.536 31.9535 241.237 31.0009 241.237H29.5066H11.0339ZM0.256577 232.215H29.5066C33.9147 232.215 41.7596 233.242 47.0642 237.557C54.3485 243.497 55.656 251.192 55.656 256.385C55.656 261.577 54.3861 268.525 49.3056 273.494C42.6746 279.994 35.7265 280.984 25.9765 280.984H11.0339V317.089H0.256577V232.215ZM406.956 232.197H417.714V268.619H455.855V232.197H466.612V317.089H455.855V277.996H417.714V317.089H406.956V232.197ZM485.627 232.197H496.388V317.052H485.627V232.197ZM514.895 232.197H525.656V307.694H562.431V317.089H514.895V232.197ZM173.179 232.197V241.592H147.347V317.089H136.57V241.592H110.645V232.197H173.179ZM230.428 232.197L225.067 241.592H192.978V268.152H222.975V277.566H192.978V307.694H224.358L229.737 317.089H182.219V232.197H230.428ZM252.748 272L289.264 232.159L302.712 232.178L274.733 262.437L303.31 317.07H291.039L267.317 270.319L252.748 286.008V317.07H241.989V232.178H252.748V272ZM350.006 241.237V271.944H364.948C364.948 271.944 367.656 271.85 369.019 271.85C373.596 271.85 376.602 270.861 379.422 268.227C382.319 265.537 383.587 261.148 383.587 256.553C383.762 252.226 382.25 248.001 379.368 244.767C376.452 241.536 370.925 241.237 369.937 241.237H368.479H350.006ZM339.228 232.215H368.479C372.885 232.215 380.767 233.242 386.073 237.557C393.339 243.497 394.647 251.192 394.647 256.385C394.647 261.577 393.375 268.525 388.295 273.494C381.645 279.994 374.7 280.984 364.948 280.984H350.006V317.089H339.228V232.215ZM571.509 232.197H582.233V317.052H571.509V232.197ZM611.257 241.237V271.944H626.201C626.201 271.944 628.873 271.85 630.272 271.85C634.812 271.85 637.837 270.861 640.657 268.227C643.572 265.537 644.822 261.148 644.822 256.553C645.001 252.228 643.496 248.002 640.621 244.767C637.669 241.536 632.141 241.237 631.186 241.237H629.729H611.257ZM600.5 232.215H629.729C634.175 232.215 641.984 233.242 647.289 237.557C654.592 243.497 655.878 251.192 655.878 256.385C655.878 261.577 654.628 268.525 649.53 273.494C642.917 279.994 635.931 280.984 626.201 280.984H611.257V317.089H600.5V232.215ZM678.5 241.237V271.944H693.441C693.441 271.944 696.112 271.85 697.515 271.85C702.051 271.85 705.08 270.861 707.9 268.227C710.812 265.537 712.083 261.148 712.083 256.553C712.255 252.226 710.742 248.001 707.86 244.767C704.908 241.536 699.417 241.237 698.429 241.237H696.972H678.5ZM667.739 232.215H696.972C701.381 232.215 709.223 233.242 714.528 237.557C721.831 243.497 723.121 251.192 723.121 256.385C723.121 261.577 721.871 268.525 716.77 273.494C710.159 279.994 703.192 280.984 693.459 280.984H678.5V317.089H667.739V232.215ZM783.582 232.197L778.222 241.592H746.115V268.152H776.13V277.566H746.115V307.694H777.548L782.89 317.089H735.354V232.197H783.582ZM415.341 418.737H438.167L442.07 425.574H407.496V363.878H449.617L467.549 414.926L486.206 363.878H494.238L470.836 425.592H463.344L443.433 370.677H415.341V390.026H437.158V396.881H415.341V418.737ZM342.964 363.878L339.079 370.677H315.712V390.045H337.529V396.844H315.694V418.737H338.556L342.422 425.574H307.868V363.878H342.964ZM387.213 364.195H394.683V425.891H386.707L358.728 375.458V425.891H351.257V364.195H361.437L387.213 410.743V364.195ZM536.133 363.878L532.23 370.677H508.883V390.045H530.718V396.844H508.865V418.737H531.727L535.593 425.574H501.056V363.878H536.133ZM296.381 394.024V416.402C291.3 421.219 284.856 426.674 272.099 426.674C257.773 426.674 244.829 414.551 244.829 395.35C244.829 377.119 257.007 362.776 273.743 362.776C287.322 362.776 294.027 371.143 296.567 374.896L290.964 380.166C290.964 380.166 285.267 369.369 273.743 369.369C262.405 369.369 253.421 379.532 253.421 395.726C253.421 411.06 263.077 420.082 273.369 420.082C282.316 420.082 288.312 414.048 288.722 413.599V400.747H269.97V394.024H296.381Z" fill="#696969"/>
<path d="M387.993 96.4812H350.078C343.97 96.4812 337.769 100.217 337.769 105.222C337.769 107.034 339.245 110.452 344.307 110.452C350.844 110.452 356.466 103.709 362.312 103.709C367.466 103.709 368.195 108.435 368.195 108.435C365.112 108.36 363.993 108.51 360.183 110.397C356.578 112.152 351.778 116.504 348.602 119.922C345.427 123.359 340.29 127.767 334.127 127.767C327.926 127.767 321.874 123.807 321.874 116.635C321.874 107.128 329.457 104.083 329.457 100.628C329.457 99.6005 328.972 98.274 326.973 98.274C323.91 98.274 317.896 102.757 312.087 102.757C304.13 102.757 297.2 93.7916 297.2 93.7916C297.2 93.7916 304.111 84.8444 312.087 84.8444C317.896 84.8444 323.91 89.3273 326.973 89.3273C328.972 89.3273 329.457 87.9826 329.457 86.9365C329.457 83.537 321.874 80.4738 321.874 70.9666C321.874 63.7941 327.926 59.8346 334.127 59.8346C340.29 59.8346 345.427 64.2427 348.602 67.6794C351.778 71.0974 356.578 75.4495 360.183 77.2051C363.993 79.0916 365.112 79.2225 368.195 79.1664C368.195 79.1664 367.448 83.8919 362.312 83.8919C356.466 83.8919 350.862 77.1304 344.307 77.1304C339.226 77.1304 337.769 80.5675 337.769 82.3603C337.769 87.4036 343.97 91.1391 350.097 91.1391H388.015V53.2225C388.015 47.0958 384.258 40.932 379.236 40.932C377.422 40.932 374.004 42.3703 374.004 47.4697C374.004 53.9881 380.767 59.629 380.767 65.4755C380.767 70.5931 376.022 71.3215 376.022 71.3215C376.095 68.2398 375.968 67.1564 374.062 63.3273C372.324 59.7413 367.973 54.9221 364.535 51.7467C361.117 48.5717 356.69 43.4165 356.69 37.2527C356.69 31.0701 360.668 24.9997 367.842 24.9997C377.331 24.9997 380.41 32.6204 383.85 32.6204C384.856 32.6204 386.182 32.1161 386.182 30.1175C386.182 27.0356 381.7 21.0399 381.7 15.2123C381.7 7.25542 390.664 0.325806 390.664 0.325806C390.664 0.325806 399.632 7.23673 399.632 15.2123C399.632 21.0399 395.15 27.0356 395.15 30.1175C395.15 32.1161 396.476 32.6204 397.5 32.6204C400.918 32.6204 404.001 24.9997 413.49 24.9997C420.661 24.9997 424.641 31.0701 424.641 37.2527C424.641 43.4165 420.231 48.5527 416.795 51.7281C413.359 54.9407 409.026 59.7413 407.233 63.3087C405.364 67.1564 405.236 68.2398 405.309 71.3215C405.309 71.3215 400.565 70.5745 400.565 65.4755C400.565 59.629 407.328 53.9881 407.328 47.4697C407.328 42.3703 403.91 40.932 402.095 40.932C397.074 40.932 393.317 47.0958 393.317 53.2225V91.1391H431.236C437.344 91.1391 443.524 87.4036 443.524 82.3603C443.524 80.5485 442.106 77.1304 436.987 77.1304C430.489 77.1304 424.827 83.8919 418.982 83.8919C413.844 83.8919 413.137 79.1664 413.137 79.1664C416.216 79.2225 417.338 79.0916 421.15 77.1866C424.735 75.4495 429.535 71.0974 432.709 67.6608C435.904 64.2427 441.061 59.816 447.204 59.816C453.407 59.816 459.459 63.7941 459.459 70.9666C459.459 80.4738 451.836 83.537 451.836 86.9365C451.836 87.9826 452.324 89.3273 454.358 89.3273C457.44 89.3273 463.435 84.8444 469.243 84.8444C477.22 84.8444 484.133 93.8101 484.133 93.8101C484.133 93.8101 477.22 102.757 469.243 102.757C463.435 102.757 457.44 98.274 454.358 98.274C452.324 98.274 451.836 99.6005 451.836 100.628C451.836 104.083 459.459 107.128 459.459 116.635C459.459 123.807 453.407 127.767 447.204 127.767C441.042 127.767 435.904 123.359 432.709 119.922C429.535 116.504 424.735 112.152 421.132 110.397C417.338 108.491 416.216 108.379 413.137 108.435C413.137 108.435 413.844 103.709 418.982 103.709C424.827 103.709 430.489 110.471 436.987 110.471C442.106 110.471 443.524 107.034 443.524 105.241C443.524 100.198 437.344 96.4626 431.236 96.4626H393.317V134.379C393.317 140.505 397.074 146.669 402.095 146.669C403.91 146.669 407.328 145.231 407.328 140.151C407.328 133.613 400.565 127.954 400.565 122.126C400.565 117.009 405.309 116.28 405.309 116.28C405.236 119.362 405.364 120.464 407.233 124.274C409.026 127.86 413.359 132.68 416.795 135.855C420.231 139.03 424.641 144.185 424.641 150.368C424.641 156.531 420.661 162.602 413.49 162.602C404.001 162.602 400.918 155.018 397.5 155.018C396.476 155.018 395.15 155.486 395.15 157.484C395.15 160.566 399.632 166.562 399.632 172.37C399.632 180.346 390.664 187.257 390.664 187.257C390.664 187.257 381.7 180.346 381.7 172.37C381.7 166.581 386.182 160.566 386.182 157.484C386.182 155.486 384.856 155.018 383.85 155.018C380.41 155.018 377.331 162.602 367.842 162.602C360.668 162.602 356.69 156.531 356.69 150.368C356.69 144.185 361.117 139.049 364.535 135.874C367.973 132.698 372.324 127.86 374.062 124.293C375.968 120.464 376.095 119.362 376.022 116.261C376.022 116.261 380.767 117.009 380.767 122.126C380.767 127.954 374.004 133.613 374.004 140.151C374.004 145.231 377.422 146.669 379.236 146.669C384.258 146.669 388.015 140.505 388.015 134.379L387.993 96.4812Z" fill="#696969"/>
</svg>
