<svg width="863" height="176" viewBox="0 0 863 176" fill="none" xmlns="http://www.w3.org/2000/svg">
<path fill-rule="evenodd" clip-rule="evenodd" d="M754.09 2.54237e-07C740.886 0.338932 727.702 0.338932 716.526 5.77166C698.584 14.2597 685.749 32.282 684.733 52.3133L684.364 117.521C684.021 124.992 685.425 132.1 687.802 138.888C694.234 157.569 712.48 172.86 732.116 175.237C756.496 176.254 782.26 176.254 806.629 175.237C815.438 175.576 823.246 173.135 830.689 170.08C848.293 161.936 861.84 144.341 862.852 124.643L862.974 71.3475C862.974 60.1382 863.441 49.877 860.396 40.0332C854.985 20.6797 835.349 3.72825 815.713 1.35081C795.4 -0.00491181 774.742 2.54237e-07 754.09 2.54237e-07ZM460.458 4.54365V17.1922C465.024 17.1922 462.893 16.308 469.296 17.8062C475.306 20.6994 477.393 23.8333 478.748 31.6827V151.66L476.661 156.326C473.273 161.081 467.936 163.817 462.176 163.817C462.176 167.889 461.886 168.189 461.808 175.36H557.312C578.303 174.343 601.327 177.743 618.935 168.238C637.221 158.728 649.345 140.352 650.361 119.977V58.5762C650.027 52.8045 648.741 47.6715 647.047 42.2436C639.264 20.8566 617.899 5.58991 594.875 4.91205L460.458 4.54365ZM0 5.03485V15.8414C3.38315 15.8414 6.74667 15.8414 9.45221 17.1922C14.5343 19.9085 18.2268 25.0465 18.9044 30.8231V149.326L17.3086 155.466C13.9254 161.587 7.84656 164.622 0.736536 163.94C0.736536 168.017 0.304435 172.084 0.982048 175.483H92.8035V164.554C89.7591 164.554 86.2729 164.288 83.2285 162.589C78.829 159.873 75.1905 155.034 74.5129 149.94V110.644L75.1266 110.276H103.238C120.841 114.348 124.892 133.343 129.63 147.607C133.696 158.473 138.832 171.745 151.358 175.483L206.844 175.115V163.571C201.089 164.249 195.653 161.484 192.604 157.063C185.833 146.197 183.505 133.637 177.751 122.433C173.007 111.901 161.149 104.17 149.64 103.153C161.488 102.136 172.693 97.0081 179.469 86.8205C191.651 70.8612 189.255 45.127 180.451 28.4899C170.292 11.8479 152.733 5.71272 134.786 5.03485H0ZM274.605 5.28045L240.724 127.836C237.331 137.685 236.963 148.481 231.886 157.308C228.503 162.063 223.435 164.524 218.015 164.185V175.36C218.098 175.277 304.312 175.444 304.312 175.483V164.676C300.256 165.438 295.847 164.765 293.141 161.361C290.77 159.327 290.195 156.311 290.195 153.256L296.947 125.748L297.929 123.661H369.25C371.113 129.661 372.242 135.921 373.424 142.081C374.096 148.192 378.142 156.606 371.705 161.361C368.995 164.421 365.366 164.185 361.639 164.185C360.627 167.241 361.241 171.627 360.902 175.36C360.819 175.277 448.55 175.404 448.55 175.36V164.185C441.774 165.541 436.103 161.115 432.715 155.344L394.292 5.28045H274.605ZM771.153 16.8238C781.013 16.3708 791.171 18.3373 798.159 24.069L804.542 31.1915C806.57 35.6025 809.021 40.3967 808.348 46.1733L807.98 134.836C806.286 144.341 799.166 153.172 789.689 156.572C777.836 159.627 762.221 159.887 751.389 154.116C744.279 149.022 738.564 141.644 737.886 132.134V42.4892C739.231 33.3135 745.315 24.0985 754.458 20.0166C759.409 18.2354 765.237 17.0955 771.153 16.8238ZM103.729 21.7358C116.548 21.6984 124.711 23.9432 132.331 35.6124C137.069 46.8217 136.48 61.0813 134.786 73.3124C132.419 82.4782 123.615 90.6175 113.795 91.9781C101.269 92.9949 87.746 92.2238 74.8811 92.2238V22.7182C86.7357 22.6224 96.0375 21.7583 103.729 21.7358ZM575.48 22.5954C582.035 23.2782 588.477 27.0457 592.543 33.1563C594.91 36.5555 595.553 40.6227 596.226 44.6997V136.678C595.553 143.466 591.797 149.886 586.037 153.624C581.637 156.341 576.604 157.657 571.183 157.677C554.847 157.765 546.362 158.168 533.497 158.168L533.62 154.361V22.9638L575.48 22.5954ZM333.037 23.455C336.634 23.4286 340.54 23.4329 345.681 23.5778L364.585 106.1H301.98L321.989 23.5778C326.158 23.5385 329.44 23.4814 333.037 23.455Z" fill="#696969"/>
</svg>
