<svg width="1660" height="113" viewBox="0 0 1660 113" fill="none" xmlns="http://www.w3.org/2000/svg">
<path d="M798.488 0.581764C802.682 -0.436645 821.236 0.290144 826.84 0.289777L867.845 0.291256C875.543 0.29346 883.295 0.1069 890.986 0.404747C893.197 0.490318 895.375 0.742255 897.508 1.35264C902.455 2.76842 906.194 5.32159 908.655 9.91857C909.918 12.2488 910.7 14.8075 910.957 17.4444C912.041 27.6215 911.303 41.6754 911.299 52.276L911.284 77.9114C911.277 82.8848 911.453 87.9236 911.126 92.8849C910.998 94.8475 910.675 96.6845 910.105 98.5704C909.147 101.742 907.362 105.447 904.325 107.087C904.214 107.351 904.196 107.451 903.976 107.688C901.735 110.088 896.73 111.143 893.626 111.504C884.772 112.533 872.01 111.741 862.725 111.745L798.426 111.706C800.559 109.503 800.783 102.349 800.949 99.3071C801.779 83.9697 801.114 67.6869 801.11 52.2496L801.099 27.1628C801.096 21.9907 801.275 16.7246 800.908 11.5654C800.706 8.71103 800.383 2.70268 798.488 0.581764ZM833.238 14.7216C833.671 15.4179 833.804 15.9677 833.84 16.7779C834.127 23.0874 833.888 29.5162 833.892 35.8393V72.7727C833.888 76.9558 834.487 93.644 833.73 96.4602C833.631 96.8245 833.462 97.1576 833.267 97.4771L849.57 97.5153C853.966 97.5153 874.801 98.4191 876.956 95.9761C878.025 94.7641 878.425 92.7479 878.572 91.1892C878.925 87.488 878.675 83.5947 878.653 79.8696C878.602 73.353 878.591 66.836 878.617 60.3193L878.675 34.4566C878.683 29.9658 879.046 25.1102 878.499 20.6583C878.341 19.3894 877.974 16.6787 876.89 15.8516C873.717 13.4325 866.001 14.4689 862.079 14.538C852.468 14.7043 842.853 14.7653 833.238 14.7216Z" fill="#696969"/>
<path d="M1048.95 0.58192C1053.23 -0.325577 1058.82 0.27819 1063.23 0.277089L1092.97 0.276349C1093.15 0.434637 1093.23 0.490468 1093.37 0.665284C1094.82 2.4329 1121.66 71.3493 1124.5 78.9608C1124.73 79.5712 1124.73 79.9373 1124.68 80.5738C1125.01 80.2866 1125.26 80.0681 1125.5 79.6968C1127.29 77.0015 1132.83 61.6901 1134.49 57.5691C1141.86 39.1867 1149.7 20.859 1156.6 2.30143C1156.87 1.56728 1157.01 1.06559 1156.83 0.276349L1198.5 0.306834C1199.17 2.62571 1197.41 7.56056 1197.16 10.1589C1197 11.8556 1197.04 13.5862 1197.05 15.2891V81.0677C1197.05 87.8209 1196.73 94.7265 1197.07 101.46C1197.21 104.352 1199.25 108.969 1198.49 111.602C1186.5 112.15 1174.36 111.757 1162.36 111.724C1163.34 110.776 1163.63 109.881 1163.93 108.588C1164.63 105.533 1164.95 102.357 1165.09 99.2291C1165.64 86.7566 1165.2 74.0939 1165.2 61.5931C1165.2 53.8256 1165.81 45.5392 1165.1 37.8245C1165.04 37.2119 1164.84 36.7242 1164.51 36.2056C1164.73 35.8633 1164.92 35.4983 1165.02 35.0965C1165.76 31.9172 1165.77 19.0297 1164.05 16.4045C1164.11 16.7516 1164.17 17.0814 1164.18 17.4343C1164.21 19.7433 1131.2 101.933 1127.59 110.044C1127.28 110.725 1126.95 111.232 1126.42 111.77L1103.81 111.776C1103.82 111.653 1103.85 111.532 1103.85 111.408C1103.85 110.094 1071.09 26.3903 1067.7 18.7458C1067.29 17.8148 1066.82 17.135 1066.07 16.4468C1066.1 16.5088 1066.14 16.5698 1066.16 16.6326C1066.21 16.7373 1066.25 16.8445 1066.3 16.9492C1067.36 19.361 1066.77 85.2321 1066.64 93.3279C1066.58 96.7684 1066.75 100.009 1067.19 103.419C1067.5 105.836 1068.71 109.374 1068.42 111.701L1048.89 111.745C1050.92 109.674 1051.13 103.229 1051.32 100.362C1051.72 94.444 1051.53 88.4372 1051.54 82.5059V53.7048L1051.53 26.9643C1051.53 21.7503 1051.73 16.4255 1051.34 11.2258C1051.13 8.4071 1050.81 2.70064 1048.95 0.58192Z" fill="#696969"/>
<path d="M0 0.27632L61.7421 0.307545C71.1233 0.304974 83.627 -0.476196 92.6102 0.59877C96.105 1.01708 99.4114 2.02593 102.366 3.97314C106.466 6.67469 108.766 10.7347 109.716 15.4966C110.78 20.8226 110.883 43.1082 110.011 48.5308C109.596 51.1141 108.795 53.614 107.308 55.7886C103.985 60.6467 98.6923 62.1528 93.2209 63.1918L103.083 88.3148C105.134 93.5196 106.967 99.0546 109.687 103.955C111.276 106.82 113.197 109.277 115.336 111.745L78.0079 111.677L58.9634 62.5322H34.9035L34.8771 84.2761C34.8694 93.7558 34.6189 102.492 37.0167 111.745H0.0319536C2.91163 101.555 2.06583 90.7435 2.0706 80.2609L2.07391 50.4002L2.06473 25.2301C2.06216 20.3988 2.24542 15.4702 1.91673 10.6506C1.67434 7.09153 0.926226 3.70982 0 0.27632ZM34.9054 48.2645L60.1566 48.3299C64.6574 48.3376 69.5415 48.7155 73.9843 48.0919C75.2047 47.9204 76.0828 47.5102 77.0806 46.8157C77.6583 45.7279 78.1089 44.7176 78.2779 43.4876C78.7608 39.977 78.8196 20.9985 78.0226 18.2162C77.6958 17.0755 77.2749 16.4364 76.2253 15.8576C72.3217 13.7048 41.5719 14.7037 34.9054 14.7217V48.2645Z" fill="#696969"/>
<path d="M651.61 0.58186C651.691 0.561661 651.776 0.538523 651.86 0.521629C655.639 -0.225375 660.178 0.2763 664.042 0.282543L688.211 0.291711L725.411 0.298324C731.537 0.30016 738.1 -0.162587 744.182 0.494439C747.766 0.882264 751.464 1.96311 754.476 3.98707C758.692 6.819 760.965 11.1585 761.854 16.0809C762.754 21.0675 762.79 43.8442 761.979 48.6986C761.549 51.2845 760.708 53.812 759.195 55.9744C755.805 60.8226 750.304 62.3144 744.791 63.2806C746.984 65.2712 757.785 95.9586 760.363 101.533C761.707 104.439 766.133 109.286 766.691 111.77H729.965C729.19 107.944 712.061 64.1319 710.577 62.6174C702.516 62.3871 694.429 62.5277 686.364 62.5322C688.02 65.8239 686.628 94.6827 686.944 101.037C687.106 104.281 689.196 108.653 688.652 111.724L651.548 111.704C653.858 109.358 654.104 100.682 654.174 97.3725C654.537 79.9549 654.21 62.4591 654.203 45.0345C654.199 33.9014 654.835 22.3412 654.027 11.2599C653.829 8.50545 653.494 2.54926 651.61 0.58186ZM686.327 48.2645L712.068 48.3174C716.586 48.3229 721.467 48.695 725.932 48.096C726.946 47.9597 727.783 47.7239 728.573 47.0393L728.742 46.4899C730.233 45.2398 730.409 43.5228 730.556 41.6891C730.835 38.2633 730.519 34.7476 730.505 31.3122C730.486 27.5633 730.912 23.6905 730.343 19.9771C730.145 18.6962 729.756 17.1639 728.874 16.1698C728.074 15.2693 725.65 14.9431 724.496 14.8241C720.317 14.393 715.87 14.6978 711.661 14.6985C704.047 14.7 696.412 14.6005 688.799 14.7342C688.006 14.7481 687.209 14.8216 686.419 14.9049C687.271 16.6256 687.473 45.2185 686.742 47.3449C686.628 47.6751 686.5 47.9626 686.327 48.2645Z" fill="#696969"/>
<path d="M344.071 0.331702L380.588 0.276245C380.606 0.338679 380.628 0.400382 380.643 0.463551C381.304 3.06925 379.258 7.15133 379.148 10.0115C378.906 16.2806 380.239 45.279 378.454 48.2645H422.264C422.878 47.2791 422.863 46.3757 422.885 45.2467C423.028 38.5832 424.196 4.47732 420.186 0.276245L457.396 0.30673C457.455 0.497338 455.714 12.3936 455.659 14.2034C455.167 30.1873 455.645 46.329 455.648 62.3279L455.63 83.9675C455.604 93.2338 455.241 102.334 457.514 111.4L456.471 111.724L420.311 111.726C420.612 111.43 420.777 111.134 420.939 110.747C422.169 107.765 422.499 103.784 422.734 100.582C423.105 95.5468 423.638 65.4819 422.341 62.5321H378.531C379.501 64.0944 379.178 66.6619 379.181 68.4666C379.192 78.8013 378.524 90.4019 379.06 100.586C379.236 103.924 381.311 108.647 380.621 111.701L344.097 111.745C347.171 101.381 346.264 90.1437 346.271 79.4477L346.282 49.9043C346.282 37.5963 346.965 23.2273 346.08 11.1335C345.808 7.42603 345.133 3.89081 344.071 0.331702Z" fill="#696969"/>
<path d="M531.877 0.58107C535.689 -0.333037 540.889 0.263395 544.845 0.272944L568.279 0.306724C570.52 2.13347 580.193 25.2656 582.015 29.2739L614.488 100.727C616.012 104.032 620.379 108.914 621.198 111.77C607.528 111.809 593.855 111.773 580.182 111.661C580.494 110.913 580.656 110.202 580.693 109.391C580.913 104.584 574.111 86.0925 570.755 82.4181C570.758 81.483 570.696 81.0717 570.152 80.3012C565.396 79.4524 559.469 80.1003 554.581 80.1003L519.382 80.1069C519.401 80.1719 519.427 80.2351 519.434 80.3019C519.739 82.656 512.078 97.4246 510.976 101.384C510.172 104.293 510.748 109.276 509.242 111.745L487.673 111.722C488.07 111.441 488.437 111.138 488.746 110.761C491.449 107.442 493.751 103.223 495.654 99.3924C503.701 83.186 510.675 66.2425 518.101 49.7262L529.912 23.4414C531.994 18.8063 534.312 14.1572 536.144 9.42209C536.372 8.83484 536.39 8.51128 536.339 7.89612C536.361 7.72901 536.405 7.49802 536.383 7.3199C536.196 5.59121 533.224 1.69203 531.877 0.58107ZM525.931 65.7037H545.113L563.046 65.7247C563.13 65.0812 563.127 64.7489 562.892 64.1293C561.353 60.0704 546.556 26.6168 545.168 24.9351C544.922 24.6336 544.903 24.6439 544.631 24.4532C542.836 29.3921 527.984 64.1418 525.931 65.7037Z" fill="#696969"/>
<path d="M1565.75 0.582207C1570.17 -0.518467 1586.16 0.278123 1591.55 0.285468L1656.9 0.306763C1658.43 2.62123 1660.33 14.2964 1659.88 17.32C1654.8 13.2295 1609.27 14.7095 1600.4 14.7217C1600.61 15.0507 1600.78 15.3926 1600.89 15.7691C1601.51 18.0127 1601.3 42.7773 1600.98 46.5039C1600.93 47.1616 1600.72 47.696 1600.39 48.2645C1609.99 48.2524 1648.02 49.814 1654.33 45.6166C1654.53 45.9324 1654.7 46.2637 1654.8 46.6254C1655.41 48.8473 1655.34 63.5825 1654.32 65.2888C1649.16 61.1534 1616.76 62.5193 1608.33 62.5321H1600.43C1600.68 62.9229 1600.85 63.3049 1600.95 63.7581C1601.51 66.2415 1601.32 91.8408 1600.98 95.7169C1600.92 96.3746 1600.72 96.909 1600.39 97.4772C1612.08 97.5319 1651.53 98.9469 1659.89 94.8406C1659.91 94.9104 1659.93 94.9798 1659.94 95.05C1660.39 97.3703 1658.21 109.9 1656.92 111.745H1565.78C1567.96 109.426 1568.31 98.9058 1568.37 95.5626C1568.66 78.7231 1568.41 61.8329 1568.41 44.9889C1568.41 34.0013 1568.95 22.678 1568.17 11.7333C1567.97 8.89032 1567.72 2.63151 1565.75 0.582207Z" fill="#696969"/>
<path d="M238.787 0.527031C244.735 -0.443634 253.912 0.256011 260.236 0.255644L307.404 0.276199C308.223 5.9823 309.266 11.6733 310.265 17.3508C306.545 16.0408 302.795 15.2897 298.877 14.9269C293.272 14.408 258.402 14.0367 255.115 15.5843C254.462 15.8917 254.312 16.2817 254.079 16.949C253.5 18.6083 253.289 20.6275 253.192 22.3764C252.538 34.1723 253.115 46.3404 253.109 58.1657C253.103 68.3065 252.473 80.1652 253.218 90.1315C253.372 92.1871 253.714 94.2805 254.612 96.1498C257.967 98.6479 279.739 97.5348 285.002 97.5153C293.768 97.5318 301.881 97.6086 310.284 94.791C309.134 100.377 308.345 106.067 307.437 111.7L261.807 111.744C254.238 111.758 245.939 112.512 238.447 111.581C234.605 111.103 230.879 110.019 227.722 107.709C223.881 104.898 221.567 100.157 220.895 95.5126C220.166 90.4757 220.498 85.1041 220.493 80.025L220.483 54.5137L220.489 31.7929C220.489 27.3549 220.201 22.654 220.757 18.2517C221.261 14.2677 222.081 10.8378 224.582 7.61037C228.186 2.96087 233.149 1.25861 238.787 0.527031Z" fill="#696969"/>
<path d="M1316.46 0.581827C1320.41 -0.316121 1325.54 0.254225 1329.62 0.267446L1353.44 0.306741C1353.46 0.396352 1353.5 0.483382 1353.52 0.575931C1353.85 2.25283 1352.26 9.02325 1352.04 11.2628C1351.45 17.515 1351.98 24.1613 1351.98 30.4631L1352.01 69.6654C1352.01 73.9109 1352.66 94.167 1351.74 96.5803C1351.62 96.8998 1351.47 97.1878 1351.3 97.4772C1363.84 97.501 1401.19 99.0387 1410.74 94.7844C1410.79 94.9243 1410.88 95.1572 1410.91 95.318C1411.24 97.3695 1409.82 105.221 1408.67 106.719C1408.75 106.989 1408.74 106.933 1408.8 107.27C1409.06 108.76 1408.71 110.525 1407.83 111.745L1316.3 111.724C1319.03 108.931 1318.97 101.571 1319.06 97.7199C1319.48 80.2465 1319.12 62.6761 1319.12 45.1931C1319.11 33.894 1319.79 22.1652 1318.92 10.9275C1318.7 8.14331 1318.38 2.58963 1316.46 0.581827Z" fill="#696969"/>
<path d="M1441.17 0.582264C1445.41 -0.0846778 1450.11 0.268986 1454.41 0.267884L1477.97 0.276335C1478.4 1.77622 1476.34 13.4558 1476.32 16.7571C1476.24 26.1692 1477.07 94.6941 1476.01 97.6094C1487.05 97.4107 1528.32 98.9863 1535.26 94.7672C1535.95 97.1852 1534.56 104.15 1533.36 106.352C1533.4 106.483 1533.45 106.612 1533.48 106.745C1533.8 108.149 1533.24 110.576 1532.44 111.745H1441.1C1443.28 109.44 1443.45 102.088 1443.64 98.9341C1443.98 93.2809 1443.81 87.5634 1443.82 81.8988L1443.82 53.6309L1443.81 27.7719C1443.81 22.5274 1443.98 17.1992 1443.61 11.9684C1443.4 9.08173 1443.08 2.7333 1441.17 0.582264Z" fill="#696969"/>
<path d="M1239.03 0.582283C1242.71 -0.322642 1247.86 0.269742 1251.7 0.274516L1275.97 0.306839C1276.46 1.74392 1274.71 7.72546 1274.55 9.64806C1274 16.0127 1274.39 22.6457 1274.4 29.0419L1274.34 98.7483C1274.34 102.903 1276.01 107 1275.88 111.043L1275.98 111.618C1273.31 112.36 1268.62 111.759 1265.75 111.759L1238.73 111.745C1240.67 109.754 1240.92 106.1 1241.18 103.442C1241.77 97.3259 1241.57 91.1137 1241.57 84.9747L1241.57 58.0715L1241.56 28.3606C1241.56 22.7137 1241.8 16.9433 1241.41 11.3106C1241.21 8.40011 1240.87 2.8277 1239.03 0.582283Z" fill="#696969"/>
<path d="M146.811 0.30673L183.817 0.276245C182.875 3.97564 182.169 7.64383 181.918 11.4582C181.571 16.728 181.783 22.1186 181.78 27.4038L181.775 55.2868L181.789 82.948C181.796 92.0714 181.323 101.083 183.386 110.036C183.502 110.546 183.569 111.064 183.648 111.581C181.618 112.359 151.668 111.751 146.819 111.745C147.952 108.172 148.563 104.366 148.828 100.633C149.194 95.4631 148.969 90.1566 148.973 84.9691L148.983 56.5954L148.976 27.6848C148.974 22.1645 149.189 16.548 148.803 11.0446C148.544 7.35809 147.823 3.85445 146.811 0.30673Z" fill="#696969"/>
</svg>
