<svg width="528" height="292" viewBox="0 0 528 292" fill="none" xmlns="http://www.w3.org/2000/svg">
<path d="M262.539 0.121826L267.927 0.72043L271.519 3.11485L273.913 7.30507V12.0939L272.117 15.0869L269.124 18.0799L266.73 19.2771L267.927 37.2353L272.716 82.7292L274.511 103.68V111.462H276.906L277.505 106.075L282.892 82.1305L294.864 30.6506V27.6576L290.075 23.4674L288.878 19.8757L289.477 15.6855L291.871 12.0939L295.463 9.6995H301.449L305.041 12.0939L307.435 15.0869L308.033 16.2841V21.0729L305.639 24.6646L302.047 27.6576L298.456 28.2562L297.857 41.4255L294.266 105.476L293.068 114.455L294.864 113.857L300.85 100.089L311.027 78.5389L320.005 58.1865L322.999 52.2005L322.4 49.806L318.808 45.6157L318.21 42.0242L320.604 36.6366L323.597 34.2423L326.59 33.045L331.379 33.6437L334.971 36.0381L337.365 39.6297L337.964 43.2213L336.168 47.4115L332.576 51.003L327.189 52.2005L324.196 59.3835L318.808 77.3419L310.428 106.075L306.238 119.843L299.653 141.991L296.66 147.379L291.871 151.569L283.491 155.759L275.11 158.153L270.92 158.752H256.553L246.377 156.357L236.8 151.569L233.208 148.576L229.616 142.59L223.032 121.04L214.053 90.5109L204.475 58.1865L202.679 52.2005L197.292 51.6017L192.503 48.0102L191.306 45.017V40.2284L193.102 36.6366L196.693 33.6437L202.081 33.045L206.869 35.4395L209.863 39.6297L210.461 43.2213L208.665 47.4115L205.672 50.4047L206.869 53.9962L215.849 73.75L225.426 94.1025L230.814 106.075L234.405 113.857H235.602L234.405 101.286L230.215 28.8548L224.229 25.8618L221.236 21.6716V16.2841L223.63 12.0939L227.222 9.6995H233.208L237.398 12.0939L239.793 15.6855V21.6716L236.8 25.8618L233.807 28.2562L236.201 39.6297L240.391 58.1865L249.969 98.8914L252.363 111.462L253.561 110.863L257.152 73.75L261.941 27.059V19.2771L257.152 15.6855L254.758 11.4953L255.356 6.70647L257.751 3.11485L260.744 0.72043L262.539 0.121826ZM258.349 133.61L246.377 135.406L239.793 137.801L236.201 140.195L235.004 141.393V144.385L239.194 147.977L245.779 150.371L258.349 152.167H272.117L282.892 150.371L289.477 147.977L293.667 144.385V141.393L289.477 137.801L279.3 134.808L270.92 133.61H258.349Z" fill="#696969"/>
<path d="M2.14655 200.055H73.3805L79.3665 201.851L84.7537 205.443L89.5427 210.83L92.5359 218.013L93.1342 222.802L91.9372 229.986L88.3456 236.57L85.9512 239.563L80.5635 243.155L75.1762 244.951L77.5707 246.747L82.3596 249.141L87.1482 253.93L91.9372 263.507L97.9232 280.867L98.5219 281.466L108.099 282.064L108.698 287.452L108.099 288.649H79.3665L77.5707 283.261L74.5775 270.691L70.986 261.113L67.3945 254.528L64.4013 250.937L59.6127 248.542L53.028 246.747L42.8517 246.148H35.0698V281.466L47.6403 282.064V288.649H1.54794L0.949341 288.05V282.663L1.54794 282.064H14.1186V206.64H2.14655L0.949341 204.844L1.54794 200.654L2.14655 200.055ZM35.0698 206.64L34.4711 238.366L35.0698 238.965H59.6127L66.197 236.57L69.1902 234.176L72.7817 228.19L73.3805 225.795V219.809L70.986 213.823L68.5915 210.83L63.8029 207.837L59.6127 206.64H35.0698Z" fill="#696969"/>
<path d="M154.192 197.063H169.157L178.735 199.457L188.911 204.844L195.496 210.232L200.883 216.218L205.672 224.599L208.665 232.38L209.862 238.366V249.74L207.468 259.916L202.679 269.494L197.292 276.677L191.305 282.064L183.524 286.853L176.34 289.846L168.558 291.642H153.594L144.614 289.248L135.037 284.459L128.452 279.071L124.262 274.881L120.072 268.895L115.881 260.515L113.487 251.536L112.889 241.958L114.684 231.782L118.276 222.803L122.466 216.218L127.853 210.232L133.241 205.443L141.622 200.655L150.6 197.661L154.192 197.063ZM158.981 206.042L151.798 207.838L145.812 211.429L141.023 216.817L136.234 226.394L134.438 231.782L133.241 238.965V249.74L135.037 259.317L139.227 268.895L144.016 275.48L149.403 279.67L155.389 282.064L162.572 282.663L169.756 281.466L175.742 278.473L181.728 272.487L185.319 266.501L188.312 258.12L189.51 252.134V237.169L187.115 226.993L182.326 217.415L179.333 213.225L174.545 209.633L169.756 207.239L163.77 206.042H158.981Z" fill="#696969"/>
<path d="M320.006 200.055H407.401L408.003 200.654V230.584H401.418L400.817 228.788V219.809L399.024 214.422L396.028 210.232L391.838 207.837L388.248 207.239H353.528V238.366H359.514L367.295 237.767L371.486 235.373L373.88 231.781L374.481 225.197L375.079 224L378.071 223.401L381.062 224V259.916L380.465 260.514H375.079L373.88 252.134L371.486 248.542L369.092 246.148L367.295 245.549H353.528L352.93 282.064L390.045 281.466L395.431 279.071L399.024 274.881L400.219 272.486L400.817 268.895V257.521L401.418 256.923H408.003L408.6 258.719L408.003 288.649L389.444 289.247H330.781L320.006 288.649L319.408 288.05V282.663L320.006 282.064L331.979 281.466V207.239L320.006 206.64L319.408 206.041V200.654L320.006 200.055Z" fill="#696969"/>
<path d="M425.359 200.055H469.058L469.655 200.654V206.041L469.058 206.64L457.685 207.837L461.875 214.422L468.46 222.204L475.045 230.584V231.781L478.037 228.788L484.024 222.204L490.608 213.823L493.6 209.633V207.837L482.825 206.64L482.227 206.041V200.654L482.825 200.055H516.947L518.74 201.253V205.443L517.545 206.64L509.761 207.239L504.973 209.633L498.388 216.816L491.804 225.197L486.418 231.183L481.63 237.169L482.227 239.563L497.791 258.719L503.778 266.5L509.164 273.085L515.748 280.268L518.142 281.466L527.121 282.663L527.719 283.261V288.05L527.121 288.649L521.735 289.247H481.63L478.634 288.649V283.261L479.232 282.663L489.409 281.466L490.007 279.071L485.219 272.486L477.439 262.909L470.854 254.528L469.058 253.331L461.274 262.909L455.888 269.493L449.901 276.677L448.105 279.67V280.867L454.092 282.064H459.478L460.677 282.663V288.649L460.079 289.247H426.558L422.367 288.649L421.766 286.254L422.965 282.064H428.351L434.338 280.867L439.727 276.078L445.113 269.493L451.698 261.712L457.084 255.127L463.668 247.345L463.071 244.951L457.685 238.366L451.1 229.986L443.317 220.408L438.528 214.422L434.338 209.633L430.147 207.239L424.761 206.64L424.164 204.246V200.654L425.359 200.055Z" fill="#696969"/>
<path d="M221.832 200.055H267.924L268.523 200.654L269.122 205.443L267.924 206.64L255.952 207.239V270.092L255.354 282.064L287.679 281.466L293.665 278.472L296.657 274.881L297.855 271.888L298.453 268.296V255.127L299.052 254.528H305.637V288.649L265.53 289.247H232.607L221.832 288.649V282.663L222.431 282.064H235.001V206.64H221.832L221.234 201.851L221.832 200.055Z" fill="#696969"/>
</svg>
