<svg width="145" height="80" viewBox="0 0 145 80" fill="none" xmlns="http://www.w3.org/2000/svg">
<path d="M71.7865 0L73.265 0.164271L74.2506 0.821355L74.9077 1.97125V3.28542L74.4149 4.10677L73.5935 4.92813L72.9364 5.25667L73.265 10.1848L74.5791 22.6694L75.0719 28.4189V30.5544H75.729L75.8933 29.076L77.3717 22.5051L80.6572 8.37782V7.55647L79.343 6.40657L79.0144 5.42094L79.1787 4.27105L79.8358 3.28542L80.8214 2.62834H82.4641L83.4498 3.28542L84.1068 4.10677L84.2711 4.43532V5.74948L83.614 6.73511L82.6284 7.55647L81.6428 7.72074L81.4785 11.3347L80.4929 28.9117L80.1643 31.3758L80.6572 31.2115L82.2999 27.4333L85.0925 21.5195L87.5565 15.9343L88.3779 14.2916L88.2136 13.6345L87.228 12.4846L87.0637 11.499L87.7208 10.0205L88.5422 9.36345L89.3635 9.0349L90.6777 9.19918L91.6633 9.85626L92.3204 10.8419L92.4847 11.8275L91.9919 12.9774L91.0062 13.963L89.5278 14.2916L88.7064 16.2628L87.228 21.191L84.9282 29.076L83.7783 32.8542L81.9713 38.9322L81.15 40.4107L79.8358 41.5606L77.536 42.7105L75.2362 43.3675L74.0863 43.5318H70.1438L67.3512 42.8747L64.7229 41.5606L63.7372 40.7392L62.7516 39.0965L60.9446 33.1827L58.4806 24.8049L55.8522 15.9343L55.3594 14.2916L53.881 14.1273L52.5668 13.1417L52.2383 12.3203V11.0062L52.7311 10.0205L53.7167 9.19918L55.1952 9.0349L56.5093 9.69199L57.3307 10.8419L57.495 11.8275L57.0021 12.9774L56.1808 13.7988L56.5093 14.7844L58.9734 20.2053L61.6017 25.7905L63.0802 29.076L64.0658 31.2115H64.3943L64.0658 27.7618L62.9159 7.88501L61.2732 7.06365L60.4518 5.91376V4.43532L61.1089 3.28542L62.0945 2.62834H63.7372L64.8871 3.28542L65.5442 4.27105V5.91376L64.7229 7.06365L63.9015 7.72074L64.5586 10.8419L65.7085 15.9343L68.3368 27.1047L68.9939 30.5544L69.3225 30.3901L70.3081 20.2053L71.6223 7.39219V5.25667L70.3081 4.27105L69.651 3.12115L69.8153 1.80698L70.4724 0.821355L71.2937 0.164271L71.7865 0ZM70.6366 36.6324L67.3512 37.1252L65.5442 37.7823L64.5586 38.4394L64.2301 38.768V39.5893L65.38 40.5749L67.1869 41.232L70.6366 41.7248H74.4149L77.3717 41.232L79.1787 40.5749L80.3286 39.5893V38.768L79.1787 37.7823L76.3861 36.961L74.0863 36.6324H70.6366Z" fill="#757477"/>
<path d="M0.328542 54.8665H19.8768L21.5195 55.3593L22.9979 56.345L24.3121 57.8234L25.1335 59.7946L25.2977 61.1088L24.9692 63.0801L23.9836 64.887L23.3265 65.7084L21.848 66.694L20.3696 67.1868L21.0267 67.6797L22.3409 68.3367L23.655 69.6509L24.9692 72.2792L26.6119 77.0431L26.7762 77.2074L29.4045 77.3716L29.5688 78.8501L29.4045 79.1786H21.5195L21.0267 77.7002L20.2053 74.2505L19.2197 71.6222L18.2341 69.8152L17.4127 68.8295L16.0986 68.1725L14.2916 67.6797L11.499 67.5154H9.36345V77.2074L12.8131 77.3716V79.1786H0.164271L0 79.0143V77.5359L0.164271 77.3716H3.61396V56.6735H0.328542L0 56.1807L0.164271 55.0308L0.328542 54.8665ZM9.36345 56.6735L9.19917 65.3799L9.36345 65.5441H16.0986L17.9055 64.887L18.7269 64.23L19.7125 62.5873L19.8768 61.9302V60.2875L19.2197 58.6447L18.5626 57.8234L17.2485 57.002L16.0986 56.6735H9.36345Z" fill="#757477"/>
<path d="M42.0533 54.0452H46.1601L48.7886 54.7023L51.5812 56.1807L53.3881 57.6592L54.8666 59.3019L56.1806 61.6017L57.0021 63.7372L57.3306 65.3799V68.5011L56.6735 71.2937L55.3594 73.922L53.881 75.8933L52.2382 77.3717L50.1026 78.6859L48.1315 79.5072L45.9958 80H41.8891L39.425 79.343L36.7967 78.0288L34.9897 76.5503L33.8399 75.4005L32.6899 73.7577L31.5401 71.4579L30.8829 68.9939L30.7188 66.3655L31.2115 63.5729L32.1972 61.1089L33.347 59.3019L34.8255 57.6592L36.304 56.345L38.6038 55.0309L41.0677 54.2095L42.0533 54.0452ZM43.3675 56.5093L41.3964 57.0021L39.7537 57.9877L38.4394 59.4662L37.1253 62.0945L36.6325 63.5729L36.304 65.5442V68.5011L36.7967 71.1294L37.9467 73.7577L39.2607 75.5647L40.7393 76.7146L42.382 77.3717L44.3531 77.536L46.3245 77.2074L47.9672 76.3861L49.6099 74.7434L50.5955 73.1007L51.4169 70.8009L51.7453 69.1582V65.0514L51.0882 62.2588L49.7742 59.6304L48.9528 58.4805L47.6386 57.4949L46.3245 56.8378L44.6818 56.5093H43.3675Z" fill="#757477"/>
<path d="M87.5568 54.8665H111.54L111.705 55.0308V63.2443H109.898L109.733 62.7515V60.2875L109.241 58.809L108.419 57.6591L107.269 57.002L106.284 56.8378H96.756V65.3799H98.3987L100.534 65.2156L101.684 64.5585L102.341 63.5729L102.506 61.7659L102.67 61.4374L103.491 61.2731L104.312 61.4374V71.2936L104.148 71.4579H102.67L102.341 69.1581L101.684 68.1725L101.027 67.5154L100.534 67.3511H96.756L96.5918 77.3716L106.777 77.2074L108.255 76.5503L109.241 75.4004L109.569 74.7433L109.733 73.7577V70.6365L109.898 70.4723H111.705L111.869 70.9651L111.705 79.1786L106.612 79.3429H90.5137L87.5568 79.1786L87.3926 79.0143V77.5359L87.5568 77.3716L90.8423 77.2074V56.8378L87.5568 56.6735L87.3926 56.5092V55.0308L87.5568 54.8665Z" fill="#757477"/>
<path d="M116.468 54.8665H128.46L128.624 55.0308V56.5092L128.46 56.6735L125.339 57.002L126.489 58.809L128.296 60.9445L130.103 63.2443V63.5729L130.924 62.7515L132.567 60.9445L134.374 58.6447L135.195 57.4949V57.002L132.238 56.6735L132.074 56.5092V55.0308L132.238 54.8665H141.602L142.094 55.1951V56.345L141.766 56.6735L139.63 56.8378L138.316 57.4949L136.509 59.4661L134.702 61.7659L133.224 63.4086L131.91 65.0513L132.074 65.7084L136.345 70.9651L137.988 73.1006L139.466 74.9076L141.273 76.8788L141.93 77.2074L144.394 77.5359L144.558 77.7002V79.0143L144.394 79.1786L142.916 79.3429H131.91L131.088 79.1786V77.7002L131.252 77.5359L134.045 77.2074L134.209 76.5503L132.895 74.7433L130.76 72.115L128.953 69.8152L128.46 69.4866L126.324 72.115L124.846 73.9219L123.203 75.8932L122.71 76.7146V77.0431L124.353 77.3716H125.831L126.16 77.5359V79.1786L125.996 79.3429H116.797L115.647 79.1786L115.482 78.5215L115.811 77.3716H117.289L118.932 77.0431L120.411 75.7289L121.889 73.9219L123.696 71.7864L125.174 69.9794L126.981 67.8439L126.817 67.1868L125.339 65.3799L123.532 63.0801L121.396 60.4517L120.082 58.809L118.932 57.4949L117.782 56.8378L116.304 56.6735L116.14 56.0164V55.0308L116.468 54.8665Z" fill="#757477"/>
<path d="M60.6154 54.8665H73.2643L73.4286 55.0308L73.5929 56.345L73.2643 56.6735L69.9789 56.8378V74.0862L69.8146 77.3716L78.6853 77.2074L80.328 76.386L81.1493 75.4004L81.4779 74.579L81.6421 73.5934V69.9794L81.8064 69.8152H83.6134V79.1786L72.6072 79.3429H63.5723L60.6154 79.1786V77.5359L60.7797 77.3716H64.2294V56.6735H60.6154L60.4512 55.3593L60.6154 54.8665Z" fill="#757477"/>
</svg>
