<svg width="240" height="38" viewBox="0 0 240 38" fill="none" xmlns="http://www.w3.org/2000/svg">
<path d="M127.872 23.7364C123.231 24.784 117.224 25.0625 112.901 23.0734C109.208 21.4556 106.933 17.5968 106.456 13.8241C106.167 11.6491 106.476 9.43644 107.35 7.42377C108.224 5.4111 109.629 3.67441 111.415 2.40012C115.752 -0.696231 122.621 -0.596777 127.328 1.55807V6.28548C123.754 4.64779 118.384 3.67977 114.963 6.28548C112.503 8.17512 111.74 11.1654 112.357 14.1623C112.661 15.3651 113.257 16.4747 114.09 17.3938C114.924 18.3129 115.97 19.0132 117.137 19.4334C118.87 19.9555 120.693 20.1091 122.488 19.8842V16.0387H120.134V11.3974H127.865V23.7033L127.872 23.7364ZM70.7319 23.9751V4.60801H79.285V0.0994054H56.1055V4.60801H64.6586V23.9751H70.7319ZM88.0039 15.117L91.4251 6.21918L95.1646 15.117H88.0039ZM94.7867 0.318205H87.8713L78.1048 24.121H84.5031L86.333 19.4798H96.9813L98.9306 24.121H105.329L94.7867 0.318205ZM151.224 10.509H137.725L137.731 0.271793H134.104V24.0414H137.731L137.725 13.7114H151.224L151.211 24.0414H154.844V0.271793H151.211L151.224 10.509ZM194.864 17.3448C194.373 18.541 193.536 19.5632 192.459 20.2803C191.383 20.9973 190.117 21.3766 188.824 21.3694C184.607 21.3694 183.978 18.1073 183.978 16.158V3.4676H180.357V15.6674C180.357 23.9022 186.557 24.5387 188.46 24.5387C190.833 24.5771 193.13 23.6984 194.871 22.0855V24.0746H198.498V3.52064H194.871L194.864 17.3448ZM239.705 5.62245C239.612 5.51636 237.378 3.03 234.487 3.03C231.941 3.03 229.455 5.47658 228.036 7.1872V3.39467H224.389V24.068H228.009V11.7422C228.951 10.1642 231.55 6.56395 233.718 6.56395C235.535 6.56395 237.444 8.61272 237.464 8.63261L239.705 5.62245ZM167.621 3.04326C161.945 3.04326 157.675 7.27339 157.675 13.7114C157.675 18.1405 160.672 24.4989 168.708 24.4989C171.734 24.5343 174.676 23.5066 177.022 21.5949L177.235 21.3959V17.1724L176.107 18.22C176.107 18.22 173.031 21.1108 168.96 21.1108C164.524 21.1108 161.428 18.525 161.428 13.7446V13.7048H177.619V13.0418C177.619 7.97621 174.49 3.04326 167.621 3.04326ZM161.945 10.5289C162.873 7.63143 164.942 6.47113 167.607 6.47113C171.937 6.47113 173.144 9.07684 173.475 10.5289H161.945ZM211.454 3.04326C205.778 3.04326 201.508 7.27339 201.508 13.7114C201.508 18.1405 204.505 24.4989 212.541 24.4989C215.567 24.5343 218.509 23.5066 220.855 21.5949L221.067 21.3959V17.1724L219.947 18.22C219.947 18.22 216.87 21.1108 212.799 21.1108C208.364 21.1108 205.267 18.525 205.267 13.7446V13.7048H221.459V13.0418C221.452 7.97621 218.323 3.04326 211.454 3.04326ZM205.778 10.5289C206.706 7.63143 208.775 6.47113 211.44 6.47113C215.77 6.47113 216.977 9.07684 217.308 10.5289H205.778ZM65.8586 35.2268L65.1956 34.8024C64.8382 34.6046 64.5229 34.3388 64.2674 34.02C64.0817 33.7614 63.9841 33.4499 63.9889 33.1316C63.9809 32.9012 64.0237 32.6719 64.1142 32.4599C64.2047 32.248 64.3408 32.0585 64.5127 31.905C64.8804 31.5879 65.3534 31.4199 65.8388 31.4342C66.3617 31.4317 66.873 31.589 67.3041 31.8851V32.9128C67.1133 32.7105 66.8845 32.5478 66.6308 32.4341C66.3771 32.3203 66.1034 32.2577 65.8255 32.2498C65.5667 32.2391 65.3113 32.3111 65.0962 32.4553C65.0077 32.5124 64.9352 32.591 64.8853 32.6838C64.8354 32.7765 64.8099 32.8804 64.8111 32.9857C64.8133 33.1847 64.8888 33.376 65.0232 33.5228C65.2148 33.7317 65.4387 33.9085 65.6863 34.0466L66.3493 34.4643C66.686 34.6269 66.972 34.8783 67.1765 35.1914C67.381 35.5045 67.4961 35.8675 67.5096 36.2412C67.5186 36.4734 67.4777 36.7048 67.3896 36.9199C67.3015 37.1349 67.1684 37.3285 66.9991 37.4877C66.6362 37.8137 66.1604 37.985 65.673 37.9651C65.0515 37.9677 64.447 37.7623 63.9557 37.3816V36.2279C64.1458 36.5092 64.4001 36.7413 64.6975 36.905C64.9949 37.0687 65.327 37.1593 65.6664 37.1694C65.9261 37.1791 66.1805 37.0943 66.3824 36.9307C66.4734 36.859 66.5464 36.7672 66.5959 36.6626C66.6453 36.5579 66.6699 36.4431 66.6675 36.3274C66.7007 35.9428 66.4156 35.5715 65.8586 35.2268ZM77.707 31.527H78.5888L76.0229 37.9253H75.8107L73.7354 32.7404L71.6336 37.9253H71.4215L68.8688 31.527H69.7904L71.5408 35.9163L73.3111 31.527H74.1797L75.9367 35.9229L77.707 31.527ZM80.379 31.527H81.294V37.8921H80.379V31.527ZM85.3318 35.2268L84.6688 34.8024C84.3117 34.6042 83.9964 34.3384 83.7406 34.02C83.5573 33.7606 83.462 33.4492 83.4687 33.1316C83.4607 32.9012 83.5035 32.6719 83.594 32.4599C83.6846 32.248 83.8206 32.0585 83.9925 31.905C84.3605 31.5884 84.8334 31.4206 85.3186 31.4342C85.8416 31.4313 86.353 31.5886 86.7839 31.8851V32.9128C86.5933 32.7102 86.3646 32.5473 86.1108 32.4336C85.8571 32.3198 85.5833 32.2573 85.3053 32.2498C85.0466 32.2391 84.7911 32.3111 84.576 32.4553C84.4875 32.5124 84.415 32.591 84.3651 32.6838C84.3153 32.7765 84.2897 32.8804 84.2909 32.9857C84.2931 33.1847 84.3687 33.376 84.5031 33.5228C84.6952 33.7311 84.9189 33.9079 85.1661 34.0466L85.8291 34.4643C86.1659 34.6269 86.4519 34.8783 86.6563 35.1914C86.8608 35.5045 86.976 35.8675 86.9894 36.2412C86.998 36.4733 86.9569 36.7046 86.8688 36.9196C86.7808 37.1346 86.6478 37.3283 86.4789 37.4877C86.1161 37.8137 85.6402 37.985 85.1528 37.9651C84.5313 37.9682 83.9266 37.7627 83.4356 37.3816V36.2279C83.6257 36.5092 83.8799 36.7413 84.1773 36.905C84.4748 37.0687 84.8069 37.1593 85.1462 37.1694C85.4037 37.1781 85.6557 37.0933 85.8556 36.9307C85.9466 36.859 86.0196 36.7672 86.0691 36.6626C86.1185 36.5579 86.1431 36.4431 86.1407 36.3274C86.1628 35.9384 85.8932 35.5715 85.3318 35.2268ZM90.6494 35.2268L89.9863 34.8024C89.629 34.6044 89.3137 34.3387 89.0581 34.02C88.8724 33.7614 88.7748 33.4499 88.7796 33.1316C88.7721 32.9013 88.815 32.6721 88.9055 32.4602C88.996 32.2483 89.1318 32.0588 89.3034 31.905C89.6714 31.5884 90.1442 31.4206 90.6295 31.4342C91.1503 31.4322 91.6593 31.5895 92.0881 31.8851V32.9128C91.8978 32.7099 91.6691 32.5469 91.4153 32.4331C91.1615 32.3192 90.8876 32.2569 90.6096 32.2498C90.3509 32.2396 90.0956 32.3115 89.8802 32.4553C89.7942 32.5149 89.7235 32.5941 89.674 32.6863C89.6244 32.7785 89.5974 32.8811 89.5951 32.9857C89.5974 33.1847 89.6729 33.376 89.8073 33.5228C89.9989 33.7317 90.2228 33.9085 90.4703 34.0466L91.1334 34.4643C91.4706 34.6263 91.757 34.8775 91.9615 35.1908C92.1661 35.504 92.2809 35.8673 92.2937 36.2412C92.3022 36.4733 92.2611 36.7046 92.1731 36.9196C92.085 37.1346 91.9521 37.3283 91.7831 37.4877C91.4207 37.8143 90.9445 37.9857 90.4571 37.9651C89.8356 37.9677 89.2311 37.7623 88.7398 37.3816V36.2279C88.9299 36.5092 89.1842 36.7413 89.4816 36.905C89.779 37.0687 90.1111 37.1593 90.4504 37.1694C90.708 37.1781 90.96 37.0933 91.1599 36.9307C91.2508 36.859 91.3239 36.7672 91.3733 36.6626C91.4228 36.5579 91.4473 36.4431 91.445 36.3274C91.4914 35.9428 91.1864 35.5715 90.6494 35.2268ZM100.064 31.4806H100.727L103.578 37.8789H102.644L101.795 36.0158H99.0831L98.2875 37.8988H97.3526L100.064 31.4806ZM101.39 35.187L100.356 32.8796L99.3947 35.187H101.39ZM108.578 31.527H109.493L106.794 37.9253H106.582L103.857 31.527H104.772L106.681 36.0025L108.578 31.527ZM112.523 31.4806H113.186L116.037 37.8789H115.056L114.207 35.9959H111.495L110.706 37.8789H109.771L112.523 31.4806ZM113.849 35.187L112.814 32.8796L111.853 35.187H113.849ZM122.82 31.527H123.675V37.8921H122.893L118.636 32.9857V37.8921H117.781V31.527H118.517L122.806 36.4733L122.82 31.527ZM125.558 31.527H130.862V32.3359H128.648V37.8921H127.733V32.3426H125.551L125.558 31.527ZM130.869 35.3925H133.136V36.2743H130.869V35.3925ZM138.699 34.756H140.841V37.4479C140.106 37.7776 139.312 37.9514 138.507 37.9584C138.046 37.9811 137.585 37.9113 137.151 37.753C136.717 37.5947 136.319 37.3512 135.981 37.0368C135.674 36.7427 135.432 36.3881 135.27 35.9954C135.108 35.6028 135.029 35.1807 135.039 34.756C135.028 34.3127 135.109 33.8719 135.278 33.462C135.447 33.052 135.7 32.682 136.021 32.3757C136.347 32.0616 136.732 31.816 137.155 31.6531C137.577 31.4903 138.028 31.4136 138.48 31.4276C138.824 31.4255 139.167 31.4655 139.501 31.5469C139.919 31.6574 140.327 31.8016 140.721 31.9779V32.9062C140.041 32.4863 139.26 32.2572 138.46 32.2431C138.136 32.2387 137.813 32.2992 137.512 32.4211C137.211 32.543 136.937 32.7238 136.707 32.9529C136.476 33.182 136.294 33.4549 136.17 33.7554C136.047 34.0559 135.985 34.3781 135.987 34.703C135.976 35.0327 136.034 35.3611 136.158 35.6671C136.281 35.9731 136.467 36.25 136.703 36.4799C136.951 36.7061 137.24 36.8812 137.555 36.995C137.871 37.1088 138.205 37.1591 138.54 37.1429C138.993 37.1301 139.44 37.0451 139.866 36.891H139.952V35.5649H138.726L138.699 34.756ZM144.892 31.4806H145.555L148.406 37.8789H147.471L146.622 35.9959H143.911L143.115 37.8789H142.18L144.892 31.4806ZM146.218 35.187L145.184 32.8796L144.229 35.2002L146.218 35.187ZM149.772 37.8988V31.5337H151.363C151.914 31.5039 152.458 31.6733 152.895 32.0111C153.085 32.1729 153.236 32.377 153.334 32.6073C153.432 32.8375 153.474 33.0875 153.458 33.3371C153.472 33.6806 153.374 34.0194 153.179 34.3027C152.985 34.5859 152.703 34.7985 152.377 34.9085C152.604 35.0623 152.807 35.2476 152.981 35.4588C153.282 35.8421 153.556 36.2453 153.803 36.6655C154.024 37.028 154.201 37.2998 154.333 37.4811L154.672 37.9386H153.584L153.306 37.5208L153.253 37.4413L153.074 37.1893L152.789 36.7252L152.484 36.2279C152.328 36.007 152.155 35.7986 151.966 35.6047C151.841 35.4731 151.698 35.3593 151.542 35.2665C151.332 35.1821 151.105 35.1481 150.879 35.1671H150.64V37.9319L149.772 37.8988ZM150.959 32.3028H150.687V34.2919H151.032C151.35 34.3124 151.67 34.2719 151.973 34.1725C152.139 34.0969 152.278 33.9719 152.371 33.8145C152.47 33.6482 152.52 33.4576 152.517 33.2642C152.519 33.0691 152.464 32.8776 152.358 32.7139C152.252 32.5525 152.096 32.4311 151.913 32.3691C151.6 32.2976 151.279 32.273 150.959 32.2962V32.3028ZM156.051 37.8988V31.5337H158.199C158.907 31.5015 159.613 31.6355 160.261 31.9249C160.765 32.1828 161.184 32.5812 161.468 33.0719C161.766 33.5706 161.922 34.1417 161.918 34.7229C161.918 35.3622 161.723 35.9862 161.36 36.512C160.996 37.0379 160.481 37.4406 159.883 37.6667C159.669 37.752 159.447 37.8142 159.22 37.8524C158.837 37.8932 158.451 37.9087 158.066 37.8988H156.051ZM158.106 32.3426H156.966V37.0899H158.152C158.511 37.1002 158.869 37.0691 159.22 36.9971C159.451 36.949 159.674 36.8687 159.883 36.7584C160.052 36.6621 160.208 36.5439 160.347 36.407C160.569 36.1782 160.742 35.9069 160.856 35.6095C160.97 35.3121 161.022 34.9947 161.01 34.6764C161.025 34.3658 160.974 34.0555 160.86 33.7662C160.745 33.477 160.571 33.2154 160.347 32.999C160.173 32.8354 159.974 32.7011 159.757 32.6012C159.557 32.5048 159.345 32.4356 159.127 32.3956C158.789 32.3506 158.447 32.3329 158.106 32.3426ZM164.12 31.527H167.727V32.3359H165.028V34.2786H167.627V35.0875H165.028V37.0766H167.806V37.8855H164.12V31.527ZM175.033 35.2268L174.37 34.8024C174.013 34.6036 173.698 34.338 173.442 34.02C173.256 33.7614 173.159 33.4499 173.164 33.1316C173.156 32.9013 173.199 32.6721 173.289 32.4602C173.38 32.2483 173.516 32.0588 173.687 31.905C174.055 31.5884 174.528 31.4206 175.013 31.4342C175.536 31.4317 176.048 31.589 176.479 31.8851V32.9128C176.288 32.7102 176.059 32.5473 175.806 32.4336C175.552 32.3198 175.278 32.2573 175 32.2498C174.739 32.2382 174.481 32.3102 174.264 32.4553C174.178 32.5149 174.107 32.5941 174.058 32.6863C174.008 32.7785 173.981 32.8811 173.979 32.9857C173.981 33.1849 174.056 33.3763 174.191 33.5228C174.382 33.7322 174.606 33.9091 174.854 34.0466L175.517 34.4643C175.854 34.6263 176.141 34.8775 176.345 35.1908C176.55 35.504 176.665 35.8673 176.678 36.2412C176.687 36.4734 176.646 36.7048 176.558 36.9199C176.47 37.1349 176.336 37.3285 176.167 37.4877C175.804 37.8137 175.328 37.985 174.841 37.9651C174.219 37.9682 173.615 37.7627 173.124 37.3816V36.2279C173.314 36.5092 173.568 36.7413 173.865 36.905C174.163 37.0687 174.495 37.1593 174.834 37.1694C175.094 37.1791 175.348 37.0943 175.55 36.9307C175.641 36.859 175.714 36.7672 175.764 36.6626C175.813 36.5579 175.838 36.4431 175.836 36.3274C175.862 35.9384 175.595 35.5715 175.033 35.2268ZM178.779 31.527H179.694V37.8921H178.779V31.527ZM187.206 31.527H188.068V37.8921H187.286L183.029 32.9857V37.8921H182.174V31.527H182.91L187.2 36.4733L187.206 31.527ZM195.945 36.4202V37.4479C195.234 37.8258 194.437 38.0153 193.631 37.9982C193 38.0182 192.375 37.8694 191.821 37.5673C191.331 37.2865 190.926 36.8788 190.648 36.3871C190.358 35.8924 190.207 35.3291 190.21 34.756C190.201 34.3184 190.284 33.8838 190.455 33.4805C190.625 33.0773 190.878 32.7144 191.198 32.4155C191.522 32.1039 191.904 31.8596 192.323 31.6968C192.742 31.534 193.189 31.4561 193.638 31.4674C194.408 31.492 195.165 31.67 195.866 31.9912V32.9725C195.21 32.5635 194.457 32.3347 193.684 32.3094C193.354 32.2954 193.024 32.3467 192.713 32.4605C192.403 32.5742 192.117 32.7482 191.874 32.9725C191.638 33.195 191.452 33.4647 191.328 33.764C191.203 34.0633 191.143 34.3855 191.152 34.7096C191.141 35.0307 191.199 35.3504 191.321 35.6476C191.444 35.9447 191.628 36.2126 191.861 36.4335C192.105 36.6582 192.391 36.8325 192.703 36.9462C193.015 37.06 193.346 37.1111 193.678 37.0965C194.483 37.097 195.271 36.862 195.945 36.4202ZM198.14 31.527H201.747V32.3359H199.055V34.2786H201.654V35.0875H199.055V37.0766H201.833V37.8855H198.14V31.527ZM208.675 31.527H209.59V37.8921H208.675V31.527ZM212.952 33.2244C212.949 32.9842 212.998 32.7463 213.095 32.5267C213.193 32.307 213.336 32.1109 213.516 31.9514C213.887 31.6045 214.38 31.4165 214.888 31.4276C215.381 31.4206 215.856 31.6061 216.214 31.9448C216.4 32.121 216.544 32.3371 216.634 32.5767C216.725 32.8164 216.76 33.0734 216.737 33.3286C216.714 33.5837 216.633 33.8304 216.501 34.05C216.37 34.2697 216.19 34.4566 215.975 34.5969C216.25 34.7403 216.478 34.9582 216.634 35.2257C216.79 35.4931 216.867 35.7991 216.857 36.1086C216.866 36.3587 216.819 36.6075 216.719 36.837C216.619 37.0664 216.469 37.2706 216.28 37.4347C215.872 37.772 215.358 37.9566 214.828 37.9566C214.298 37.9566 213.785 37.772 213.376 37.4347C213.186 37.2713 213.034 37.0675 212.932 36.8382C212.83 36.6088 212.78 36.3596 212.786 36.1086C212.78 35.8001 212.861 35.4963 213.02 35.2314C213.178 34.9666 213.407 34.7513 213.681 34.6101C213.447 34.4291 213.251 34.2038 213.104 33.9471C212.997 33.7218 212.944 33.474 212.952 33.2244ZM215.962 36.1815V36.1219C215.966 35.9869 215.94 35.8527 215.887 35.7289C215.833 35.6051 215.752 35.4947 215.65 35.4058C215.423 35.2135 215.132 35.114 214.835 35.1273C214.542 35.1147 214.255 35.2143 214.033 35.4058C213.931 35.4963 213.851 35.6079 213.797 35.7327C213.743 35.8576 213.717 35.9926 213.721 36.1285C213.717 36.265 213.744 36.4007 213.799 36.5256C213.854 36.6506 213.936 36.7618 214.039 36.8512C214.268 37.0451 214.562 37.1446 214.861 37.1297C215.147 37.1407 215.427 37.0489 215.65 36.8711C215.754 36.7895 215.836 36.6843 215.89 36.5643C215.945 36.4443 215.969 36.313 215.962 36.1815ZM215.883 33.2576C215.883 33.1334 215.858 33.0105 215.809 32.8965C215.76 32.7825 215.688 32.6797 215.597 32.5945C215.395 32.4222 215.137 32.3275 214.871 32.3275C214.605 32.3275 214.348 32.4222 214.145 32.5945C214.054 32.6792 213.982 32.7819 213.933 32.896C213.884 33.0102 213.859 33.1333 213.86 33.2576C213.862 33.3827 213.889 33.5061 213.94 33.6202C213.992 33.7343 214.066 33.8366 214.159 33.9206C214.35 34.1067 214.608 34.2093 214.875 34.2057C215.006 34.2081 215.137 34.1841 215.258 34.1351C215.38 34.0861 215.491 34.0132 215.584 33.9206C215.676 33.8362 215.749 33.7338 215.8 33.6197C215.85 33.5055 215.876 33.3822 215.876 33.2576H215.883ZM221.081 31.4806L221.174 31.4143L221.724 32.1105C221.272 32.3933 220.864 32.7394 220.51 33.1382C220.18 33.5284 219.928 33.9786 219.768 34.4643C220.077 34.2952 220.423 34.2042 220.776 34.1991C221.013 34.1952 221.248 34.2411 221.466 34.3336C221.684 34.426 221.88 34.5632 222.042 34.7361C222.213 34.9107 222.348 35.1183 222.436 35.3462C222.525 35.5741 222.567 35.8177 222.559 36.0622C222.56 36.3098 222.51 36.5549 222.413 36.7828C222.316 37.0107 222.174 37.2166 221.996 37.3882C221.819 37.5686 221.607 37.7111 221.374 37.8069C221.14 37.9026 220.889 37.9497 220.636 37.9452C220.36 37.951 220.086 37.8945 219.835 37.7797C219.583 37.6649 219.361 37.4948 219.184 37.2822C218.799 36.8184 218.6 36.2272 218.627 35.6246C218.629 35.1031 218.726 34.5863 218.913 34.0996C219.107 33.5839 219.382 33.1027 219.728 32.6741C220.122 32.2159 220.577 31.8143 221.081 31.4806ZM219.576 35.4058C219.548 35.5634 219.535 35.7232 219.536 35.8832C219.522 36.2063 219.634 36.5223 219.847 36.765C219.948 36.8778 220.072 36.9672 220.21 37.0268C220.349 37.0864 220.499 37.1147 220.65 37.1098C220.784 37.1134 220.918 37.0888 221.043 37.0374C221.167 36.986 221.28 36.909 221.372 36.8114C221.467 36.7128 221.541 36.5963 221.59 36.4688C221.639 36.3413 221.662 36.2053 221.658 36.0688C221.663 35.931 221.64 35.7935 221.588 35.6655C221.537 35.5375 221.459 35.4218 221.359 35.3262C221.139 35.1306 220.851 35.0283 220.557 35.0411C220.399 35.0397 220.242 35.0667 220.093 35.1207C219.912 35.2002 219.74 35.3003 219.582 35.419L219.576 35.4058ZM226.305 31.4342C226.607 31.4437 226.9 31.5343 227.155 31.6965C227.409 31.8586 227.615 32.0864 227.751 32.3558C228.126 33.0814 228.321 33.8862 228.321 34.703C228.321 35.5197 228.126 36.3245 227.751 37.0501C227.61 37.3228 227.397 37.5516 227.135 37.7113C226.873 37.871 226.572 37.9555 226.266 37.9555C225.959 37.9555 225.658 37.871 225.396 37.7113C225.134 37.5516 224.921 37.3228 224.78 37.0501C224.377 36.3311 224.184 35.5132 224.223 34.6897C224.188 33.8641 224.388 33.0453 224.8 32.3293C224.949 32.0597 225.167 31.8347 225.431 31.6773C225.696 31.52 225.998 31.4361 226.305 31.4342ZM226.305 32.2962H226.259C226.07 32.3096 225.889 32.3802 225.741 32.4987C225.593 32.6171 225.485 32.7777 225.43 32.9592C225.203 33.5136 225.098 34.1109 225.125 34.7096C225.098 35.3163 225.2 35.922 225.424 36.4865C225.477 36.669 225.585 36.8306 225.733 36.9493C225.881 37.068 226.063 37.1379 226.252 37.1495C226.443 37.1374 226.625 37.0674 226.774 36.9489C226.923 36.8303 227.033 36.669 227.088 36.4865C227.316 35.9323 227.42 35.3348 227.393 34.7361C227.418 34.1323 227.319 33.5296 227.101 32.9658C226.907 32.5238 226.644 32.3006 226.312 32.2962H226.305Z" fill="#757477"/>
<path d="M43.7803 25.4072L21.8936 37.9648L0 25.4072V0.0996094H43.7734L43.7803 25.4072ZM1.10742 1.21289V24.7578L21.873 36.6992L21.8799 36.7051H21.9131L42.6396 24.7705L42.6592 24.7578V1.22656L1.14746 1.21289H1.10742ZM41.5049 16.1846V24.1143L21.8926 35.3857L2.25391 24.1074V16.1846H41.5049ZM18.749 17.6299C18.73 17.63 18.7118 17.6379 18.6982 17.6514C18.6846 17.6651 18.6768 17.6838 18.6768 17.7031V31.5869C18.6765 31.6006 18.6795 31.6142 18.6865 31.626C18.6935 31.6377 18.7046 31.6471 18.7168 31.6533L21.8525 33.4502C21.8635 33.4565 21.876 33.4599 21.8887 33.46C21.9015 33.46 21.9147 33.4566 21.9258 33.4502L25.0547 31.6533C25.0647 31.6468 25.0733 31.6374 25.0791 31.627C25.0847 31.6168 25.0875 31.6054 25.0879 31.5938V17.7031C25.0879 17.6838 25.0801 17.6651 25.0664 17.6514C25.0527 17.6377 25.034 17.6299 25.0146 17.6299H23.6025C23.5834 17.63 23.5654 17.6379 23.5518 17.6514C23.5381 17.6651 23.5303 17.6838 23.5303 17.7031V30.7451L21.8926 31.6396L20.2412 30.7451V17.7031C20.2412 17.6838 20.2333 17.6651 20.2197 17.6514C20.206 17.6377 20.1872 17.6299 20.168 17.6299H18.749ZM12.0264 17.5967C12.0082 17.5983 11.9908 17.6066 11.9785 17.6201C11.9664 17.6336 11.9599 17.6518 11.96 17.6699V27.6816C11.9591 27.6945 11.9621 27.7072 11.9678 27.7188C11.9736 27.7304 11.9823 27.7409 11.9932 27.748L16.3828 30.3203C16.3929 30.326 16.4045 30.3291 16.416 30.3291C16.4276 30.329 16.4392 30.326 16.4492 30.3203C16.4599 30.3133 16.4689 30.3035 16.4746 30.292C16.4804 30.2803 16.4823 30.2669 16.4814 30.2539V28.749C16.4817 28.7354 16.4787 28.7217 16.4717 28.71C16.4646 28.6983 16.4544 28.6888 16.4424 28.6826L13.4385 27.0449V23.4111L16.1309 24.0742C16.1465 24.0697 16.1604 24.06 16.1699 24.0469C16.1793 24.0338 16.1841 24.0181 16.1836 24.002V22.5166C16.1805 22.4995 16.1727 22.4836 16.1611 22.4707C16.1494 22.4578 16.134 22.4481 16.1172 22.4434L13.4648 21.8467V18.9629H16.4355C16.4535 18.9612 16.4702 18.9527 16.4824 18.9395C16.4946 18.926 16.5021 18.9078 16.502 18.8896V17.6699C16.5021 17.6517 16.4946 17.6336 16.4824 17.6201C16.4702 17.6068 16.4536 17.5983 16.4355 17.5967H12.0264ZM27.6807 17.6963C27.6614 17.6963 27.6425 17.7041 27.6289 17.7178C27.6153 17.7315 27.6074 17.7502 27.6074 17.7695V30.1416C27.6072 30.1552 27.6111 30.1689 27.6182 30.1807C27.6252 30.1922 27.6354 30.2019 27.6475 30.208C27.6585 30.2143 27.6709 30.2177 27.6836 30.2178C27.6964 30.2178 27.7096 30.2144 27.7207 30.208L32.123 27.6748C32.136 27.6697 32.1471 27.6607 32.1553 27.6494C32.1633 27.638 32.1682 27.6242 32.1689 27.6104C32.1696 27.5965 32.1661 27.5823 32.1592 27.5703C32.1522 27.5583 32.1421 27.5483 32.1299 27.542V26.2158C32.13 26.2034 32.1261 26.1907 32.1201 26.1797C32.1141 26.1689 32.1053 26.1598 32.0947 26.1533C32.0841 26.1467 32.0721 26.1422 32.0596 26.1416C32.047 26.1411 32.0346 26.1446 32.0234 26.1504L29.0791 27.7607V23.7832L31.8242 23.0801C31.8399 23.0757 31.8537 23.066 31.8633 23.0527C31.8729 23.0395 31.8785 23.0231 31.8779 23.0068V21.6807C31.882 21.6714 31.8838 21.6615 31.8838 21.6514C31.8838 21.6411 31.8821 21.6304 31.8779 21.6211H31.8311L29.1064 22.2178V19.0625H32.083C32.1024 19.0625 32.1211 19.0547 32.1348 19.041C32.1484 19.0273 32.1562 19.0086 32.1562 18.9893V17.7695C32.1562 17.7502 32.1484 17.7315 32.1348 17.7178C32.1211 17.7041 32.1024 17.6963 32.083 17.6963H27.6807ZM3.93066 17.6172C3.92418 17.6341 3.92407 17.653 3.93066 17.6699V23.0869C3.93045 23.1005 3.9344 23.1143 3.94141 23.126C3.94843 23.1375 3.95867 23.1471 3.9707 23.1533L5.1709 23.8164C5.18188 23.8227 5.19439 23.8262 5.20703 23.8262C5.21965 23.8262 5.2322 23.8226 5.24316 23.8164C5.25534 23.8102 5.2664 23.7999 5.27344 23.7881C5.28021 23.7766 5.2834 23.7634 5.2832 23.75V21.2637L8.21387 22.0127V25.5068C8.20353 25.5143 8.19568 25.5245 8.19043 25.5361C8.18524 25.5477 8.18234 25.5606 8.18359 25.5732C8.18494 25.5859 8.18969 25.5991 8.19727 25.6094C8.20485 25.6197 8.21581 25.6276 8.22754 25.6328L9.44727 26.3359C9.45822 26.3422 9.47077 26.3457 9.4834 26.3457C9.49621 26.3457 9.50942 26.3423 9.52051 26.3359C9.53142 26.3288 9.54008 26.3182 9.5459 26.3066C9.55158 26.2951 9.55455 26.2823 9.55371 26.2695V17.7031C9.55371 17.6839 9.5458 17.665 9.53223 17.6514C9.51858 17.6377 9.49976 17.6299 9.48047 17.6299H8.26074C8.24144 17.6299 8.22266 17.6377 8.20898 17.6514C8.1953 17.6651 8.1875 17.6838 8.1875 17.7031V20.7266L5.25684 20.0635V17.6895C5.25679 17.6701 5.24899 17.6514 5.23535 17.6377C5.2217 17.6241 5.20283 17.6172 5.18359 17.6172H3.9834C3.96639 17.6106 3.94765 17.6105 3.93066 17.6172ZM34.4629 17.5771C34.4426 17.5804 34.4244 17.5907 34.4111 17.6064C34.3977 17.6222 34.3903 17.6423 34.3906 17.6631V26.1768C34.395 26.1862 34.4013 26.1944 34.4092 26.2012C34.4171 26.2079 34.4265 26.2129 34.4365 26.2158C34.4476 26.2222 34.4608 26.2256 34.4736 26.2256C34.4863 26.2255 34.4988 26.2222 34.5098 26.2158L35.7695 25.5V22.0195L36.5059 21.8271L38.667 23.7559C38.68 23.7666 38.6961 23.7733 38.7129 23.7734C38.7299 23.7734 38.7467 23.7667 38.7598 23.7559L39.8604 23.0938C39.8688 23.0886 39.8761 23.0811 39.8818 23.0732C39.8874 23.0653 39.8915 23.0563 39.8936 23.0469C39.8986 23.0319 39.8985 23.0158 39.8936 23.001L38.0039 21.3955L39.3301 21.0576C39.7741 20.9449 39.8474 20.7395 39.8408 20.2822V18.0811C39.8209 17.9334 39.7448 17.7988 39.6289 17.7051C39.5131 17.6115 39.3661 17.5658 39.2178 17.5771H34.4629ZM38.3154 18.9961C38.3699 18.9961 38.4224 19.0172 38.4609 19.0557C38.4994 19.0941 38.5214 19.1467 38.5215 19.2012V19.8643C38.5215 20.0101 38.5212 20.0903 38.3027 20.1367L35.7627 20.6934V18.9961H38.3154ZM41.5049 2.32031V15.0703H2.25391V2.32031H41.5049ZM38.165 4.32324C35.8908 3.44141 32.648 3.40158 30.5859 4.66797C29.7693 5.12264 29.1073 5.81132 28.6855 6.64551C28.2637 7.47979 28.1008 8.42124 28.2188 9.34863C28.3512 10.1944 28.705 10.9904 29.2441 11.6553C29.7833 12.3201 30.4889 12.8305 31.2891 13.1348C33.351 13.9502 36.2017 13.8235 38.4229 13.3926L38.4102 8.36719H34.7305V10.2637H35.8506V11.835C34.9977 11.9269 34.1353 11.864 33.3047 11.6494C32.7766 11.5049 32.2923 11.2317 31.8955 10.8545C31.4988 10.4774 31.2014 10.0081 31.0303 9.48828C30.8612 8.88833 30.8909 8.24888 31.1143 7.66699C31.3377 7.0853 31.7435 6.59131 32.2705 6.25879C33.9082 5.19154 36.4677 5.78134 38.165 6.44434V4.32324ZM19.5801 3.83203L14.7666 13.5791H17.7168L18.6914 11.6621H23.7637L24.7842 13.5791H27.7412L22.8945 3.83203H19.5801ZM4.86719 3.8252V5.87402H8.94434V13.5723H11.8359V5.87402H15.9062V3.8252H4.86719ZM22.8945 9.67969H19.4932L21.2441 6.25195L22.8945 9.67969Z" fill="#757477"/>
</svg>
