<svg width="874" height="140" viewBox="0 0 874 140" fill="none" xmlns="http://www.w3.org/2000/svg">
<path d="M466.48 87.3935C449.568 91.211 427.679 92.2258 411.926 84.9775C398.469 79.0823 390.178 65.0208 388.44 51.2731C387.387 43.3474 388.513 35.2844 391.698 27.9502C394.883 20.6161 400.003 14.2876 406.511 9.64405C422.315 -1.63906 447.346 -1.27665 464.498 6.57562V23.8023C451.474 17.8346 431.906 14.3071 419.44 23.8023C410.476 30.6882 407.695 41.5848 409.944 52.5055C411.051 56.8885 413.223 60.9319 416.259 64.2811C419.298 67.6303 423.109 70.1822 427.362 71.7134C433.677 73.6159 440.32 74.1756 446.861 73.3561V59.3431H438.283V42.4302H466.455V87.2729L466.48 87.3935ZM258.262 88.2633V17.6896H289.429V1.26024H204.963V17.6896H236.13V88.2633H258.262ZM321.201 55.9844L333.668 23.5607L347.294 55.9844H321.201ZM345.917 2.05755H320.718L285.128 88.795H308.444L315.112 71.8825H353.914L361.018 88.795H384.333L345.917 2.05755ZM551.575 39.1928H502.385L502.406 1.88843H489.19V88.5049H502.406L502.385 50.8624H551.575L551.528 88.5049H564.766V1.88843H551.528L551.575 39.1928ZM710.599 64.1025C708.81 68.4615 705.76 72.1864 701.835 74.7995C697.914 77.4122 693.301 78.7944 688.589 78.7682C673.223 78.7682 670.931 66.8811 670.931 59.7778V13.534H657.736V57.9901C657.736 87.9977 680.329 90.3171 687.263 90.3171C695.91 90.457 704.281 87.255 710.625 81.3776V88.6259H723.842V13.7272H710.625L710.599 64.1025ZM874 21.3862C873.661 20.9996 865.52 11.9393 854.986 11.9393C845.708 11.9393 836.649 20.8547 831.478 27.0882V13.2682H818.188V88.6019H831.38V43.6866C834.812 37.9364 844.283 24.8171 852.183 24.8171C858.804 24.8171 865.761 32.2828 865.834 32.3553L874 21.3862ZM611.326 11.9877C590.642 11.9877 575.082 27.4023 575.082 50.8624C575.082 67.002 586.003 90.1721 615.287 90.1721C626.313 90.3011 637.034 86.5561 645.583 79.5899L646.359 78.8647V63.4743L642.249 67.2917C642.249 67.2917 631.04 77.8258 616.205 77.8258C600.04 77.8258 588.758 68.4032 588.758 50.9834V50.8383H647.758V48.4224C647.758 29.9633 636.356 11.9877 611.326 11.9877ZM590.642 39.2654C594.024 28.707 601.563 24.4788 611.275 24.4788C627.053 24.4788 631.451 33.974 632.658 39.2654H590.642ZM771.053 11.9877C750.37 11.9877 734.81 27.4023 734.81 50.8624C734.81 67.002 745.731 90.1721 775.014 90.1721C786.041 90.3011 796.762 86.5561 805.31 79.5899L806.083 78.8647V63.4743L802.002 67.2917C802.002 67.2917 790.789 77.8258 775.954 77.8258C759.793 77.8258 748.508 68.4032 748.508 50.9834V50.8383H807.511V48.4224C807.486 29.9633 796.084 11.9877 771.053 11.9877ZM750.37 39.2654C753.751 28.707 761.291 24.4788 771.002 24.4788C786.781 24.4788 791.179 33.974 792.385 39.2654H750.37ZM240.503 129.265L238.087 127.718C236.785 126.997 235.636 126.029 234.705 124.867C234.028 123.925 233.673 122.79 233.69 121.63C233.661 120.79 233.817 119.955 234.147 119.182C234.476 118.41 234.972 117.719 235.599 117.16C236.939 116.004 238.662 115.392 240.431 115.444C242.337 115.435 244.2 116.008 245.771 117.087V120.832C245.075 120.095 244.242 119.502 243.317 119.088C242.393 118.673 241.395 118.445 240.383 118.416C239.44 118.377 238.509 118.64 237.725 119.165C237.403 119.373 237.138 119.66 236.957 119.998C236.775 120.336 236.682 120.714 236.686 121.098C236.694 121.823 236.969 122.52 237.459 123.055C238.157 123.816 238.973 124.461 239.875 124.964L242.291 126.486C243.518 127.079 244.56 127.995 245.306 129.136C246.051 130.276 246.47 131.599 246.519 132.961C246.552 133.807 246.403 134.65 246.082 135.434C245.761 136.218 245.276 136.923 244.659 137.503C243.337 138.691 241.603 139.315 239.827 139.243C237.562 139.252 235.359 138.504 233.569 137.117V132.913C234.262 133.938 235.188 134.783 236.272 135.38C237.356 135.976 238.566 136.307 239.803 136.343C240.749 136.379 241.676 136.07 242.412 135.474C242.744 135.212 243.01 134.878 243.19 134.497C243.37 134.115 243.46 133.697 243.451 133.275C243.572 131.874 242.533 130.521 240.503 129.265ZM283.679 115.782H286.892L277.542 139.098H276.769L269.206 120.204L261.547 139.098H260.774L251.472 115.782H254.831L261.209 131.777L267.66 115.782H270.825L277.228 131.801L283.679 115.782ZM293.416 115.782H296.75V138.977H293.416V115.782ZM311.464 129.265L309.048 127.718C307.746 126.996 306.597 126.027 305.665 124.867C304.997 123.922 304.65 122.787 304.674 121.63C304.645 120.79 304.801 119.955 305.131 119.182C305.461 118.41 305.957 117.719 306.583 117.16C307.924 116.006 309.647 115.395 311.416 115.444C313.321 115.434 315.185 116.007 316.755 117.087V120.832C316.061 120.094 315.227 119.5 314.302 119.086C313.378 118.671 312.38 118.444 311.367 118.416C310.424 118.377 309.493 118.64 308.709 119.165C308.387 119.373 308.123 119.66 307.941 119.998C307.759 120.336 307.666 120.714 307.671 121.098C307.679 121.823 307.954 122.52 308.444 123.055C309.144 123.814 309.959 124.458 310.86 124.964L313.276 126.486C314.503 127.079 315.545 127.995 316.29 129.136C317.035 130.276 317.455 131.599 317.504 132.961C317.535 133.807 317.385 134.65 317.064 135.433C316.744 136.217 316.259 136.922 315.644 137.503C314.322 138.691 312.587 139.315 310.811 139.243C308.547 139.254 306.343 138.505 304.554 137.117V132.913C305.247 133.938 306.173 134.783 307.257 135.38C308.341 135.976 309.551 136.307 310.787 136.343C311.726 136.375 312.644 136.066 313.372 135.474C313.704 135.212 313.97 134.878 314.15 134.497C314.33 134.115 314.42 133.697 314.411 133.275C314.492 131.858 313.509 130.521 311.464 129.265ZM330.841 129.265L328.425 127.718C327.123 126.997 325.974 126.028 325.042 124.867C324.366 123.925 324.01 122.79 324.027 121.63C324 120.79 324.156 119.955 324.486 119.183C324.816 118.411 325.311 117.72 325.936 117.16C327.277 116.006 329 115.395 330.768 115.444C332.666 115.437 334.521 116.01 336.084 117.087V120.832C335.39 120.093 334.557 119.499 333.632 119.084C332.707 118.669 331.709 118.442 330.696 118.416C329.753 118.379 328.823 118.641 328.038 119.165C327.725 119.382 327.467 119.671 327.287 120.007C327.106 120.343 327.007 120.717 326.999 121.098C327.007 121.823 327.283 122.52 327.772 123.055C328.471 123.816 329.286 124.461 330.188 124.964L332.605 126.486C333.833 127.076 334.877 127.992 335.622 129.133C336.368 130.275 336.786 131.599 336.833 132.961C336.864 133.807 336.714 134.65 336.393 135.433C336.072 136.217 335.588 136.922 334.972 137.503C333.652 138.693 331.916 139.318 330.14 139.243C327.875 139.252 325.673 138.504 323.882 137.117V132.913C324.575 133.938 325.502 134.783 326.585 135.38C327.669 135.976 328.879 136.307 330.116 136.343C331.054 136.375 331.973 136.066 332.701 135.474C333.032 135.212 333.299 134.878 333.479 134.497C333.659 134.115 333.748 133.697 333.74 133.275C333.909 131.874 332.798 130.521 330.841 129.265ZM365.148 115.613H367.564L377.953 138.929H374.549L371.456 132.14H361.573L358.674 139.001H355.267L365.148 115.613ZM369.98 129.12L366.212 120.711L362.709 129.12H369.98ZM396.173 115.782H399.507L389.672 139.098H388.899L378.969 115.782H382.304L389.26 132.091L396.173 115.782ZM410.548 115.613H412.964L423.353 138.929H419.779L416.685 132.067H406.802L403.927 138.929H400.52L410.548 115.613ZM415.38 129.12L411.609 120.711L408.107 129.12H415.38ZM448.071 115.782H451.186V138.977H448.337L432.824 121.098V138.977H429.709V115.782H432.391L448.02 133.807L448.071 115.782ZM458.048 115.782H477.376V118.73H469.308V138.977H465.974V118.755H458.022L458.048 115.782ZM477.401 129.868H485.662V133.082H477.401V129.868ZM505.934 127.549H513.739V137.358C511.061 138.56 508.168 139.193 505.234 139.219C503.554 139.301 501.874 139.047 500.293 138.47C498.711 137.893 497.261 137.006 496.029 135.86C494.911 134.789 494.029 133.496 493.439 132.065C492.848 130.635 492.56 129.097 492.597 127.549C492.557 125.934 492.852 124.327 493.468 122.834C494.084 121.34 495.005 119.991 496.175 118.875C497.363 117.731 498.766 116.836 500.307 116.242C501.845 115.649 503.489 115.369 505.136 115.42C506.389 115.413 507.639 115.558 508.856 115.855C510.38 116.258 511.866 116.783 513.302 117.426V120.808C510.824 119.278 507.978 118.443 505.063 118.392C503.882 118.376 502.705 118.596 501.608 119.041C500.512 119.485 499.513 120.144 498.675 120.978C497.833 121.813 497.17 122.808 496.718 123.903C496.27 124.998 496.044 126.172 496.051 127.356C496.011 128.557 496.223 129.754 496.674 130.869C497.123 131.984 497.8 132.993 498.66 133.831C499.564 134.655 500.617 135.293 501.765 135.708C502.917 136.123 504.134 136.306 505.354 136.247C507.005 136.2 508.634 135.89 510.186 135.329H510.5V130.497H506.032L505.934 127.549ZM528.501 115.613H530.917L541.306 138.929H537.899L534.805 132.067H524.926L522.026 138.929H518.619L528.501 115.613ZM533.333 129.12L529.565 120.711L526.085 129.168L533.333 129.12ZM546.284 139.001V115.807H552.081C554.089 115.698 556.072 116.316 557.664 117.547C558.356 118.136 558.907 118.88 559.264 119.719C559.621 120.558 559.774 121.469 559.716 122.378C559.767 123.63 559.41 124.865 558.699 125.897C557.992 126.929 556.964 127.704 555.776 128.105C556.604 128.665 557.343 129.34 557.977 130.11C559.074 131.507 560.073 132.976 560.973 134.507C561.778 135.828 562.423 136.819 562.904 137.479L564.139 139.146H560.175L559.162 137.624L558.969 137.334L558.316 136.416L557.278 134.725L556.166 132.913C555.598 132.108 554.968 131.348 554.279 130.642C553.823 130.162 553.302 129.747 552.734 129.409C551.969 129.102 551.141 128.978 550.318 129.047H549.447V139.122L546.284 139.001ZM550.609 118.609H549.618V125.858H550.875C552.034 125.932 553.2 125.785 554.304 125.423C554.909 125.147 555.416 124.692 555.755 124.118C556.115 123.512 556.298 122.818 556.287 122.113C556.294 121.402 556.094 120.704 555.707 120.108C555.321 119.519 554.752 119.077 554.086 118.851C552.945 118.591 551.775 118.501 550.609 118.585V118.609ZM569.165 139.001V115.807H576.992C579.572 115.69 582.144 116.178 584.506 117.232C586.342 118.172 587.869 119.624 588.904 121.412C589.99 123.229 590.558 125.31 590.544 127.428C590.544 129.758 589.833 132.032 588.511 133.948C587.184 135.864 585.307 137.332 583.128 138.156C582.349 138.466 581.54 138.693 580.712 138.832C579.317 138.981 577.91 139.037 576.507 139.001H569.165ZM576.653 118.755H572.499V136.054H576.821C578.129 136.091 579.433 135.978 580.712 135.716C581.554 135.54 582.367 135.248 583.128 134.846C583.744 134.495 584.313 134.064 584.819 133.565C585.628 132.731 586.259 131.743 586.674 130.659C587.089 129.575 587.279 128.419 587.235 127.259C587.29 126.127 587.104 124.996 586.689 123.942C586.269 122.888 585.635 121.935 584.819 121.146C584.185 120.55 583.46 120.061 582.669 119.697C581.94 119.346 581.168 119.093 580.373 118.948C579.142 118.784 577.896 118.719 576.653 118.755ZM598.568 115.782H611.712V118.73H601.877V125.809H611.348V128.757H601.877V136.005H612V138.953H598.568V115.782ZM638.335 129.265L635.919 127.718C634.618 126.994 633.47 126.026 632.537 124.867C631.86 123.925 631.506 122.79 631.524 121.63C631.495 120.79 631.652 119.955 631.98 119.183C632.311 118.411 632.807 117.72 633.43 117.16C634.771 116.006 636.495 115.395 638.262 115.444C640.168 115.435 642.034 116.008 643.604 117.087V120.832C642.908 120.094 642.074 119.5 641.152 119.086C640.226 118.671 639.228 118.444 638.215 118.416C637.264 118.374 636.324 118.636 635.533 119.165C635.219 119.382 634.961 119.671 634.782 120.007C634.6 120.343 634.502 120.717 634.494 121.098C634.502 121.824 634.775 122.521 635.267 123.055C635.963 123.818 636.779 124.463 637.683 124.964L640.099 126.486C641.327 127.076 642.373 127.992 643.116 129.133C643.863 130.275 644.282 131.599 644.329 132.961C644.362 133.807 644.213 134.65 643.892 135.434C643.571 136.218 643.083 136.923 642.467 137.503C641.145 138.691 639.41 139.315 637.635 139.243C635.369 139.254 633.168 138.505 631.379 137.117V132.913C632.071 133.938 632.997 134.783 634.079 135.38C635.165 135.976 636.375 136.307 637.61 136.343C638.557 136.379 639.483 136.07 640.219 135.474C640.551 135.212 640.817 134.878 640.999 134.497C641.177 134.115 641.268 133.697 641.261 133.275C641.356 131.858 640.383 130.521 638.335 129.265ZM651.985 115.782H655.32V138.977H651.985V115.782ZM682.693 115.782H685.835V138.977H682.985L667.472 121.098V138.977H664.357V115.782H667.039L682.672 133.807L682.693 115.782ZM714.538 133.613V137.358C711.948 138.735 709.043 139.426 706.106 139.364C703.807 139.436 701.529 138.894 699.511 137.793C697.725 136.77 696.249 135.284 695.236 133.493C694.179 131.69 693.629 129.637 693.64 127.549C693.607 125.954 693.91 124.371 694.533 122.901C695.152 121.432 696.074 120.109 697.24 119.02C698.421 117.885 699.813 116.994 701.34 116.401C702.867 115.808 704.496 115.524 706.132 115.565C708.938 115.655 711.696 116.304 714.25 117.474V121.05C711.86 119.559 709.116 118.726 706.299 118.634C705.097 118.583 703.894 118.769 702.761 119.184C701.631 119.598 700.589 120.233 699.704 121.05C698.844 121.861 698.166 122.843 697.714 123.934C697.259 125.025 697.04 126.199 697.073 127.38C697.033 128.55 697.244 129.715 697.689 130.798C698.137 131.881 698.807 132.857 699.656 133.662C700.545 134.481 701.588 135.116 702.725 135.53C703.861 135.945 705.068 136.131 706.277 136.078C709.211 136.08 712.082 135.223 714.538 133.613ZM722.537 115.782H735.681V118.73H725.871V125.809H735.342V128.757H725.871V136.005H735.994V138.953H722.537V115.782ZM760.927 115.782H764.261V138.977H760.927V115.782ZM776.512 121.968C776.501 121.093 776.68 120.226 777.033 119.425C777.39 118.625 777.911 117.91 778.567 117.329C779.919 116.065 781.716 115.38 783.567 115.42C785.363 115.395 787.094 116.071 788.399 117.305C789.076 117.947 789.601 118.734 789.929 119.608C790.261 120.481 790.388 121.418 790.304 122.348C790.221 123.277 789.926 124.176 789.445 124.976C788.967 125.777 788.311 126.458 787.528 126.969C788.53 127.492 789.361 128.286 789.929 129.261C790.498 130.235 790.778 131.35 790.742 132.478C790.775 133.389 790.603 134.296 790.239 135.132C789.874 135.968 789.328 136.712 788.639 137.31C787.152 138.539 785.279 139.212 783.348 139.212C781.417 139.212 779.547 138.539 778.057 137.31C777.365 136.715 776.811 135.972 776.439 135.137C776.067 134.301 775.885 133.392 775.907 132.478C775.885 131.354 776.18 130.247 776.76 129.281C777.335 128.316 778.17 127.532 779.168 127.017C778.316 126.358 777.601 125.537 777.066 124.601C776.676 123.78 776.483 122.877 776.512 121.968ZM787.48 132.743V132.526C787.495 132.034 787.4 131.545 787.207 131.094C787.01 130.643 786.715 130.241 786.343 129.917C785.516 129.216 784.456 128.854 783.374 128.902C782.306 128.856 781.26 129.219 780.451 129.917C780.079 130.247 779.788 130.653 779.591 131.108C779.394 131.563 779.3 132.055 779.314 132.55C779.3 133.048 779.398 133.542 779.598 133.997C779.799 134.453 780.098 134.858 780.473 135.184C781.307 135.89 782.379 136.253 783.468 136.199C784.51 136.239 785.531 135.904 786.343 135.256C786.722 134.959 787.021 134.576 787.218 134.138C787.418 133.701 787.506 133.223 787.48 132.743ZM787.192 122.089C787.192 121.636 787.101 121.188 786.923 120.773C786.744 120.358 786.482 119.983 786.15 119.672C785.414 119.045 784.474 118.7 783.505 118.7C782.535 118.7 781.599 119.045 780.859 119.672C780.528 119.981 780.265 120.355 780.087 120.771C779.908 121.187 779.817 121.636 779.821 122.089C779.828 122.545 779.926 122.994 780.112 123.41C780.302 123.826 780.571 124.199 780.91 124.505C781.606 125.183 782.546 125.557 783.519 125.544C783.997 125.552 784.474 125.465 784.915 125.286C785.36 125.108 785.764 124.842 786.103 124.505C786.438 124.197 786.704 123.824 786.89 123.408C787.072 122.992 787.167 122.543 787.167 122.089H787.192ZM806.134 115.613L806.473 115.372L808.477 117.909C806.83 118.939 805.343 120.2 804.053 121.654C802.851 123.076 801.933 124.716 801.349 126.486C802.475 125.87 803.736 125.538 805.023 125.52C805.886 125.505 806.743 125.673 807.537 126.01C808.331 126.346 809.046 126.846 809.636 127.476C810.259 128.113 810.751 128.869 811.072 129.7C811.396 130.53 811.549 131.418 811.52 132.309C811.524 133.211 811.341 134.104 810.988 134.935C810.634 135.765 810.117 136.515 809.468 137.141C808.823 137.798 808.051 138.317 807.202 138.666C806.349 139.015 805.434 139.187 804.512 139.17C803.507 139.192 802.508 138.986 801.594 138.567C800.675 138.149 799.866 137.529 799.221 136.754C797.818 135.064 797.093 132.91 797.192 130.714C797.199 128.814 797.552 126.931 798.234 125.157C798.941 123.278 799.943 121.524 801.204 119.963C802.639 118.293 804.297 116.829 806.134 115.613ZM800.65 129.917C800.548 130.491 800.5 131.073 800.504 131.656C800.453 132.834 800.861 133.985 801.637 134.87C802.005 135.281 802.457 135.607 802.96 135.824C803.467 136.041 804.013 136.144 804.563 136.126C805.052 136.139 805.54 136.05 805.996 135.862C806.447 135.675 806.859 135.395 807.194 135.039C807.541 134.68 807.81 134.255 807.989 133.79C808.167 133.326 808.251 132.83 808.237 132.333C808.255 131.831 808.171 131.33 807.982 130.863C807.796 130.397 807.511 129.975 807.147 129.627C806.345 128.914 805.296 128.541 804.225 128.588C803.649 128.583 803.077 128.681 802.534 128.878C801.874 129.168 801.247 129.532 800.672 129.965L800.65 129.917ZM825.17 115.444C826.271 115.479 827.338 115.809 828.268 116.4C829.193 116.991 829.944 117.821 830.44 118.803C831.806 121.447 832.517 124.379 832.517 127.356C832.517 130.332 831.806 133.265 830.44 135.909C829.926 136.902 829.15 137.736 828.195 138.318C827.24 138.9 826.143 139.208 825.028 139.208C823.909 139.208 822.813 138.9 821.858 138.318C820.903 137.736 820.127 136.902 819.613 135.909C818.145 133.289 817.441 130.308 817.583 127.307C817.456 124.299 818.185 121.315 819.686 118.706C820.229 117.724 821.023 116.904 821.985 116.33C822.951 115.757 824.052 115.451 825.17 115.444ZM825.17 118.585H825.003C824.314 118.634 823.654 118.892 823.115 119.323C822.576 119.755 822.182 120.34 821.982 121.001C821.155 123.022 820.772 125.198 820.87 127.38C820.772 129.591 821.144 131.798 821.96 133.855C822.153 134.52 822.547 135.109 823.086 135.541C823.625 135.974 824.288 136.229 824.977 136.271C825.673 136.227 826.336 135.972 826.879 135.54C827.422 135.108 827.823 134.52 828.024 133.855C828.854 131.835 829.233 129.658 829.135 127.476C829.226 125.276 828.865 123.08 828.071 121.025C827.364 119.415 826.406 118.601 825.196 118.585H825.17Z" fill="#696969"/>
<path d="M160.049 93.4817L80.2937 139.242L0.514404 93.4817V1.26001H160.024L160.049 93.4817ZM4.54956 5.31958V91.1145L80.2214 134.628L80.2458 134.653H80.366L155.893 91.1633L155.966 91.1145V5.36841L4.69507 5.31958H4.54956ZM151.76 59.8752V88.7717L80.2917 129.845L8.72729 88.7473V59.8752H151.76ZM68.8376 65.1418C68.7675 65.142 68.699 65.1702 68.6492 65.22C68.6 65.2698 68.5721 65.3375 68.572 65.4075V116.001C68.5711 116.051 68.5835 116.1 68.6091 116.143C68.6346 116.185 68.6723 116.22 68.7166 116.242L80.1443 122.79C80.1844 122.813 80.2305 122.825 80.2771 122.825C80.3234 122.825 80.3697 122.813 80.4099 122.79L91.8142 116.242C91.8504 116.219 91.88 116.186 91.9011 116.149C91.9222 116.111 91.9341 116.068 91.9353 116.025V65.4075C91.9352 65.3373 91.9069 65.2698 91.8572 65.22C91.8073 65.1701 91.7393 65.1418 91.6687 65.1418H86.5232C86.4527 65.142 86.3845 65.1702 86.3347 65.22C86.2853 65.2698 86.2577 65.3375 86.2576 65.4075V112.933L80.2898 116.194L74.2732 112.933V65.4075C74.2731 65.3374 74.2454 65.2698 74.196 65.22C74.1461 65.1701 74.0779 65.1418 74.0076 65.1418H68.8376ZM44.3386 65.0217C44.2727 65.0277 44.2104 65.0579 44.1658 65.1067C44.1216 65.1558 44.0961 65.2213 44.0964 65.2874V101.77C44.0933 101.817 44.1027 101.865 44.1238 101.907C44.1449 101.95 44.178 101.986 44.2175 102.012L60.2117 111.386C60.2483 111.407 60.2907 111.418 60.3328 111.418C60.375 111.418 60.4173 111.407 60.4539 111.386C60.4932 111.36 60.5255 111.324 60.5466 111.281C60.5676 111.239 60.5771 111.192 60.574 111.145V105.659C60.575 105.61 60.562 105.561 60.5369 105.519C60.511 105.476 60.4735 105.441 60.4294 105.418L49.4841 99.4504V86.2102L59.2937 88.6262C59.3508 88.6099 59.4014 88.5751 59.4363 88.5276C59.4711 88.4796 59.4891 88.4202 59.4871 88.3606V82.9485C59.4757 82.886 59.4465 82.8284 59.4041 82.7815C59.3615 82.7346 59.3069 82.7 59.2458 82.6829L49.5808 80.509V69.9983H60.405C60.4711 69.9921 60.5331 69.9612 60.5779 69.9124C60.6221 69.8633 60.6464 69.7987 60.6462 69.7327V65.2874C60.6466 65.2211 60.6222 65.1559 60.5779 65.1067C60.5331 65.0577 60.4712 65.0276 60.405 65.0217H44.3386ZM101.382 65.384C101.312 65.3842 101.243 65.4124 101.194 65.4622C101.145 65.512 101.116 65.5794 101.116 65.6497V110.734C101.115 110.783 101.128 110.832 101.154 110.875C101.18 110.918 101.217 110.952 101.261 110.975C101.302 110.998 101.348 111.011 101.394 111.011C101.441 111.011 101.487 110.998 101.527 110.975L117.569 101.745C117.616 101.727 117.658 101.695 117.688 101.654C117.718 101.612 117.734 101.562 117.737 101.512C117.74 101.461 117.727 101.41 117.702 101.366C117.676 101.322 117.639 101.286 117.594 101.263V96.4309C117.594 96.3852 117.583 96.3394 117.561 96.2991C117.539 96.259 117.507 96.2245 117.469 96.2004C117.43 96.1762 117.385 96.1616 117.34 96.1594C117.294 96.1577 117.248 96.1678 117.208 96.1887L106.48 102.06V87.5637L116.482 85.0022C116.539 84.9862 116.59 84.9507 116.625 84.9026C116.66 84.8547 116.678 84.7957 116.676 84.7366V79.9045C116.691 79.8706 116.699 79.8333 116.699 79.7961C116.699 79.7587 116.691 79.7206 116.676 79.6868H116.507L106.576 81.8616V70.3616H117.425C117.495 70.3616 117.562 70.3328 117.612 70.2834C117.662 70.2337 117.69 70.1654 117.69 70.095V65.6497C117.69 65.5791 117.662 65.512 117.612 65.4622C117.562 65.4123 117.495 65.384 117.425 65.384H101.382ZM15.031 65.094C14.9689 65.0697 14.8997 65.0696 14.8376 65.094C14.8137 65.1558 14.8135 65.2253 14.8376 65.2874V85.0266C14.8369 85.076 14.8502 85.1258 14.8757 85.1682C14.9013 85.2106 14.939 85.2459 14.9832 85.2688L19.3562 87.6838C19.3964 87.707 19.4426 87.7199 19.489 87.72C19.5353 87.7199 19.5817 87.7069 19.6218 87.6838C19.6657 87.6614 19.7027 87.6266 19.7283 87.5842C19.7538 87.5418 19.7671 87.4923 19.7664 87.4426V78.3821L30.446 81.1125V93.845C30.4083 93.8723 30.3772 93.91 30.3582 93.9524C30.3393 93.9948 30.3318 94.0428 30.3367 94.0891C30.3417 94.1351 30.359 94.1807 30.3865 94.218C30.414 94.2555 30.4514 94.2851 30.4939 94.304L34.9392 96.8655C34.9793 96.8886 35.0257 96.9005 35.072 96.9006C35.1183 96.9006 35.1647 96.8884 35.2048 96.8655C35.2445 96.8397 35.2773 96.803 35.2986 96.761C35.3196 96.7187 35.329 96.6713 35.3259 96.6243V65.4075C35.3258 65.3373 35.2975 65.2698 35.2478 65.22C35.198 65.1703 35.1306 65.1418 35.0603 65.1418H30.615C30.5447 65.142 30.4762 65.1702 30.4265 65.22C30.3771 65.2698 30.3495 65.3376 30.3494 65.4075V76.425L19.6697 74.009V65.3596C19.6697 65.289 19.6413 65.222 19.5916 65.1721C19.5417 65.1223 19.4745 65.094 19.4041 65.094H15.031ZM143.422 64.9495H126.098C126.024 64.9612 125.956 64.9991 125.907 65.0569C125.859 65.1143 125.832 65.1876 125.833 65.2629V96.2854C125.849 96.3202 125.872 96.3521 125.901 96.3772C125.93 96.4018 125.965 96.4204 126.002 96.4309C126.042 96.454 126.088 96.4659 126.135 96.4661C126.181 96.4661 126.227 96.4539 126.267 96.4309L130.858 93.8215V81.137L133.54 80.4358L141.417 87.467C141.464 87.506 141.525 87.5275 141.586 87.5276C141.647 87.5275 141.707 87.5059 141.755 87.467L145.765 85.051C145.796 85.0326 145.822 85.0072 145.843 84.9788C145.863 84.9499 145.879 84.9164 145.886 84.8821C145.905 84.8272 145.905 84.7667 145.886 84.7122L139.001 78.8655L143.833 77.6331C145.451 77.2225 145.717 76.4732 145.693 74.8069V66.7854C145.621 66.2472 145.345 65.7567 144.923 65.4153C144.5 65.0739 143.963 64.9076 143.422 64.9495ZM140.135 70.1194C140.334 70.1194 140.525 70.1985 140.666 70.3391C140.806 70.4794 140.885 70.67 140.885 70.8684V73.2844C140.885 73.8156 140.885 74.1057 140.088 74.2747L130.834 76.3049V70.1194H140.135ZM151.76 9.35474V55.8157H8.72729V9.35474H151.76ZM139.586 16.6506C131.299 13.4374 119.484 13.2928 111.969 17.9075C108.993 19.5643 106.581 22.0747 105.044 25.1145C103.507 28.1545 102.915 31.5859 103.344 34.9651C103.827 38.0465 105.116 40.9458 107.08 43.3684C109.045 45.7911 111.615 47.6521 114.531 48.761C122.045 51.7326 132.434 51.2729 140.528 49.7024L140.479 31.3889H127.07V38.2991H131.154V44.0247C128.046 44.3595 124.902 44.1308 121.876 43.3489C119.952 42.8223 118.188 41.8275 116.742 40.4534C115.296 39.0789 114.212 37.3667 113.589 35.4719C112.973 33.2861 113.081 30.9592 113.894 28.8391C114.708 26.7191 116.186 24.9183 118.106 23.7063C124.074 19.8165 133.4 21.9661 139.586 24.3821V16.6506ZM71.863 14.8625L54.322 50.3792H65.074L68.6257 43.3967H87.1082L90.8289 50.3792H101.605L83.9431 14.8625H71.863ZM18.2498 14.8391V22.3049H33.1091V50.3557H43.6433V22.3049H58.4773V14.8391H18.2498ZM83.9431 36.1731H71.5486L77.9275 23.6819L83.9431 36.1731Z" fill="#696969"/>
</svg>
