<svg width="777" height="253" viewBox="0 0 777 253" fill="none" xmlns="http://www.w3.org/2000/svg">
<path d="M376.025 0.86696C383.076 3.18208 389.993 5.89625 397.022 8.2841C404.151 6.00116 411.34 3.29986 418.301 0.550293C412.963 13.1396 406.696 25.642 401.963 38.4489C401.46 39.8095 400.956 41.0697 401.601 42.4786C402.164 43.1248 402.647 43.5187 403.51 43.6867C404.192 43.8193 404.873 43.8303 405.53 43.5754C411.126 41.398 416.695 38.5493 422.254 36.184C427.104 34.1199 439.824 29.4774 443.73 26.7851C444.017 30.1822 438.122 43.9262 436.612 48.0254C438.044 51.8698 444.307 66.4003 443.677 69.3468C442.725 68.2205 406.744 52.5134 404.185 52.4059C402.793 52.348 402.298 52.7046 401.321 53.5696C400.866 57.3322 415.737 89.3475 418.152 95.1974C411.109 92.6538 404.051 90.1527 396.977 87.6947C389.867 89.7646 382.799 92.7021 375.817 95.2206C378.31 89.1859 392.629 58.2198 392.736 54.5743C392.273 53.4763 392.121 53.2871 391.173 52.5643C390.267 52.3474 389.542 52.292 388.637 52.552C384.249 53.8116 379.821 56.1795 375.61 57.9984L349.616 69.2792C352.574 62.3879 354.817 54.9856 357.354 47.9154C354.523 41.017 352.246 33.7614 349.681 26.751C355.722 29.3216 385.905 43.4074 390.216 43.3849C391.395 43.3784 391.747 43.1461 392.54 42.3686C392.799 41.2789 392.664 40.392 392.341 39.3435C391.27 35.866 389.462 32.431 388.002 29.0867C383.95 19.8102 379.328 10.4203 376.025 0.86696Z" fill="#696969"/>
<path d="M441.183 125.613C446.042 125.123 450.77 125.994 454.736 128.983C460.88 133.613 463.657 142.08 464.701 149.441C466.133 159.544 464.765 172.495 458.384 180.836C455.147 185.066 450.99 187.236 445.763 187.89C442.458 188.711 437.682 187.393 434.837 185.661C428.902 182.047 425.844 175.25 424.247 168.742C421.581 157.884 422.351 144.193 428.323 134.482C431.489 129.335 435.477 127.004 441.183 125.613ZM445.356 177C448.341 176.593 450.449 175.258 452.263 172.847C456.603 167.078 457.065 157.642 456.02 150.714C455.327 146.12 453.754 141.074 449.83 138.229C447.213 136.332 444.795 136.191 441.665 136.479C438.183 137.609 436.067 139.44 434.367 142.707C430.771 149.621 430.736 160.026 433.07 167.357C434.112 170.627 436.115 174.708 439.357 176.306C440.791 177.013 443.555 177.564 445.101 177.105C445.189 177.079 445.271 177.035 445.356 177Z" fill="#696969"/>
<path d="M280.736 125.545C284.921 125.309 288.802 125.93 292.405 128.177C298.233 131.811 301.161 138.679 302.684 145.121C305.228 155.877 304.431 169.465 298.433 179.02C295.257 184.081 291.141 186.585 285.445 187.917C281.06 188.385 276.525 187.518 272.834 185.037C266.723 180.931 263.814 173.22 262.516 166.239C260.571 155.776 261.63 142.318 267.89 133.366C271.17 128.675 275.213 126.542 280.736 125.545ZM284.184 177.209C287.917 176.207 290.222 174.529 292.178 171.142C296.035 164.463 296.113 154.009 294.021 146.714C292.94 142.944 290.945 139.306 287.37 137.404C285.478 136.397 283.323 136.226 281.213 136.382C277.919 137.132 275.743 138.623 273.909 141.496C269.836 147.877 269.593 157.961 271.237 165.186C272.161 169.25 273.986 173.431 277.647 175.732C279.597 176.957 281.907 177.362 284.184 177.209Z" fill="#696969"/>
<path d="M218.8 126.548C226.158 126.444 233.648 126.112 241 126.363C244.641 126.487 248.046 127.306 250.581 130.099C254.074 133.949 254.58 140.261 254.235 145.248C253.872 150.504 251.895 153.971 247.946 157.348C256.895 164.742 250.09 174.412 254.34 183.137C254.877 184.24 254.981 184.78 254.594 185.908C251.578 186.52 248.001 186.165 244.91 186.14C244.359 184.065 244.105 181.95 243.818 179.827C243.671 175.915 245.062 167.655 242.278 164.704C239.64 161.91 231.617 162.86 227.975 162.763C227.829 170.541 227.946 178.333 227.847 186.113C224.825 186.151 221.8 186.126 218.778 186.124L218.8 126.548ZM227.957 152.333C232.601 152.319 240.172 153.521 243.786 150.223C245.465 147.368 246.223 144.141 245.355 140.863C244.998 139.516 244.157 138.412 242.907 137.77C239.597 136.069 232.043 137.258 227.973 136.892L227.957 152.333Z" fill="#696969"/>
<path d="M476.497 126.429L481.709 126.509C481.928 126.729 482.133 126.963 482.321 127.211C483.905 129.271 497.729 161.597 498.977 165.533C499.207 166.259 499.205 166.954 499.083 167.699C499.126 167.611 499.166 167.521 499.211 167.435C499.441 167.001 499.648 166.607 499.775 166.129C500.446 163.578 500.211 132.301 499.856 128.412C499.791 127.709 499.565 127.133 499.204 126.528C502.187 126.443 505.187 126.521 508.173 126.538C508.605 127.232 508.824 127.884 508.883 128.694C509.6 138.462 508.967 148.776 508.958 158.609C508.951 167.52 509.713 177.191 508.66 186.022C507.533 186.428 505.165 186.141 503.895 186.154L499.566 186.127C499.356 183.298 485.323 150.901 482.753 146.249C482.292 145.414 481.633 144.736 480.937 144.094C481.341 144.841 481.848 145.694 482.018 146.531C482.817 150.478 482.644 179.444 482.208 184.389C482.151 185.035 481.957 185.534 481.62 186.088L472.225 186.209C472.636 185.559 472.86 184.928 472.912 184.164C473.614 173.827 472.969 162.988 472.963 152.604C472.959 144.876 473.756 133.94 472.619 126.553L476.497 126.429Z" fill="#696969"/>
<path d="M638.484 126.83C641.387 126.225 644.528 126.489 647.476 126.548C647.707 126.74 647.785 126.783 647.991 127.062C649.857 129.629 663.444 161.45 664.615 165.232C664.899 166.148 664.757 167.052 664.57 167.973C664.757 167.588 664.918 167.198 665.085 166.807C665.233 166.466 665.375 166.147 665.471 165.786C666.186 163.218 665.948 132.452 665.619 128.476C665.562 127.74 665.375 127.195 665.008 126.552C668.091 126.451 671.2 126.521 674.289 126.526C674.772 127.368 674.765 128.265 674.791 129.212C674.913 134.299 675.19 184.22 674.669 185.308C674.559 185.537 674.109 185.899 673.916 186.1C671.019 186.228 668.072 186.131 665.169 186.136C665.201 185.942 665.278 185.612 665.272 185.396C665.188 183.424 650.629 149.922 648.698 146.425C648.229 145.572 647.553 144.876 646.819 144.251C647.102 144.807 647.405 145.376 647.624 145.962C648.634 148.607 648.486 183.695 647.392 186.12L638.394 186.136C638.51 185.947 638.619 185.801 638.697 185.595C639.289 184.036 639.205 128.558 638.484 126.83Z" fill="#696969"/>
<path d="M312.021 126.53C314.967 126.418 317.943 126.527 320.892 126.559C323.719 132.271 326.083 138.325 328.627 144.175C332.115 152.193 335.77 160.181 338.945 168.329C338.152 154.493 338.672 140.4 338.718 126.534C341.741 126.454 344.783 126.524 347.808 126.528C347.5 146.384 347.985 166.263 347.75 186.124L338.773 186.137C333.179 172.012 326.704 158.206 320.951 144.137C321.225 158.115 321.014 172.132 320.986 186.113L312.017 186.13L312.021 126.53Z" fill="#696969"/>
<path d="M767.287 126.531C770.382 126.461 773.433 126.472 776.529 126.655C776.684 126.887 776.722 126.92 776.819 127.228C777.05 127.97 777.025 177.771 776.935 182.917C776.915 183.875 776.735 184.684 776.355 185.563L776.046 185.915C773.517 186.548 770.151 186.173 767.525 186.147C767.551 185.972 767.602 185.693 767.589 185.502C767.473 183.585 752.876 149.915 750.926 146.255C750.514 145.489 749.954 144.872 749.297 144.317C749.613 144.862 749.889 145.436 750.063 146.047C750.816 148.765 750.572 180.033 750.218 184.171C750.153 184.884 749.947 185.484 749.619 186.117L740.576 186.139C740.737 185.901 740.892 185.649 740.988 185.378C741.69 183.436 741.567 134.544 741.201 128.7C741.162 128.024 740.949 127.438 740.653 126.831C743.55 126.224 746.671 126.494 749.606 126.559C749.825 126.738 750.031 126.925 750.205 127.141C751.917 129.224 765.311 160.49 766.868 165.127C767.177 166.064 767.19 166.942 767.087 167.914C767.409 167.404 767.718 166.846 767.853 166.251C768.477 163.485 768.207 132.222 767.866 128.237C767.808 127.572 767.641 127.101 767.287 126.531Z" fill="#696969"/>
<path d="M605.933 126.83C609.186 126.087 612.999 126.49 616.337 126.543C616.597 126.815 616.817 127.075 616.994 127.41C618.699 130.653 620.772 141.496 621.847 145.75C625.065 158.441 628.914 171.272 631.475 184.1C631.623 184.839 631.617 185.365 631.405 186.093L622.226 186.163C623.031 184.022 620.617 176.831 619.71 174.576C618.603 173.946 616.974 174.174 615.725 174.176L602.959 174.179C603.011 174.336 603.109 174.598 603.129 174.777C603.384 177.09 601.233 184.461 599.716 186.132L590.45 186.097C590.659 185.9 590.667 185.911 590.854 185.629C591.888 184.067 606.218 128.128 605.933 126.83ZM605.632 163.908L612.105 163.958L617.213 163.944C617.045 161.179 612.991 143.197 611.679 141.825L611.14 141.713C611.293 145.09 607.59 161.419 605.632 163.908Z" fill="#696969"/>
<path d="M53.1769 126.542C56.6357 126.373 60.1487 126.517 63.6133 126.544L78.7005 186.092L69.4201 186.142C68.6806 183.325 68.0807 176.594 66.2071 174.594C65.7572 174.113 65.0557 174.227 64.4191 174.173L50.1647 174.217C49.0358 178.152 48.1077 182.164 47.0933 186.131L37.7743 186.096C43.5257 166.47 47.8799 146.313 53.1769 126.542ZM52.9716 163.938L58.5866 163.957L64.2447 163.98C63.4324 160.689 59.785 143.056 58.1463 141.269C56.7194 148.871 54.7493 156.41 52.9716 163.938Z" fill="#696969"/>
<path d="M130.882 126.599C133.845 126.338 136.945 126.515 139.923 126.525L139.917 148.786L157.328 148.815L157.375 126.517C160.403 126.475 163.438 126.526 166.467 126.534C166.259 146.371 166.464 166.234 166.465 186.073L162.571 186.156L157.366 186.127C157.241 177.157 157.358 168.172 157.364 159.201C151.551 159.16 145.737 159.164 139.924 159.21V186.124L130.803 186.127L130.882 126.599Z" fill="#696969"/>
<path d="M176.82 126.532C187.399 126.186 198.094 126.467 208.681 126.533L208.656 136.703L185.831 136.769L185.825 150.231C192.864 150.388 199.929 150.285 206.972 150.303C206.743 153.658 206.935 157.135 206.945 160.503C200.066 160.485 193.068 160.209 186.205 160.631C185.657 161.592 185.831 162.86 185.837 163.94L185.818 175.711C193.751 175.882 201.699 175.726 209.636 175.846C209.705 179.266 209.642 182.695 209.627 186.117C198.706 186.312 187.748 186.134 176.823 186.135L176.82 126.532Z" fill="#696969"/>
<path d="M530.647 125.623C534.452 125.143 538.3 125.579 541.794 127.213C545.615 129.001 548.856 132.337 550.217 136.374C550.976 138.624 551.57 142.474 550.52 144.674C547.913 144.807 545.238 144.672 542.625 144.648C542.618 144.549 542.612 144.449 542.604 144.351C542.383 141.603 541.678 139.296 539.497 137.483C537.467 135.795 534.815 135.054 532.195 135.305C530.19 135.497 528.229 136.321 526.959 137.933C525.538 139.739 525.309 142.028 525.594 144.241C526.441 150.81 542.233 151.249 547.266 155.213C550.474 157.741 552.104 161.632 552.517 165.613C553.096 171.193 551.825 177.829 548.169 182.228C544.837 186.239 540.459 187.46 535.469 187.899C533.123 188.383 529.938 187.893 527.665 187.21C521.898 185.477 518.328 178.949 517.036 173.457C516.67 171.899 516.665 170.022 515.87 168.63C515.837 168.571 515.8 168.515 515.764 168.458L524.314 168.459C526.169 171.553 526.221 174.916 529.667 177.057C532.146 178.597 535.357 178.257 538.052 177.584C539.896 177.123 541.51 176.247 542.506 174.556C543.653 172.609 544.509 169.674 543.856 167.433C542.083 161.354 529.251 160.859 524.264 158.039C520.905 156.14 518.635 153.203 517.66 149.468C516.365 144.506 517.089 136.934 519.795 132.557C522.32 128.47 526.154 126.688 530.647 125.623Z" fill="#696969"/>
<path d="M396.164 125.539C396.373 125.515 396.583 125.491 396.792 125.476C401.445 125.11 406.041 126.683 409.492 129.825C414.499 134.352 416.169 140.218 416.46 146.734C413.642 146.833 410.811 146.759 407.991 146.738C407.604 144.967 407.213 143.079 406.466 141.426C405.369 138.997 403.72 137.327 401.198 136.409C398.914 135.578 396.279 135.459 394.066 136.562C391.042 138.069 389.296 141.451 388.299 144.53C385.689 152.595 385.648 164.26 389.612 171.863C390.883 174.301 392.711 176.319 395.411 177.137C397.671 177.821 400.125 177.374 402.156 176.227C405.048 174.592 406.429 172.295 407.286 169.168C407.545 167.829 407.502 167.043 408.461 166.048C410.843 165.123 413.921 165.666 416.464 165.747C416.326 170.572 415 175.88 412.286 179.909C409.417 184.168 404.755 186.909 399.728 187.795C395.702 188.505 391.727 187.636 388.388 185.267C382.514 181.099 379.664 173.46 378.522 166.587C376.745 155.905 377.434 141.617 384.033 132.549C387.175 128.231 390.979 126.322 396.164 125.539Z" fill="#696969"/>
<path d="M102.557 125.534C102.73 125.513 102.903 125.493 103.077 125.48C107.686 125.1 112.251 126.616 115.717 129.678C120.855 134.215 122.48 140.15 122.876 146.725C120.026 146.84 117.148 146.757 114.294 146.743C113.925 144.642 113.461 142.553 112.456 140.651C111.311 138.484 109.655 136.957 107.295 136.237C104.937 135.516 102.383 135.603 100.205 136.827C97.0078 138.623 95.2572 142.266 94.3117 145.661C92.1214 153.527 92.0429 165.105 96.2194 172.295C97.4686 174.444 99.3217 176.469 101.819 177.085C104.348 177.709 107.12 177.172 109.296 175.762C111.884 174.086 113.071 171.691 113.703 168.762C113.933 167.635 113.954 166.96 114.729 166.078C117.243 165.143 120.252 165.657 122.907 165.757C122.483 170.774 121.437 175.82 118.553 180.057C115.692 184.259 111.245 186.821 106.284 187.733C102.131 188.497 98.0621 187.626 94.6283 185.155C88.873 181.013 86.0379 173.5 84.9077 166.718C83.1255 156.023 83.7961 141.652 90.41 132.562C93.5715 128.217 97.3476 126.322 102.557 125.534Z" fill="#696969"/>
<path d="M0 126.553L9.33676 126.5C11.852 141.759 16.4166 156.711 18.8789 171.99C22.0549 156.811 25.3075 141.648 28.6364 126.502L37.6574 126.54L34.6556 138.92C30.1244 154.045 26.7956 170.686 22.7471 186.129L14.9694 186.142C10.0923 166.25 5.10241 146.388 0 126.553Z" fill="#696969"/>
<path d="M680.359 126.83C684.259 125.938 689.144 126.442 693.167 126.448L715.79 126.51C715.88 126.675 716.028 126.921 716.093 127.113C716.685 128.889 716.627 135.394 715.739 136.955C711.723 137.326 707.661 137.186 703.639 137.151C703.845 137.488 704.038 137.845 704.141 138.23C704.939 141.21 704.656 167.683 704.289 172.107C704.231 172.79 704.025 173.314 703.664 173.896C703.915 174.267 704.141 174.668 704.231 175.113C704.733 177.636 705.08 183.964 703.555 186.115C700.311 186.45 696.848 186.186 693.579 186.157C693.765 185.857 693.907 185.573 694.036 185.239C694.827 183.13 694.57 143.643 694.229 138.746C694.184 138.007 694.01 137.436 693.682 136.772L680.249 136.683C680.417 136.44 680.571 136.187 680.674 135.911C681.401 133.982 681.292 128.725 680.359 126.83Z" fill="#696969"/>
<path d="M556.546 126.83C561.304 125.654 584.824 126.492 591.837 126.529C591.932 126.694 592.083 126.93 592.151 127.12C592.774 128.879 592.747 135.061 591.862 136.707L578.855 136.746C579.112 137.164 579.327 137.615 579.416 138.101C580.101 141.868 579.548 146.756 579.552 150.61C579.561 157.386 580.05 164.575 579.447 171.314C579.386 171.99 579.171 172.519 578.81 173.091C579.025 173.436 579.237 173.812 579.343 174.207C579.998 176.64 580.101 184.008 578.87 186.117L569.706 186.121C569.89 185.829 570.029 185.553 570.151 185.228C570.889 183.271 570.687 143.402 570.325 138.709C570.27 137.991 570.096 137.417 569.776 136.77L556.437 136.688C556.594 136.443 556.741 136.189 556.84 135.914C557.549 133.947 557.421 128.782 556.546 126.83Z" fill="#696969"/>
<path d="M721.892 126.831C724.82 126.18 728.051 126.481 731.038 126.524C731.224 126.866 731.353 127.104 731.43 127.491C732.222 131.624 731.572 142.862 731.572 147.596V171.561C731.572 175.717 731.784 180.014 731.495 184.155C731.45 184.787 731.276 185.246 730.948 185.784C729.654 186.734 723.63 186.178 721.789 186.165C721.95 185.918 722.098 185.664 722.194 185.385C722.96 183.203 722.767 134.776 722.413 128.703C722.374 128.028 722.175 127.441 721.892 126.831Z" fill="#696969"/>
<path d="M375.174 244.088C374.758 238.232 374.224 226.798 375.142 221.257C376.097 220.688 377.204 220.838 378.307 220.796L378.851 221.403C378.893 225.147 379.379 251.281 378.356 252.568C377.462 252.53 376.308 252.58 375.481 252.238C373.507 251.421 364.349 231.895 362.843 228.826C362.956 233.948 364.061 248.578 361.979 252.574L360.575 252.762C358.141 249.66 359.214 225.866 359.219 220.691C360.303 220.67 361.373 220.73 362.454 220.789C364.502 221.788 373.209 240.553 375.174 244.088Z" fill="#696969"/>
<path d="M298.507 220.418C301.065 220.209 304.202 220.095 306.68 220.759C307.844 221.071 309.239 221.843 309.839 222.927C310.168 223.523 310.02 223.633 309.826 224.28C308.327 225.256 306.299 224.502 304.554 224.289C302.077 223.988 299.442 224.176 297.436 225.827C295.494 227.426 294.796 229.795 294.612 232.219C294.337 235.835 294.26 243.704 296.71 246.496C298.048 248.02 300.171 249.048 302.203 249.119C303.294 249.158 304.388 248.902 305.171 248.097C306.738 246.485 306.1 241.527 306.074 239.362C304.694 239.398 303.242 239.544 301.908 239.136C301.13 238.014 301.347 237.132 301.336 235.785C304.167 235.344 307.167 235.571 310.029 235.611L310.06 249.921C305.658 252.823 302.268 252.759 297.153 252.274C294.477 250.65 292.968 248.911 291.838 245.945C289.757 240.484 289.671 231.344 292.146 226.039C293.601 222.921 295.345 221.594 298.507 220.418Z" fill="#696969"/>
<path d="M467.18 220.56C470.48 220.224 475.465 219.748 478.596 220.982C479.652 221.398 479.886 221.697 480.303 222.682C480.131 222.929 479.952 223.164 479.727 223.368C477.222 225.65 470.471 224.845 467.182 224.77C467.589 227.079 468.132 231.983 466.956 233.99C469.893 234.056 473.214 233.416 476.084 233.988C477.159 234.202 477.596 234.388 478.208 235.284C478.176 236.285 478.103 237.099 477.752 238.042C474.145 238.347 470.569 238.279 466.953 238.211C467.068 238.407 467.117 238.472 467.198 238.669C467.932 240.46 467.793 243.321 467.103 245.089C467.552 245.836 467.535 247.005 467.841 247.874C469.871 248.898 473.432 248.104 475.705 247.937C477.138 247.831 478.313 247.893 479.451 248.878C480.022 249.913 480.02 250.63 479.942 251.773C477.704 253.262 465.652 252.344 462.526 252.221C462.556 252.17 462.589 252.119 462.618 252.066C462.665 251.977 462.707 251.886 462.753 251.797C463.906 249.586 463.617 223.793 462.867 220.64C464.305 220.621 465.743 220.594 467.18 220.56Z" fill="#696969"/>
<path d="M395.443 220.7C400.014 220.654 405.131 220.146 409.636 220.838C410.821 221.02 411.737 221.286 412.489 222.29C412.454 223.288 412.297 223.432 411.757 224.232C407.839 224.862 403.375 224.452 399.391 224.447L399.379 234.02C401.873 234.058 408.463 233.3 410.204 234.762C410.218 235.858 410.112 236.103 409.592 237.078C407.141 238.764 402.714 237.804 399.799 237.757C399.166 238.55 399.389 239.765 399.369 240.773L399.383 248.477C403.404 248.559 407.746 248.071 411.695 248.811L412.132 249.635C412.143 250.616 411.949 251.093 411.405 251.903C409.718 253.199 398.145 252.45 395.396 252.281L395.443 220.7Z" fill="#696969"/>
<path d="M326.669 220.681C329.167 220.682 341.787 220.225 342.958 221.222C343.103 222.223 343.115 222.774 342.644 223.683C340.601 225.386 333.433 224.413 330.621 224.476L330.612 234.018C333.552 233.996 338.958 233.344 341.596 234.657C341.624 235.174 341.634 235.546 341.473 236.046C340.276 239.749 334.241 236.666 331.161 238.146C330.404 239.294 330.616 240.121 330.62 241.477L330.612 248.479C334.682 248.639 338.876 248.067 342.903 248.737C343.471 249.694 343.358 250.68 343.354 251.757C340.806 253.234 329.995 252.507 326.635 252.288L326.669 220.681Z" fill="#696969"/>
<path d="M437.082 246.966C439.599 244.113 441.851 230.056 442.949 225.535C443.446 223.488 444.074 221.782 445.953 220.63C447.083 220.531 447.052 220.518 447.926 221.239C448.446 222.98 447.497 224.476 446.75 226.006C446.783 226.155 446.834 226.3 446.85 226.452C447.045 228.21 441.004 250.808 439.619 252.536L435.133 252.489C432.924 241.859 429.549 231.217 426.741 220.711C428.138 220.704 429.757 220.492 431.025 221.141C432.407 224.582 437.814 244.325 437.082 246.966Z" fill="#696969"/>
</svg>
