<svg width="26" height="26" viewBox="0 0 26 26" fill="none" xmlns="http://www.w3.org/2000/svg">
<path d="M12.855 0.268066H13.145L13.6871 0.293281L14.3174 0.343709L14.8343 0.406745L15.3764 0.494995L15.9186 0.60846L16.3094 0.709317L16.8641 0.87321L17.3432 1.0371L17.7592 1.201L18.2131 1.40271L18.5282 1.554L18.8056 1.69268L19.0956 1.85657L19.4233 2.04568L19.6629 2.19696L19.8772 2.33564L20.1167 2.49953L20.3437 2.66343L20.5832 2.83993L20.7849 3.00382L20.911 3.10468L21.0497 3.21814L21.2388 3.38204L21.3901 3.52071L21.4909 3.60896L21.5918 3.70982L21.6926 3.79807L22.0204 4.12586L22.1087 4.22671L22.1969 4.31497L22.2852 4.41582L22.4239 4.56711L22.5373 4.70579L22.676 4.86968L22.8147 5.04618L22.9407 5.21007L23.1172 5.44961L23.2811 5.67654L23.5459 6.07997L23.6467 6.24386L23.798 6.496L23.9493 6.76075L24.1384 7.11375L24.3149 7.46676L24.4914 7.85758L24.6553 8.26101L24.7436 8.48794L24.8949 8.94179L24.9957 9.26958L25.1218 9.73604L25.2353 10.2403L25.3235 10.7068L25.4118 11.3372L25.4622 11.8414L25.5 12.4592V13.1274L25.4748 13.6191L25.4244 14.1738L25.3739 14.5898L25.2857 15.1571L25.1722 15.7118L25.0209 16.317L24.8696 16.8213L24.6931 17.3382L24.5166 17.7794L24.3149 18.2333L24.1636 18.5485L24.0502 18.7628L23.9745 18.9141L23.798 19.2166L23.6972 19.3931L23.5963 19.557L23.319 19.9731L23.1551 20.2126L22.8273 20.6412L22.6508 20.8556L22.5373 20.9942L22.386 21.1707L22.2221 21.3472L22.2095 21.3725H22.1843L22.1591 21.4229L22.0456 21.5363L21.9574 21.6372L21.5918 22.0028H21.5666V22.028L21.4657 22.1163L21.3522 22.2297L21.2514 22.318L21.0749 22.4693L20.8858 22.6332L20.7093 22.7718L20.5076 22.9357L20.3689 23.0366L20.1798 23.1753L19.9276 23.3518L19.7385 23.4778L19.4486 23.667L19.083 23.8813L18.7678 24.0578L18.3265 24.2847L17.9231 24.4738L17.444 24.6755L16.9271 24.8646L16.4985 25.0033L16.1455 25.1042L15.5908 25.2429L15.4773 25.2681H15.4143L15.4017 25.1672V16.3296L15.4269 16.2792L17.8475 16.2666L17.8853 16.0774L18.0113 15.2832L18.1374 14.4763L18.3139 13.3669L18.4022 12.7996L18.4148 12.7618H14.7083L14.6957 12.5979V10.2908L14.7209 10.026L14.7713 9.81169L14.8343 9.62258L14.9604 9.35783L15.0865 9.16872L15.2252 9.00483L15.3512 8.89136L15.5277 8.7779L15.7042 8.68965L15.9312 8.61401L16.1581 8.56358L16.4355 8.52576L16.6876 8.51315H18.8308L18.9317 8.52576V5.46222L18.9191 5.437L18.0492 5.32354L17.5575 5.27311L17.0784 5.23529L16.5363 5.21007H15.6412L15.2126 5.24789L14.8091 5.31093L14.4813 5.38657L14.1662 5.47482L13.8006 5.6135L13.4349 5.79L13.1954 5.92868L13.0441 6.02954L12.8046 6.20604L12.6155 6.36993L12.502 6.47079L12.439 6.54643L12.3759 6.60947L12.2247 6.77336L12.0986 6.93725L11.9851 7.10115L11.8464 7.32808L11.7582 7.47936L11.6195 7.78193L11.5061 8.08451L11.4304 8.32404L11.3422 8.67704L11.2791 9.01744L11.2413 9.26958L11.2035 9.76126L11.1909 10.3664V12.7492L11.1783 12.7618H8.36687V16.2666L9.18633 16.2792H11.1531L11.1909 16.3044V25.2555L11.1783 25.2807L10.8505 25.2176L10.4597 25.142L9.93016 25.0159L9.38805 24.8646L8.83333 24.6881L8.39208 24.5242L7.87519 24.3099L7.44655 24.1082L7.24483 24.0074L6.87922 23.8182L6.53883 23.6165L6.34972 23.5031L6.1354 23.3644L5.90847 23.2131L5.73197 23.087L5.50504 22.9231L5.15204 22.6458L4.97554 22.4945L4.83686 22.381L4.64776 22.2045L4.5469 22.1163L4.39561 21.9776L3.89133 21.4733L3.80308 21.3725L3.68961 21.2464L3.55093 21.0951L3.43747 20.9564L3.29879 20.7925L3.16011 20.616L2.98361 20.3891L2.80711 20.1496L2.618 19.8722L2.49193 19.6831L2.34065 19.4436L2.22718 19.2545L2.0759 18.9897L1.92461 18.7123L1.68507 18.2333L1.49597 17.8046L1.30686 17.3256L1.18079 16.9726L1.01689 16.4431L0.878215 15.9136L0.777358 15.4597L0.6765 14.9176L0.600857 14.3881L0.537821 13.7451L0.5 13.1274V12.4466L0.537821 11.8414L0.600857 11.2363L0.689107 10.6438L0.789965 10.1269L0.916036 9.59737L1.04211 9.14351L1.206 8.63922L1.35729 8.23579L1.50857 7.87018L1.65986 7.52979L1.83636 7.16418L2.06329 6.73554L2.265 6.39515L2.41629 6.143L2.6054 5.85304L2.7945 5.57568L2.93318 5.38657L3.08447 5.18486L3.26097 4.95793L3.43747 4.74361L3.57615 4.57972L3.70222 4.44104L3.79047 4.34018L3.90393 4.21411L4.05522 4.06282L4.09304 4.01239H4.11826L4.14347 3.96196L4.24433 3.86111H4.26954L4.29476 3.81068H4.31997V3.78546L4.42083 3.69721L4.5469 3.57114L4.64776 3.48289L4.69818 3.45768V3.43246L4.83686 3.319L4.96293 3.20553L5.13944 3.06686L5.30333 2.92818L5.75719 2.58778L5.9589 2.44911L6.18583 2.29782L6.40015 2.15914L6.75315 1.94482L7.06833 1.76832L7.34569 1.61703L7.64826 1.46575L8.0643 1.27664L8.46773 1.11275L8.9468 0.936246L9.42587 0.78496L9.89233 0.658888L10.384 0.545424L10.8379 0.457174L11.4556 0.368924L11.9473 0.318495L12.5146 0.280674L12.855 0.268066Z" fill="#696969"/>
</svg>
