<svg width="26" height="25" viewBox="0 0 26 25" fill="none" xmlns="http://www.w3.org/2000/svg">
<path d="M25.3113 18.064C25.295 18.9443 25.0957 19.8131 24.7246 20.6206C24.3534 21.428 23.8178 22.1585 23.1483 22.7701C22.4788 23.3818 21.6885 23.8627 20.8225 24.1854C19.9565 24.5081 19.0318 24.6663 18.1012 24.6509L7.4637 24.4752C5.58429 24.4442 3.79489 23.7081 2.48915 22.4289C1.1834 21.1498 0.468273 19.4323 0.501081 17.6543L0.688713 7.48446C0.704948 6.60408 0.904321 5.73535 1.27545 4.92787C1.64657 4.12039 2.18218 3.38997 2.8517 2.77831C3.52121 2.16665 4.31152 1.68574 5.1775 1.36303C6.04347 1.04032 6.96815 0.882138 7.89875 0.897506L18.5363 1.07319C20.4157 1.10423 22.2051 1.8403 23.5109 3.11947C24.8166 4.39865 25.5317 6.11614 25.4989 7.89413L25.3113 18.064ZM23.0036 8.02929C23.0025 7.41633 22.8738 6.80958 22.6248 6.24369C22.3758 5.6778 22.0114 5.16385 21.5524 4.73117C21.0935 4.2985 20.549 3.95559 19.9499 3.722C19.3509 3.48842 18.7091 3.36875 18.0612 3.36982L7.92021 3.38654C7.27228 3.38761 6.63092 3.5094 6.03275 3.74495C5.43458 3.98051 4.8913 4.32522 4.43395 4.7594C3.9766 5.19358 3.61412 5.70874 3.36721 6.27545C3.1203 6.84216 2.9938 7.44932 2.99493 8.06228L3.01245 17.5343C3.01358 18.1473 3.14232 18.754 3.39131 19.3199C3.6403 19.8858 4.00468 20.3998 4.46363 20.8324C4.92258 21.2651 5.46712 21.608 6.06615 21.8416C6.66519 22.0752 7.30699 22.1949 7.95492 22.1938L18.0959 22.1771C18.7438 22.176 19.3851 22.0542 19.9833 21.8187C20.5815 21.5831 21.1248 21.2384 21.5821 20.8042C22.0395 20.37 22.402 19.8549 22.6489 19.2882C22.8958 18.7215 23.0223 18.1143 23.0211 17.5013L23.0036 8.02929Z" fill="#696969"/>
<path d="M19.164 8.05801C20.0517 8.29726 20.9616 7.85945 21.1963 7.08015C21.431 6.30086 20.9015 5.47516 20.0137 5.23592C19.1259 4.99668 18.216 5.43448 17.9814 6.21378C17.7467 6.99308 18.2762 7.81877 19.164 8.05801Z" fill="#696969"/>
<path d="M19.4841 12.8502C19.4841 14.4813 18.7991 16.0455 17.58 17.1989C16.3609 18.3522 14.7074 19.0002 12.9832 19.0002C11.2591 19.0002 9.60561 18.3522 8.38647 17.1989C7.16733 16.0455 6.48242 14.4813 6.48242 12.8502C6.48242 11.2191 7.16733 9.65483 8.38647 8.50149C9.60561 7.34814 11.2591 6.7002 12.9832 6.7002C14.7074 6.7002 16.3609 7.34814 17.58 8.50149C18.7991 9.65483 19.4841 11.2191 19.4841 12.8502ZM12.932 16.6578C13.4406 16.6687 13.9464 16.581 14.4208 16.3998C14.8952 16.2185 15.3288 15.9472 15.6969 15.6014C16.0649 15.2555 16.3602 14.8419 16.5659 14.3841C16.7716 13.9264 16.8836 13.4334 16.8956 12.9334C16.9076 12.4333 16.8193 11.936 16.6358 11.4699C16.4523 11.0038 16.1772 10.5779 15.8261 10.2166C15.475 9.85531 15.0549 9.56568 14.5897 9.36424C14.1244 9.1628 13.6233 9.05351 13.1148 9.04259C12.6063 9.03166 12.1004 9.11933 11.626 9.30059C11.1516 9.48185 10.718 9.75315 10.35 10.099C9.98191 10.4448 9.68662 10.8585 9.48093 11.3162C9.27525 11.774 9.16321 12.267 9.15121 12.767C9.13921 13.267 9.22749 13.7643 9.411 14.2305C9.59451 14.6966 9.86967 15.1225 10.2208 15.4838C10.5718 15.8451 10.992 16.1347 11.4572 16.3361C11.9224 16.5376 12.4235 16.6469 12.932 16.6578Z" fill="#696969"/>
</svg>
