<svg width="26" height="24" viewBox="0 0 26 24" fill="none" xmlns="http://www.w3.org/2000/svg">
<path d="M25.5 21.4008C25.5005 21.66 25.447 21.9166 25.3426 22.1562C25.2383 22.3957 25.085 22.6135 24.8917 22.7971C24.6984 22.9806 24.4687 23.1263 24.2159 23.2259C23.963 23.3255 23.6919 23.377 23.418 23.3774L2.62493 23.4118C2.35102 23.4122 2.07972 23.3616 1.82648 23.2629C1.57325 23.1641 1.34304 23.0192 1.14903 22.8363C0.955011 22.6534 0.800981 22.4361 0.695727 22.1969C0.590472 21.9576 0.536064 21.7012 0.535594 21.442L0.500003 2.14765C0.499522 1.88854 0.552996 1.63187 0.657367 1.39231C0.761738 1.15274 0.914964 0.934971 1.1083 0.751428C1.30163 0.567884 1.53129 0.422163 1.78415 0.322584C2.03702 0.223005 2.30813 0.171518 2.58202 0.171064L23.3751 0.136722C23.649 0.136266 23.9203 0.186856 24.1735 0.285599C24.4268 0.384342 24.657 0.529305 24.851 0.712213C25.045 0.895121 25.199 1.11239 25.3043 1.35162C25.4095 1.59084 25.4639 1.84734 25.4644 2.10646L25.5 21.4008ZM6.45964 7.44918C6.70919 7.43763 6.95374 7.37677 7.17933 7.27008C7.40493 7.16339 7.60714 7.01296 7.77443 6.82737C7.94171 6.64179 8.07079 6.42468 8.1543 6.18846C8.2378 5.95223 8.27411 5.70151 8.26113 5.4506C8.23493 4.94389 8.0096 4.46719 7.6347 4.12538C7.2598 3.78357 6.76605 3.60464 6.26206 3.62795C6.01251 3.6395 5.76794 3.70036 5.54235 3.80705C5.31676 3.91374 5.11456 4.06418 4.94727 4.24976C4.77999 4.43535 4.65091 4.65245 4.5674 4.88868C4.4839 5.1249 4.44759 5.37562 4.46057 5.62653C4.48677 6.13324 4.7121 6.60994 5.087 6.95175C5.4619 7.29357 5.95565 7.4725 6.45964 7.44918ZM13.6687 10.027L13.7005 9.58272C13.7165 9.25638 13.5519 9.0932 13.207 9.0932L10.8427 9.08567C10.5667 9.08567 10.4287 9.21621 10.4287 9.47729L10.4685 19.5764C10.4685 19.8023 10.5906 19.9178 10.8347 19.9228L13.4219 19.968C13.6713 19.973 13.7987 19.86 13.804 19.6291C13.8359 17.5581 12.9602 11.955 15.9454 11.6312C19.4401 11.2471 18.3973 17.5656 18.3814 19.4709C18.3814 19.7421 18.522 19.8826 18.8033 19.8927L21.1835 19.9605C21.4117 19.9705 21.5338 19.8651 21.5497 19.6442C21.7646 15.5172 22.895 8.1443 16.3912 8.88987C16.1508 8.91961 15.9241 9.0023 15.7305 9.13086L14.0747 10.2379C14.0355 10.2654 13.9888 10.2817 13.9402 10.2849C13.8915 10.2881 13.8429 10.2779 13.8002 10.2557C13.7574 10.2335 13.7223 10.2002 13.699 10.1596C13.6757 10.1191 13.6652 10.0731 13.6687 10.027ZM8.06895 9.2686C8.06886 9.24289 8.06342 9.21744 8.05293 9.19372C8.04244 9.17 8.02711 9.14846 8.00783 9.13034C7.98854 9.11222 7.96567 9.09788 7.94052 9.08812C7.91537 9.07836 7.88844 9.07338 7.86126 9.07347L5.01136 9.08289C4.95648 9.08309 4.90393 9.1039 4.86527 9.14074C4.82661 9.17759 4.80499 9.22745 4.80518 9.27937L4.8438 19.7474C4.84389 19.7731 4.84934 19.7986 4.85983 19.8223C4.87032 19.846 4.88563 19.8675 4.90492 19.8857C4.9242 19.9038 4.94708 19.9181 4.97222 19.9279C4.99737 19.9376 5.0243 19.9426 5.05148 19.9425L7.90138 19.9331C7.95626 19.9329 8.00881 19.9121 8.04748 19.8753C8.08614 19.8384 8.10776 19.7885 8.10757 19.7366L8.06895 9.2686Z" fill="#696969"/>
</svg>
