<svg width="26" height="26" viewBox="0 0 26 26" fill="none" xmlns="http://www.w3.org/2000/svg">
<path d="M12.7059 0.188477H13.2941L14.152 0.237496L14.9363 0.335535L15.8186 0.507104L16.4804 0.678673L17.3627 0.97279L18.0245 1.2424L18.6373 1.53652L19.201 1.83063L19.7157 2.14926L20.2549 2.51691L20.7696 2.90906L21.0392 3.12965L21.2843 3.35024L21.4804 3.52181L21.848 3.86495L22.0196 4.03652L22.1912 4.23259L22.4853 4.55122L22.7549 4.89436L23.049 5.26201L23.3676 5.72769L23.6373 6.14436L23.8578 6.51201L24.152 7.07573L24.348 7.46789L24.5686 7.95808L24.8137 8.61985L24.9853 9.13455L25.1814 9.86985L25.3529 10.7522L25.451 11.4875L25.5 12.1002V13.4483L25.4265 14.2816L25.3039 15.0904L25.1078 15.9728L24.8627 16.8061L24.6176 17.4679L24.299 18.2032L24.0049 18.7914L23.6618 19.3797L23.2206 20.0414L23.0245 20.311L22.7059 20.7277L22.4363 21.0463L22.1912 21.3159L22.0196 21.512L21.4804 22.0512L21.2843 22.2228L20.9167 22.5414L20.5 22.86L20.2059 23.0806L19.7647 23.3748L19.299 23.6689L18.7598 23.963L18.1225 24.2816L17.4608 24.5512L16.7745 24.7963L15.9902 25.0169L15.1569 25.1885L14.4951 25.2865L13.6373 25.36H12.3873L11.5539 25.2865L10.7451 25.164L9.96078 24.9924L9.34804 24.8208L9.29902 24.7718L9.51961 24.4042L9.83824 23.8404L10.2059 23.1297L10.4265 22.664L10.6716 22.0512L10.8186 21.61L11.5049 18.9385L11.6275 18.4973L11.7255 18.6198L11.8971 18.8404L12.1912 19.1346L12.5588 19.3797L12.9265 19.5757L13.4657 19.7718L13.9314 19.8698L14.1275 19.8944H15.0098L15.6716 19.7963L16.0882 19.6983L16.6029 19.5267L17.0441 19.3306L17.4608 19.11L17.8284 18.8649L18.1225 18.6444L18.4412 18.3748L18.5637 18.2522H18.6127V18.2032H18.6618V18.1542L18.9804 17.8355L19.25 17.4924L19.5196 17.1248L19.8382 16.61L20.0833 16.1444L20.3529 15.5071L20.598 14.7718L20.7941 13.9385L20.8922 13.3012L20.9412 12.811L20.9657 12.0757L20.9412 11.512L20.8431 10.7767L20.6961 10.1395L20.4755 9.47769L20.2059 8.88946L19.9118 8.35024L19.6422 7.95808L19.3971 7.63946L19.1029 7.29632L18.5882 6.78161L18.2451 6.51201L17.8775 6.2424L17.4118 5.94828L16.848 5.65416L16.3578 5.43357L15.6961 5.21299L15.1324 5.06593L14.4216 4.94338L13.9559 4.89436L13.1716 4.86985L12.5343 4.89436L11.799 4.96789L10.9902 5.11495L10.3529 5.28652L9.83824 5.45808L9.32353 5.67867L8.93137 5.87475L8.4902 6.11985L8.12255 6.36495L7.73039 6.65906L7.36275 6.97769L6.92157 7.41887L6.70098 7.68848L6.38235 8.10514L6.08824 8.57083L5.7451 9.23259L5.54902 9.69828L5.35294 10.2865L5.18137 11.0218L5.10784 11.561L5.05882 12.3698L5.08333 13.0071L5.18137 13.6934L5.32843 14.2816L5.52451 14.8453L5.72059 15.2865L5.9902 15.8012L6.2598 16.1934L6.45588 16.4385L6.72549 16.7326L6.9951 16.9777L7.36275 17.2228L7.65686 17.3698H7.85294L7.95098 17.2228L8.29412 15.8012V15.5806L8.19608 15.3846L8 15.1149L7.77941 14.7228L7.58333 14.2571L7.41176 13.6934L7.31373 13.1542L7.28922 12.9581V12.0512L7.38726 11.3895L7.5098 10.8993L7.73039 10.311L7.92647 9.91887L8.14706 9.52671L8.41667 9.15906L8.63725 8.88946L8.95588 8.54632L9.15196 8.37475L9.4951 8.10514L9.86275 7.86004L10.3039 7.61495L10.9902 7.34534L11.5294 7.19828L12.0931 7.10024L12.7794 7.05122H13.098L13.7353 7.10024L14.299 7.19828L14.8137 7.34534L15.4265 7.59044L15.8676 7.83554L16.1863 8.05612L16.4804 8.27671L16.8725 8.66887L17.0931 8.93848L17.2647 9.15906L17.5588 9.64926L17.7794 10.1149L17.9755 10.7032L18.098 11.2914L18.1471 11.7326V12.7865L18.0735 13.4973L17.951 14.1591L17.7794 14.7963L17.5833 15.3355L17.2892 15.9483L17.0686 16.2914L16.7745 16.6836L16.4804 17.0022L16.2108 17.2473L15.8186 17.5169L15.451 17.713L15.0343 17.86L14.6667 17.9336L14.4461 17.9581H14.0539L13.6373 17.8846L13.3186 17.762L13.0245 17.5904L12.7059 17.2963L12.4853 16.9532L12.3627 16.6346L12.3137 16.3895V15.8993L12.4118 15.4336L12.6569 14.5757L13.0245 13.3502L13.2451 12.5169L13.3431 11.9777L13.3676 11.8061V11.1934L13.2696 10.7522L13.1225 10.4091L12.951 10.1885L12.7794 10.0169L12.4118 9.82083L12.0931 9.7473H11.5784L11.1863 9.84534L10.8431 10.0169L10.598 10.213L10.4265 10.36L10.1814 10.6787L9.96078 11.0708L9.81373 11.414L9.69118 11.8551L9.61765 12.3208V13.2522L9.71569 13.8649L9.86275 14.3797L9.96078 14.6248L9.86275 15.0659L9.4951 16.6591L9.10294 18.3257L8.73529 19.8944L8.46569 21.0708L8.41667 21.4385L8.36765 22.0512V23.2032L8.41667 24.061L8.46569 24.5022L8.34314 24.4777L7.70588 24.2081L7.11765 23.914L6.52941 23.5708L6.18627 23.3502L5.72059 23.0316L5.20588 22.6395L4.88726 22.3698L4.64216 22.1493L4.34804 21.8797L3.80882 21.3404L3.63725 21.1444L3.36765 20.8257L3.09804 20.4826L2.7549 20.0169L2.38725 19.4532L2.11765 18.9875L1.82353 18.4238L1.62745 18.0316L1.35784 17.3944L1.08824 16.6346L0.843137 15.7522L0.671569 14.8944L0.573529 14.2081L0.5 13.1787V12.4189L0.54902 11.61L0.647059 10.8502L0.769608 10.164L0.990196 9.28161L1.28431 8.39926L1.55392 7.71299L1.84804 7.10024L2.14216 6.53652L2.43627 6.04632L2.73039 5.60514L2.97549 5.26201L3.22059 4.94338L3.56373 4.52671L3.83333 4.23259L4.0049 4.06103L4.17647 3.86495L4.42157 3.61985L4.61765 3.44828L4.93627 3.15416L5.18137 2.95808L5.52451 2.68848L5.96569 2.36985L6.45588 2.05122L7.04412 1.70808L7.97549 1.2424L8.78431 0.923771L9.44608 0.703182L10.2059 0.507104L11.0882 0.335535L11.8725 0.237496L12.7059 0.188477Z" fill="#696969"/>
</svg>
