<svg width="26" height="26" viewBox="0 0 26 26" fill="none" xmlns="http://www.w3.org/2000/svg">
<path d="M0.5 0H7.96008L8.14721 0.274451L8.28443 0.474052L8.48403 0.760978L8.58383 0.910679L8.78343 1.1976L8.94561 1.43463L9.13273 1.70908L9.33234 1.99601L9.43214 2.14571L9.51946 2.27046L9.68164 2.50749L9.88124 2.79441L9.98104 2.94411L10.0684 3.06886L10.2555 3.34331L10.4551 3.63024L10.8293 4.17914L11.004 4.42864L11.1287 4.61577L11.2161 4.74052L11.3782 4.97754L11.5529 5.22705L11.6776 5.41417L11.8772 5.7011L12.0394 5.93812L12.2265 6.21257L12.4261 6.4995L12.6133 6.77395L12.7754 7.01098L12.975 7.2979L13.0749 7.4476L13.2745 7.73453L13.4366 7.97156L13.7111 8.37076L13.8733 8.60778L14.0729 8.89471L14.2101 9.09431L14.3723 9.33134L14.4097 9.35629L14.5719 9.16916L14.6841 9.04441L14.7964 8.90719L14.9336 8.75749L15.0334 8.63273L15.1457 8.50798L15.233 8.40818L15.3703 8.24601L15.52 8.07136L15.6821 7.88423L15.7944 7.74701L15.8568 7.67216H15.8817L15.9067 7.62226L16.0564 7.4476L16.0689 7.42265H16.0938L16.1188 7.37275L16.231 7.248L16.3433 7.11078L16.4805 6.96108L16.5803 6.83633L16.7425 6.6492L17.0419 6.2999L17.1542 6.17515L17.2665 6.03792L17.3912 5.9007L17.5035 5.76347L17.6657 5.57635L17.7779 5.4516L17.8902 5.31437L17.9152 5.27695H17.9401L17.9651 5.22705L18.0773 5.1023L18.1896 4.96507L18.2146 4.92764H18.2395L18.2645 4.87774L18.3767 4.75299L18.489 4.61577L18.6262 4.46607L18.726 4.34132L18.8882 4.15419L19.0005 4.02944L19.1128 3.89222L19.2375 3.75499L19.3498 3.61776L19.6742 3.24351L19.7615 3.13124H19.7864L19.8114 3.08134L19.9237 2.95659L20.0359 2.81936L20.0609 2.78194H20.0858L20.1108 2.73204L20.2231 2.60729L20.3353 2.47006L20.4726 2.32036L20.5724 2.19561L20.7345 2.00848L20.8468 1.88373L20.9591 1.74651L21.0714 1.62176L21.1836 1.48453L21.2959 1.35978L21.4082 1.22255L21.5205 1.0978L21.6078 0.985529H21.6327L21.6577 0.935629L21.6951 0.885729H21.7201L21.745 0.835828L21.8947 0.661178L21.9072 0.636228H21.9321L21.9571 0.586327L22.0694 0.461577L22.1816 0.324351L22.3189 0.174651L22.4187 0.0499002L22.4561 0H24.6766L24.6517 0.0499002L24.502 0.224551L24.3897 0.361776L24.265 0.499002L24.1527 0.636228L24.1277 0.673653H24.1028L24.0778 0.723553L23.9656 0.848303L23.8533 0.985529L23.741 1.11028L23.6287 1.2475L23.5165 1.37226L23.4042 1.50948L23.2919 1.63423L23.1796 1.77146L23.0549 1.90868L22.9426 2.04591L22.7804 2.23303L22.6682 2.35778L22.5559 2.49501L22.4436 2.61976L22.3313 2.75699L22.2066 2.89421L21.982 3.16866H21.9571L21.9321 3.21856L21.8199 3.34331L21.7076 3.48054L21.5953 3.60529L21.483 3.74252L21.3708 3.86727L21.2585 4.00449L21.1462 4.12924L21.0339 4.26647L20.9092 4.40369L20.7969 4.54092L20.6722 4.67814L20.5599 4.81537L20.4476 4.94012L20.3353 5.07735L20.2106 5.21457L20.0983 5.3518L19.9361 5.53892L19.8239 5.66367L19.7116 5.8009L19.3872 6.17515L18.9381 6.6991L18.8258 6.82385L18.7136 6.96108L18.6013 7.08583L18.489 7.22305L18.3643 7.36028L18.252 7.49751L18.0898 7.68463L17.99 7.80938H17.9651L17.9401 7.85928L17.8278 7.98403L17.7156 8.12126L17.6033 8.24601L17.491 8.38323L17.3787 8.50798L17.2665 8.64521L17.1542 8.76996L17.0419 8.90719L16.9172 9.04441L16.8049 9.18164L16.6801 9.31886L16.5679 9.45609L16.4556 9.58084L16.3433 9.71806L16.2186 9.85529L16.1437 9.95509H16.1188L16.0938 10.005L15.9815 10.1297L15.8693 10.267L15.5449 10.6412L15.4202 10.7909L15.4077 10.8283L15.52 11.003L15.7196 11.2899L15.8194 11.4396L16.019 11.7265L16.1188 11.8762L16.2061 12.001L16.3932 12.2754L16.5928 12.5624L16.7176 12.7495L16.8049 12.8743L16.9671 13.1113L17.1417 13.3608L17.2665 13.5479L17.3538 13.6727L17.516 13.9097L17.7156 14.1966L17.8154 14.3463L18.015 14.6332L18.1771 14.8703L18.3643 15.1447L18.5639 15.4316L18.6637 15.5813L18.8633 15.8683L19.0254 16.1053L19.1627 16.3049L19.3249 16.5419L19.4621 16.7415L19.6617 17.0284L19.7615 17.1781L19.9611 17.4651L20.1233 17.7021L20.2605 17.9017L20.4227 18.1387L20.6098 18.4132L20.6971 18.5379L20.8593 18.775L21.0589 19.0619L21.1587 19.2116L21.246 19.3363L21.4331 19.6108L21.6078 19.8603L21.7076 20.01L21.9072 20.2969L22.007 20.4466L22.1816 20.6961L22.3064 20.8832L22.4561 21.0953L22.5559 21.245L22.7305 21.4945L22.8553 21.6816L22.9426 21.8064L23.1048 22.0434L23.3044 22.3303L23.4042 22.48L23.6038 22.767L23.7909 23.0414L23.9531 23.2784L24.1527 23.5654L24.2525 23.7151L24.4521 24.002L24.6143 24.239L24.7515 24.4386L25.0758 24.9127L25.2505 25.1622L25.5 25.5364V25.5489H18.0274L17.9526 25.4117L17.8278 25.237L17.6407 24.9626L17.4411 24.6756L17.2789 24.4386L17.0045 24.0394L16.8049 23.7525L16.6053 23.4531L16.5055 23.3159L16.2934 23.004L16.0938 22.7171L15.9067 22.4426L15.7445 22.2056L15.5449 21.9187L15.4451 21.769L15.2455 21.482L15.0833 21.245L14.8962 20.9706L14.6966 20.6836L14.4845 20.3718L14.3473 20.1722L14.1477 19.8852L13.9356 19.5734L13.1123 18.3757L12.9501 18.1387L12.4012 17.3403L12.239 17.1033L12.0394 16.8164L11.8523 16.5419L11.6901 16.3049L11.4905 16.018L11.3034 15.7435L11.266 15.6811L11.2285 15.6687L11.1412 15.756L11.0289 15.8932L10.9167 16.018L10.8044 16.1552L10.6796 16.2924L10.5674 16.4296L10.4052 16.6168L10.2929 16.7415L10.1806 16.8787L10.1557 16.9162H10.1307L10.1058 16.9661L9.99351 17.0908L9.88124 17.228L9.76896 17.3528L9.65669 17.49L9.53194 17.6272L9.41966 17.7645L9.25749 17.9516L9.10778 18.1262L8.99551 18.251L8.88323 18.3882L8.77096 18.513L8.65868 18.6502L8.53393 18.7874L8.42166 18.9247L8.25948 19.1118L8.14721 19.2365L8.03493 19.3738L7.71058 19.748L7.11178 20.4466L6.9995 20.5714L6.88723 20.7086L6.77495 20.8333L6.66267 20.9706L6.53792 21.1078L6.31337 21.3822H6.28842L6.26347 21.4321L6.1512 21.5569L6.03892 21.6941L5.92665 21.8189L5.81437 21.9561L5.7021 22.0808L5.58982 22.2181L5.47754 22.3428L5.36527 22.48L5.24052 22.6173L5.12824 22.7545L5.00349 22.8917L4.89122 23.0289L4.77894 23.1537L4.66667 23.2909L4.54192 23.4281L4.46707 23.5279H4.44212L4.41717 23.5778L4.30489 23.7026L4.19261 23.8398L4.08034 23.9646L3.96806 24.1018L3.85579 24.2265L3.74351 24.3638L3.61876 24.501L3.50649 24.6382L3.38174 24.7754L3.26946 24.9127L3.15719 25.0374L3.04491 25.1747L2.93263 25.2994L2.82036 25.4366L2.72056 25.5489H0.5L0.57485 25.4366L0.724551 25.2745L0.836826 25.1372L0.999002 24.9501L1.11128 24.8253L1.22355 24.6881L1.5479 24.3139L1.6976 24.1392L1.85978 23.9521L1.97206 23.8149L2.09681 23.6776L2.20908 23.5404L2.24651 23.4905H2.27146L2.29641 23.4406L2.40868 23.3159L2.52096 23.1786L2.54591 23.1412H2.57086L2.59581 23.0913L2.70808 22.9666L2.82036 22.8293L2.95758 22.6796L3.05739 22.5549L3.21956 22.3678L3.33184 22.243L3.44411 22.1058L3.56886 21.9686L3.68114 21.8313L4.00549 21.4571L4.09281 21.3448H4.11776L4.14271 21.2949L4.25499 21.1702L4.36727 21.0329L4.39222 20.9955H4.41717L4.44212 20.9456L4.55439 20.8209L4.66667 20.6836L4.80389 20.5339L4.90369 20.4092L5.06587 20.2221L5.17814 20.0973L5.29042 19.9601L5.40269 19.8353L5.51497 19.6981L5.62725 19.5734L5.73952 19.4361L5.8518 19.3114L5.96407 19.1742L6.02645 19.0993H6.0514L6.07635 19.0494L6.22605 18.8748L6.23852 18.8498H6.26347L6.28842 18.7999L6.4007 18.6751L6.51297 18.5379L6.6502 18.3882L6.75 18.2635L6.91218 18.0763L7.21158 17.727L7.32385 17.6023L7.43613 17.4651L7.56088 17.3278L7.67315 17.1906L7.83533 17.0035L7.9476 16.8787L8.05988 16.7415L8.08483 16.7041H8.10978L8.13473 16.6542L8.24701 16.5294L8.35928 16.3922L8.49651 16.2425L8.59631 16.1178L8.75848 15.9306L9.05788 15.5813L9.17016 15.4566L9.28244 15.3194L9.40719 15.1821L9.51946 15.0449L9.68164 14.8578L9.79391 14.733L9.90619 14.5958L9.93114 14.5584H9.95609L9.98104 14.5085L10.0933 14.3837L10.1931 14.259L10.2305 14.2216L10.2181 14.1592L10.0684 13.9471L9.85629 13.6352L9.65669 13.3483L9.46956 13.0739L9.30739 12.8368L9.10778 12.5499L8.92066 12.2754L8.75848 12.0384L8.55888 11.7515L8.35928 11.4521L8.25948 11.3149L8.07236 11.0404L7.7979 10.6412L7.63573 10.4042L7.43613 10.1173L7.249 9.84281L7.08683 9.60579L6.81238 9.20659L6.6502 8.96956L6.4506 8.68264L6.251 8.38323L6.12625 8.20858L5.98902 8.00898L5.66467 7.53493L5.46507 7.248L5.27794 6.97355L5.11577 6.73653L4.91617 6.4496L4.70409 6.13772L4.56687 5.93812L4.36727 5.6512L4.26747 5.5015L4.06786 5.21457L3.88074 4.94012L3.71856 4.70309L3.51896 4.41617L3.31936 4.11677L3.21956 3.97954L3.03244 3.70509L2.75798 3.30589L2.59581 3.06886L2.39621 2.78194L2.20908 2.50749L2.04691 2.27046L1.90968 2.07086L1.72255 1.79641L1.52295 1.50948L1.32335 1.21008L1.22355 1.07285L1.03643 0.798403L0.899202 0.598802L0.737026 0.361776L0.5998 0.162176L0.5 0.0124751V0ZM4.29242 1.65918L3.51896 1.67166L3.60629 1.80888L3.73104 1.98353L3.86826 2.18313L4.04291 2.43263L4.24252 2.71956L4.39222 2.93164L4.52944 3.13124L4.82884 3.55539L4.99102 3.79242L5.29042 4.21657L5.42764 4.41617L5.57735 4.62824L6.27595 5.62625L6.43812 5.86327L6.6003 6.08782L6.73752 6.28743L6.93713 6.57435L7.08683 6.78643L7.22405 6.98603L7.37375 7.1981L8.07236 8.19611L8.27196 8.48303L8.42166 8.69511L8.58383 8.93214L8.74601 9.15669L9.02046 9.55589L9.12026 9.69311L9.28244 9.93014L9.43214 10.1422L10.1307 11.1402L10.243 11.3024L10.3927 11.5145L10.5674 11.764L10.7295 12.001L11.0289 12.4251L11.1662 12.6248L11.3159 12.8368L11.6652 13.3358L11.8648 13.6228L12.0145 13.8348L12.2141 14.1218L12.3638 14.3338L12.5259 14.5709L12.8253 14.995L12.9626 15.1946L13.1123 15.4067L14.1602 16.9037L14.3224 17.1407L14.4845 17.3653L14.6218 17.5649L14.8214 17.8518L15.8693 19.3488L16.0689 19.6357L16.2186 19.8478L16.3558 20.0474L16.6552 20.4716L16.8174 20.7086L17.1168 21.1327L17.254 21.3323L17.4037 21.5444L18.1023 22.5424L18.2645 22.7794L18.4266 23.004L18.5639 23.2036L18.7136 23.4157L18.8508 23.6153L19.0005 23.8273L19.0878 23.9396L19.1003 23.9521L20.0858 23.9646H21.3708L22.4436 23.9521L22.4311 23.9022L22.3064 23.7151L20.2106 20.7211L20.0484 20.484L19.8987 20.272L19.774 20.0973L19.6367 19.8977L18.5888 18.4007L18.3892 18.1138L18.2395 17.9017L18.0399 17.6148L17.6906 17.1158L17.491 16.8288L16.2685 15.0823L16.1063 14.8453L15.9566 14.6332L15.8318 14.4586L15.6946 14.259L15.52 14.0095L15.3703 13.7974L15.1707 13.5105L14.4721 12.5125L14.2725 12.2255L14.0978 11.976L13.8982 11.6891L12.6756 9.94261L12.5135 9.70559L12.3762 9.51846L12.2141 9.28144L12.0145 8.99451L11.8648 8.78244L11.6652 8.49551L10.6173 6.9985L10.4177 6.71158L9.71906 5.71357L9.51946 5.42665L8.82086 4.42864L8.70858 4.26647L8.18463 3.51796L7.98503 3.23104L7.83533 3.01896L7.63573 2.73204L7.46108 2.48253L7.26148 2.19561L7.08683 1.94611L6.8997 1.67166L6.11377 1.65918H4.29242Z" fill="#696969"/>
</svg>
