<svg width="26" height="19" viewBox="0 0 26 19" fill="none" xmlns="http://www.w3.org/2000/svg">
<path d="M17.7227 1.05859L19.5781 1.14258L20.8086 1.22559L21.8096 1.33008L22.4971 1.43457L22.9775 1.55957L23.415 1.74707L23.749 1.95605L24.082 2.22656L24.332 2.47656L24.583 2.81055L24.791 3.18555L24.958 3.62402L25.083 4.12402L25.208 4.85352L25.3125 5.70898L25.3955 6.70996L25.458 7.83594L25.5 9.10742V10.2959L25.458 11.7344L25.3955 12.8398L25.3125 13.8613L25.208 14.6953L25.1035 15.3213L24.9785 15.8633L24.833 16.2803L24.624 16.6758L24.416 16.9678L24.166 17.2598L23.957 17.4473L23.665 17.6562L23.3311 17.8438L22.9141 18.0107L22.3936 18.1357L21.6631 18.2402L20.5996 18.3438L19.6406 18.4072L18.3271 18.4697L16.7432 18.5322L15.2412 18.5732H10.8213L7.61035 18.4697L6.31738 18.4072L5.14941 18.3232L4.31543 18.2402L3.58594 18.1357L3.06445 18.0107L2.75195 17.8857L2.45996 17.7393L2.12598 17.5098L1.87598 17.2812L1.62598 17.0303L1.39648 16.7178L1.22949 16.4258L1.0625 16.0088L0.916992 15.4668L0.791992 14.7373L0.6875 13.8613L0.625 13.1943L0.5625 12.3184L0.5 11.1924V8.29395L0.604492 6.64746L0.666992 5.85449L0.791992 4.8125L0.896484 4.22852L1 3.76953L1.10449 3.43555L1.25098 3.10254L1.41699 2.81055L1.62598 2.53906L1.81348 2.33105L2.00098 2.14355L2.33496 1.89258L2.70996 1.68457L3.02246 1.55957L3.39844 1.45508L4.02344 1.35059L4.94141 1.24707L6.40039 1.14258L7.77734 1.08008L9.65332 1.01758L11.3008 0.975586H14.9492L17.7227 1.05859ZM10.4258 6.79297V13.2773L10.4463 13.4648H10.4883L10.6553 13.3818L11.0518 13.1523L11.5312 12.8809L11.9688 12.6309L12.3438 12.4229L12.6982 12.2139L13.2197 11.9219L13.6162 11.6924L14.6582 11.1094L15.0127 10.9004L15.5762 10.5879L16.1182 10.2754L16.5146 10.0459L16.9102 9.83691L16.9521 9.75391L16.4307 9.46191L15.9307 9.16992L15.5137 8.94043L15.0127 8.64844L14.5957 8.41895L14.0957 8.12695L13.5742 7.83496L12.5527 7.25195L12.0732 6.98047L11.6348 6.73047L11.1143 6.43848L10.5508 6.12598L10.4463 6.08398L10.4258 6.79297Z" fill="#696969"/>
</svg>
