<svg width="500" height="500" viewBox="0 0 500 500" fill="none" xmlns="http://www.w3.org/2000/svg">
<path d="M346.221 0C347.385 0 348.549 0 349.778 0C352.632 35.2611 339.173 61.608 322.816 80.6877C306.767 99.6355 284.789 118.013 249.242 115.224C246.871 80.4681 260.352 56.0752 276.687 37.0395C291.837 19.2992 319.611 3.51293 346.221 0Z" fill="black"/>
<path d="M453.827 367.013C453.827 367.365 453.827 367.672 453.827 368.002C443.837 398.257 429.588 424.186 412.199 448.25C396.325 470.096 376.872 499.495 342.138 499.495C312.124 499.495 292.188 480.196 261.428 479.669C228.89 479.142 210.996 495.806 181.246 500C177.842 500 174.439 500 171.102 500C149.256 496.838 131.625 479.537 118.781 463.948C80.9075 417.885 51.6404 358.385 46.1953 282.242C46.1953 274.777 46.1953 267.334 46.1953 259.869C48.5007 205.375 74.9794 161.068 110.175 139.595C128.749 128.178 154.284 118.452 182.717 122.799C194.902 124.687 207.351 128.859 218.263 132.986C228.604 136.96 241.536 144.008 253.788 143.635C262.087 143.393 270.342 139.068 278.707 136.016C303.21 127.168 327.23 117.024 358.89 121.789C396.94 127.541 423.945 144.447 440.632 170.531C408.444 191.016 382.998 221.886 387.345 274.601C391.209 322.487 419.049 350.503 453.827 367.013Z" fill="black"/>
</svg>
