<svg width="9" height="14" viewBox="0 0 9 14" fill="none" xmlns="http://www.w3.org/2000/svg">
<path d="M1.08705 0H1.40154L1.40838 0.0136719L1.53144 0.0546875L1.66134 0.123047L1.73654 0.18457L1.81858 0.259766L8.02638 6.4668L8.11526 6.58301L8.17679 6.69922L8.21781 6.83594L8.23148 6.93164V7.05469L8.21097 7.18457L8.17679 7.28711L8.12209 7.39648L8.08107 7.45801L8.00587 7.54688L1.75022 13.8018L1.62715 13.8906L1.51776 13.9453L1.3947 13.9863H1.36736V14H1.0597V13.9863L0.916128 13.9385L0.813577 13.8838L0.717862 13.8086L0.63582 13.7334L0.205103 13.3027L0.116225 13.1865L0.0546942 13.0703L0.0205103 12.9609L0 12.8516V12.708L0.0205103 12.585L0.0546942 12.4824L0.102552 12.3867L0.150409 12.3115L0.225614 12.2295L0.273471 12.1748L5.4284 7.02051L5.44891 7.00684L5.43524 6.97266L5.40105 6.94531L5.3532 6.89062L0.205103 1.74316L0.116225 1.62695L0.0478574 1.4834L0.0136736 1.36035L0 1.2168L0.0136736 1.08691L0.0546942 0.943359L0.109388 0.833984L0.150409 0.772461L0.21194 0.697266L0.287145 0.615234L0.690515 0.211914L0.758882 0.157227L0.847761 0.0957031L0.963986 0.0410156L1.07337 0.00683594L1.08705 0Z" fill="black"/>
</svg>
