<svg width="70" height="70" viewBox="0 0 70 70" fill="none" xmlns="http://www.w3.org/2000/svg">
<circle cx="35" cy="35" r="35" fill="black"/>
<path d="M33.0328 36.7651L30.3162 34.1897C29.9727 33.8584 29.5436 33.6927 29.029 33.6927C28.5144 33.6927 28.0692 33.8734 27.6932 34.2349C27.3497 34.5662 27.178 34.9879 27.178 35.5C27.178 36.0121 27.3497 36.4338 27.6932 36.7651L31.7213 40.6508C32.096 41.0122 32.5332 41.1929 33.0328 41.1929C33.5324 41.1929 33.9696 41.0122 34.3443 40.6508L42.3068 32.9698C42.6815 32.6083 42.8607 32.1866 42.8445 31.7047C42.8283 31.2228 42.649 30.8011 42.3068 30.4396C41.9321 30.0782 41.4874 29.8902 40.9728 29.8757C40.4582 29.8613 40.013 30.0342 39.637 30.3944L33.0328 36.7651ZM27.7869 53.121L25.0703 48.6932L19.918 47.6088C19.4496 47.5184 19.0749 47.2853 18.7939 46.9094C18.5129 46.5335 18.4036 46.119 18.466 45.666L18.9813 40.5604L15.4684 36.6747C15.1561 36.3434 15 35.9518 15 35.5C15 35.0482 15.1561 34.6566 15.4684 34.3253L18.9813 30.4396L18.466 25.334C18.4036 24.8822 18.5129 24.4677 18.7939 24.0906C19.0749 23.7135 19.4496 23.4804 19.918 23.3912L25.0703 22.3068L27.7869 17.879C28.0367 17.4874 28.3802 17.2236 28.8173 17.0874C29.2545 16.9513 29.6916 16.9742 30.1288 17.1561L35 19.1441L39.8712 17.1561C40.3084 16.9754 40.7455 16.9525 41.1827 17.0874C41.6198 17.2224 41.9633 17.4862 42.2131 17.879L44.9297 22.3068L50.082 23.3912C50.5504 23.4816 50.9251 23.7153 51.2061 24.0924C51.4871 24.4696 51.5964 24.8834 51.534 25.334L51.0187 30.4396L54.5316 34.3253C54.8439 34.6566 55 35.0482 55 35.5C55 35.9518 54.8439 36.3434 54.5316 36.6747L51.0187 40.5604L51.534 45.666C51.5964 46.1178 51.4871 46.5323 51.2061 46.9094C50.9251 47.2865 50.5504 47.5196 50.082 47.6088L44.9297 48.6932L42.2131 53.121C41.9633 53.5126 41.6198 53.7764 41.1827 53.9126C40.7455 54.0487 40.3084 54.0258 39.8712 53.8439L35 51.8559L30.1288 53.8439C29.6916 54.0246 29.2545 54.0475 28.8173 53.9126C28.3802 53.7776 28.0367 53.5138 27.7869 53.121ZM30.2225 49.8679L35 47.8799L39.8712 49.8679L42.4941 45.5304L47.6464 44.3557L47.178 39.2953L50.644 35.5L47.178 31.6143L47.6464 26.554L42.4941 25.4696L39.7775 21.1321L35 23.1201L30.1288 21.1321L27.5059 25.4696L22.3536 26.554L22.822 31.6143L19.356 35.5L22.822 39.2953L22.3536 44.446L27.5059 45.5304L30.2225 49.8679Z" fill="#F3F3F3"/>
</svg>
