<svg width="20" height="20" viewBox="0 0 20 20" fill="none" xmlns="http://www.w3.org/2000/svg">
<path d="M5.90909 5.90909V3.45455C5.90909 2.80356 6.16769 2.17924 6.62801 1.71892C7.08833 1.2586 7.71265 1 8.36364 1H11.6364C12.2873 1 12.9117 1.2586 13.372 1.71892C13.8323 2.17924 14.0909 2.80356 14.0909 3.45455C14.0909 4.10553 13.8323 4.72985 13.372 5.19017C12.9117 5.65049 12.2873 5.90909 11.6364 5.90909H1V14.9091C1 15.9941 1.43101 17.0346 2.1982 17.8018C2.96539 18.569 4.00593 19 5.09091 19H14.9091C15.9941 19 17.0346 18.569 17.8018 17.8018C18.569 17.0346 19 15.9941 19 14.9091V5.90909H16" stroke="#111111" stroke-width="1.5"/>
</svg>
