<svg width="16" height="16" viewBox="0 0 16 16" fill="none" xmlns="http://www.w3.org/2000/svg">
<path d="M13.8333 3.45L13.3511 10.4675C13.2282 12.2602 13.1668 13.1569 12.6667 13.8016C12.4198 14.1202 12.1019 14.3891 11.7333 14.5912C10.989 15 9.9911 15 7.9953 15C5.99644 15 4.997 15 4.25111 14.5905C3.88236 14.388 3.5645 14.1186 3.31778 13.7995C2.81844 13.1541 2.75778 12.256 2.638 10.4605L2.16667 3.45M1 3.45H15M11.1547 3.45L10.6234 2.4644C10.2711 1.8092 10.0946 1.4823 9.7904 1.2779C9.7229 1.23262 9.6514 1.19236 9.5766 1.1575C9.2398 1 8.8353 1 8.0272 1C7.1981 1 6.7836 1 6.4406 1.1638C6.3647 1.20035 6.2924 1.24249 6.2243 1.2898C5.91711 1.5019 5.74522 1.8414 5.40144 2.5197L4.93011 3.45M6.0556 11.15V6.95M9.9444 11.15V6.95" stroke="black" stroke-width="1.3" stroke-linecap="round" stroke-linejoin="round"/>
</svg>
