<svg width="24" height="24" viewBox="0 0 24 24" fill="none" xmlns="http://www.w3.org/2000/svg">
<path d="M11.2031 0L12.8906 0V0.0117188L13.6055 0.09375L14.0742 0.164063L14.4961 0.246094L15 0.363281L15.4922 0.503906L15.8203 0.609375L16.1602 0.726563L16.6055 0.902344L17.0508 1.10156L17.4375 1.28906L17.7305 1.44141L18.2344 1.73438L18.4922 1.89844L18.8086 2.10938L19.0195 2.26172L19.1836 2.37891L19.3477 2.50781L19.5586 2.67188L19.7109 2.80078L19.875 2.94141L19.9922 3.04688L20.0859 3.12891L20.2617 3.29297L20.3672 3.39844L20.3906 3.41016V3.43359L20.4375 3.45703L20.5312 3.55078V3.57422L20.5781 3.59766L20.6602 3.69141L20.8125 3.84375L20.8945 3.9375L21.0117 4.06641L21.1172 4.19531L21.2344 4.32422L21.3633 4.48828L21.5039 4.66406L21.6797 4.89844L21.9609 5.29688L22.1133 5.53125L22.1953 5.66016L22.3477 5.90625L22.4531 6.09375L22.6875 6.51562L22.793 6.73828L22.8867 6.92578L23.0391 7.26562L23.2148 7.69922L23.3672 8.12109L23.4727 8.4375L23.6133 8.92969L23.7188 9.36328L23.8359 9.94922L23.9062 10.418L23.9766 11.0508H24V12.9141L23.9766 12.9258L23.9062 13.582L23.8359 14.0508L23.7539 14.4844L23.6484 14.9297L23.5312 15.3633L23.4258 15.7031L23.3203 16.0195L23.1562 16.4531L23.0156 16.7812L22.8281 17.1914L22.7344 17.3906L22.6172 17.6133L22.4883 17.8477L22.3242 18.1289L22.2188 18.3047L22.043 18.5742L21.9375 18.7383L21.8203 18.9023L21.6797 19.1016L21.4922 19.3477L21.3398 19.5352L21.2578 19.6406L21.1172 19.8047L21.0117 19.9219L20.9062 20.0508L20.8242 20.1328L20.8125 20.1562H20.7891L20.7656 20.2031L20.5547 20.4141L20.4961 20.4844L20.4023 20.5664L20.2031 20.7656L20.1094 20.8477L19.9453 21L19.8164 21.1055L19.6992 21.2109L19.5703 21.3164L19.4062 21.4453L19.1953 21.6094L18.9844 21.7617L18.8203 21.8789L18.5742 22.043L18.3164 22.207L18.0234 22.3828L17.6953 22.5703L17.2852 22.7812L17.0156 22.9102L16.5938 23.0977L16.1367 23.2734L15.7031 23.4258L15.1875 23.5781L14.6719 23.707L14.0977 23.8242L13.6406 23.8945L12.9609 23.9766L12.75 24H11.1094V23.9883L10.8516 23.9531L10.2656 23.8828L9.71484 23.7891L9.22266 23.6836L8.76562 23.5664L8.34375 23.4375L7.95703 23.3086L7.52344 23.1445L7.19531 23.0039L6.78516 22.8164L6.43359 22.6406L6.17578 22.5L5.92969 22.3594L5.66016 22.1953L5.42578 22.043L5.25 21.9258L5.05078 21.7852L4.83984 21.6328L4.6875 21.5156L4.51172 21.375L4.34766 21.2461L4.23047 21.1406L4.10156 21.0352L3.97266 20.918L3.87891 20.8359L3.72656 20.6836L3.63281 20.6016L3.30469 20.2734V20.25H3.28125L3.19922 20.1562L3.09375 20.0508L2.98828 19.9219L2.85938 19.7812L2.75391 19.6523L2.625 19.5L2.48438 19.3125L2.34375 19.1367L2.20312 18.9375L2.03906 18.7031L1.88672 18.4688L1.72266 18.2109L1.54688 17.9062L1.38281 17.6133L1.25391 17.3672L1.125 17.0977L0.914063 16.6289L0.738281 16.1836L0.585938 15.75L0.445313 15.293L0.304688 14.7539L0.210938 14.3203L0.128906 13.8398L0.0820313 13.5117L0.0117188 12.8555L0 12.8438L0 11.1562L0.0117188 11.1328L0.09375 10.3828L0.175781 9.86719L0.292969 9.29297L0.421875 8.78906L0.5625 8.32031L0.714844 7.875L0.855469 7.51172L0.996094 7.18359L1.125 6.90234L1.24219 6.65625L1.35938 6.43359L1.51172 6.14062L1.69922 5.82422L1.85156 5.57812L2.00391 5.34375L2.16797 5.10938L2.32031 4.89844L2.41406 4.76953L2.57812 4.55859L2.68359 4.42969L2.77734 4.3125L2.88281 4.19531L2.98828 4.06641L3.02344 4.01953H3.04688L3.07031 3.97266L3.25781 3.77344L3.36328 3.66797L3.375 3.64453H3.39844L3.42188 3.59766L3.65625 3.36328H3.67969V3.33984L3.77344 3.25781L3.89062 3.14062L3.98438 3.05859L4.10156 2.95312L4.23047 2.84766L4.34766 2.74219L4.54688 2.58984L4.6875 2.47266L4.875 2.33203L5.27344 2.05078L5.48438 1.91016L5.74219 1.74609L6 1.59375L6.29297 1.42969L6.60938 1.26562L6.96094 1.08984L7.41797 0.890625L7.74609 0.761719L8.16797 0.609375L8.57812 0.480469L9.04688 0.351563L9.49219 0.246094L9.99609 0.152344L10.5586 0.0703125L11.2031 0ZM11.5664 1.72266L11.0508 1.75781L10.5352 1.81641L10.1016 1.88672L9.62109 1.99219L9.33984 2.0625L8.94141 2.17969L8.51953 2.32031L8.0625 2.49609L7.57031 2.71875L7.17188 2.91797L6.90234 3.07031L6.58594 3.25781L6.35156 3.41016L6.17578 3.52734L5.96484 3.67969L5.83594 3.77344L5.50781 4.03125L5.34375 4.17188L5.16797 4.32422L5.02734 4.45312L4.875 4.59375L4.52344 4.94531L4.44141 5.03906L4.27734 5.21484L4.17188 5.34375L4.03125 5.50781L3.77344 5.83594L3.65625 6L3.51562 6.19922L3.375 6.41016L3.1875 6.70312L3 7.03125L2.78906 7.42969L2.64844 7.72266L2.48438 8.09766L2.33203 8.49609L2.17969 8.94141L2.03906 9.44531L1.92188 9.94922L1.82812 10.4648L1.76953 10.9453L1.73438 11.3555L1.72266 11.625V12.3633L1.74609 12.7969L1.79297 13.2656L1.85156 13.6758L1.94531 14.168L2.03906 14.5664L2.17969 15.0586L2.35547 15.5742L2.49609 15.9258L2.61328 16.1953L2.77734 16.5469L2.89453 16.7695L2.96484 16.9102L3.12891 17.1914L3.22266 17.3555L3.41016 17.6484L3.53906 17.8359L3.67969 18.0352L3.82031 18.2227L3.94922 18.3867L4.10156 18.5742L4.24219 18.7383L4.35938 18.8672L4.44141 18.9609L4.53516 19.0547L4.61719 19.1484L4.89844 19.4297H4.92188V19.4531L5.01562 19.5352L5.09766 19.6172L5.19141 19.6992L5.35547 19.8398L5.50781 19.9688L5.70703 20.1211L5.88281 20.2617L6.10547 20.4141L6.28125 20.543L6.46875 20.6602L6.69141 20.8008L6.99609 20.9766L7.13672 21.0586L7.32422 21.1523L7.5 21.2461L7.88672 21.4219L8.10938 21.5156L8.49609 21.668L8.96484 21.8203L9.23438 21.9023L9.79688 22.043L10.3594 22.1484L10.8984 22.2188L11.2617 22.2539L11.6484 22.2773H12.3164L12.8672 22.2422L13.3125 22.1953L13.7812 22.125L14.25 22.0312L14.7656 21.9023L15.2227 21.7617L15.6211 21.6211L16.0547 21.4453L16.4648 21.2578L16.8164 21.082L17.0859 20.9297L17.4023 20.7422L17.6953 20.5547L17.9297 20.3906L18.1406 20.2383L18.293 20.1211L18.4688 19.9805L18.5977 19.875L18.7617 19.7344L18.9023 19.6055L18.9961 19.5234L19.1016 19.418L19.1953 19.3359L19.3828 19.1484L19.4648 19.0547L19.5938 18.9258L19.6758 18.832L19.6992 18.7852H19.7227L19.8281 18.6562L19.9688 18.4922L20.0977 18.3281L20.2617 18.1172L20.4258 17.8828L20.5664 17.6836L20.7422 17.4023L20.8359 17.25L21.0117 16.9453L21.1875 16.6055L21.2812 16.418L21.4336 16.0898L21.5625 15.7734L21.6914 15.4336L21.8555 14.9297L21.9727 14.5078L22.0664 14.0977L22.1602 13.5938L22.2305 13.0078L22.2656 12.5391L22.2773 12.2227V11.8008L22.2539 11.2617L22.207 10.7695L22.1367 10.2773L22.0547 9.84375L21.9492 9.39844L21.8086 8.91797L21.668 8.49609L21.4922 8.05078L21.3633 7.75781L21.2461 7.5L21.1289 7.27734L20.9883 7.00781L20.8242 6.72656L20.6719 6.48047L20.4375 6.12891L20.3203 5.96484L20.1797 5.77734L20.0625 5.625L19.8516 5.36719L19.7461 5.25L19.6406 5.12109L19.5586 5.03906L19.5469 5.01562H19.5234L19.5 4.96875L19.3477 4.81641L19.2656 4.72266L19.2188 4.67578H19.1953L19.1836 4.64062L19.0898 4.55859L18.9844 4.45312L18.8906 4.37109L18.75 4.24219L18.6211 4.13672L18.457 3.99609L18.2578 3.84375L18.1055 3.72656L17.707 3.44531L17.4844 3.30469L17.2383 3.15234L16.9336 2.97656L16.6172 2.8125L16.3125 2.66016L15.9375 2.49609L15.4805 2.32031L15.0586 2.17969L14.6602 2.0625L14.2266 1.95703L13.7578 1.86328L13.3711 1.80469L12.9375 1.75781L12.4102 1.72266H11.5664Z" fill="#696969"/>
<path d="M7.35884 6.84375L7.52719 6.85547L7.65064 6.89062L7.75165 6.9375L7.86388 7.00781L8.00978 7.13672L11.4777 10.7578L11.5226 10.7344L15.0354 7.06641L15.1926 6.94922L15.316 6.89062L15.4507 6.85547H15.7425L15.9221 6.91406L16.0455 6.98438L16.169 7.08984L16.27 7.20703L16.3485 7.34766L16.4047 7.52344L16.4159 7.57031V7.85156L16.371 8.01562L16.2924 8.17969L16.2139 8.28516L16.169 8.34375H16.1465L16.1241 8.39062L15.9445 8.57812H15.9221L15.8996 8.625H15.8772L15.8547 8.67188H15.8323L15.8098 8.71875H15.7874L15.7649 8.76562H15.7425L15.72 8.8125H15.6976L15.6752 8.85938H15.6527L15.6303 8.90625H15.6078L15.5854 8.95312H15.5629L15.5405 9H15.518L15.4956 9.04688H15.4731L15.4507 9.09375H15.4282L15.4058 9.14062H15.3834L15.3609 9.1875H15.3385L15.316 9.23438H15.2936L15.2711 9.28125H15.2487L15.2262 9.32812H15.2038L15.1813 9.375H15.1589L15.1364 9.42188H15.114L15.0916 9.46875H15.0691L15.0467 9.51562H15.0242L15.0018 9.5625H14.9793L14.9569 9.60938H14.9344L14.912 9.65625H14.8895L14.8671 9.70312H14.8446L14.8222 9.75H14.7998L14.7773 9.79688H14.7549L14.7324 9.84375H14.71L14.6875 9.89062H14.6651L14.6426 9.9375H14.6202L14.5977 9.98438H14.5753L14.5528 10.0312H14.5304L14.508 10.0781H14.4855L14.4631 10.125H14.4406L14.4182 10.1719H14.3957L14.3733 10.2188H14.3508L14.3284 10.2656H14.3059L14.2835 10.3125H14.261L14.2386 10.3594H14.2162L14.1937 10.4062H14.1713L14.1488 10.4531H14.1264L14.1039 10.5H14.0815L14.059 10.5469H14.0366L14.0141 10.5938H13.9917L13.9692 10.6406H13.9468L13.9244 10.6875L13.857 10.7461L13.7897 10.8281L13.7223 10.8867L13.655 10.9688L13.5877 11.0273L13.5203 11.1094L13.453 11.168L13.3856 11.25L13.3408 11.2969H13.3183L13.2959 11.3438H13.2734L13.251 11.3906H13.2285L13.2061 11.4375L13.1387 11.4961L13.0714 11.5781L13.0041 11.6367L12.9367 11.7188H12.9143L12.8918 11.7656L12.8582 11.7773L12.8357 11.8242L12.802 11.8594H12.7796L12.7572 11.9062L12.7123 11.9297V11.9531H12.6898V11.9766H12.6674L12.701 12.0352L16.1577 15.6445L16.2363 15.7383L16.3373 15.9023L16.3934 16.043L16.4159 16.1484V16.418L16.371 16.582L16.2812 16.7695L16.1802 16.8984L16.0567 17.0039L15.8772 17.0977L15.7088 17.1445H15.4731L15.3385 17.1094L15.2038 17.0508L15.0579 16.9453L11.5114 13.2422L11.4665 13.2539L11.3767 13.3359L11.3206 13.4062L11.242 13.4766L11.1859 13.5469L11.1074 13.6172L11.0512 13.6875L10.9727 13.7578L10.9166 13.8281L10.838 13.8984L10.7819 13.9688L10.7033 14.0391L10.6472 14.1094L10.5686 14.1797L10.5125 14.25L10.434 14.3203L10.3779 14.3906L10.3105 14.4492L10.2432 14.5312L10.1758 14.5898L10.1085 14.6719L10.0412 14.7305L9.97382 14.8125L9.90649 14.8711L9.83915 14.9531L9.77181 15.0117L9.70447 15.0938L9.63713 15.1523L9.56979 15.2344L9.50245 15.293L9.43512 15.375L9.36778 15.4336L9.30044 15.5156L9.2331 15.5742L9.16576 15.6562L9.09842 15.7148L9.03109 15.7969L8.96375 15.8555L8.89641 15.9375L8.82907 15.9961L8.76173 16.0781L8.69439 16.1367L8.62705 16.2188L8.55972 16.2773L8.49238 16.3594L8.42504 16.418L8.3577 16.5L8.27914 16.5703L8.22302 16.6406L8.14446 16.7109L8.08835 16.7812L8.02101 16.8398L7.96489 16.8984L7.87511 16.9805L7.75165 17.0625L7.54964 17.1328L7.49352 17.1445H7.26906L7.12316 17.1094L6.9997 17.0508L6.88747 16.9805L6.77524 16.875L6.67424 16.7344L6.6069 16.5938L6.562 16.4414L6.55078 16.3594V16.2188L6.58445 16.043L6.64057 15.8906L6.74157 15.7383L6.84258 15.6211L10.2993 12.0117L10.2881 11.9648L6.74157 8.26172L6.64057 8.09766L6.57323 7.92188L6.55078 7.79297V7.65234L6.58445 7.46484L6.66301 7.27734L6.76402 7.13672L6.86503 7.03125L7.02215 6.92578L7.1905 6.86719L7.35884 6.84375Z" fill="#696969"/>
</svg>
