<svg width="10" height="14" viewBox="0 0 10 14" fill="none" xmlns="http://www.w3.org/2000/svg">
<path fill-rule="evenodd" clip-rule="evenodd" d="M0 5.12549C0 3.88229 0.49386 2.69 1.37294 1.81093C2.25201 0.931848 3.4443 0.437988 4.6875 0.437988C5.9307 0.437988 7.12299 0.931848 8.00206 1.81093C8.88114 2.69 9.375 3.88229 9.375 5.12549C9.375 5.87861 9.13437 6.73549 8.79125 7.58049C8.44438 8.43299 7.9775 9.30986 7.49125 10.1149C7.04751 10.8485 6.56625 11.5589 6.04938 12.243C5.61937 12.8086 5.22688 13.263 4.98 13.4599C4.89694 13.5262 4.7938 13.5623 4.6875 13.5623C4.5812 13.5623 4.47806 13.5262 4.395 13.4599C4.14812 13.263 3.75563 12.8086 3.32562 12.243C2.80896 11.5588 2.32791 10.8485 1.88437 10.1149C1.39687 9.30986 0.930625 8.43299 0.584375 7.57986C0.240625 6.73549 0 5.87861 0 5.12549ZM4.6875 7.15611C5.22622 7.15611 5.74288 6.94211 6.12381 6.56117C6.50474 6.18024 6.71875 5.66358 6.71875 5.12486C6.71875 4.58614 6.50474 4.06949 6.12381 3.68855C5.74288 3.30762 5.22622 3.09361 4.6875 3.09361C4.14878 3.09361 3.63212 3.30762 3.25119 3.68855C2.87026 4.06949 2.65625 4.58614 2.65625 5.12486C2.65625 5.66358 2.87026 6.18024 3.25119 6.56117C3.63212 6.94211 4.14878 7.15611 4.6875 7.15611Z" fill="black"/>
</svg>
