<svg width="43" height="43" viewBox="0 0 43 43" fill="none" xmlns="http://www.w3.org/2000/svg">
<circle cx="21.5" cy="21.5" r="21.5" fill="white"/>
<path d="M25 10H28.1676V27.4515H25V10Z" fill="black"/>
<path d="M15.1553 10H12V26C12 30.4183 15.5817 34 20 34H36C36 32.6876 34.676 31.6238 33.0428 31.6238H21.1553C17.8416 31.6238 15.1553 28.9375 15.1553 25.6238V20.1418H24.148V20.015C24.148 19.7277 24.0849 19.4403 23.9587 19.153C23.8325 18.8656 23.6326 18.6121 23.3592 18.3923C23.1068 18.1557 22.7807 17.9698 22.381 17.8345C21.9814 17.6824 21.5081 17.6063 20.9611 17.6063H15.1553V10Z" fill="#A20009"/>
</svg>
