<svg width="24" height="24" viewBox="0 0 24 24" fill="none" xmlns="http://www.w3.org/2000/svg">
<path d="M13 0H16.1676V17.4515H13V0Z" fill="black"/>
<path d="M3.15533 0H0V16C0 20.4183 3.58172 24 8 24H24C24 22.6876 22.676 21.6238 21.0428 21.6238H9.15533C5.84162 21.6238 3.15533 18.9375 3.15533 15.6238V10.1418H12.148V10.015C12.148 9.72765 12.0849 9.44032 11.9587 9.15296C11.8325 8.8656 11.6326 8.61206 11.3592 8.39233C11.1068 8.15568 10.7807 7.96976 10.381 7.83453C9.98137 7.6824 9.50807 7.60634 8.96114 7.60634H3.15533V0Z" fill="#A20009"/>
</svg>
